<svg width="63" height="44" viewBox="0 0 63 44" fill="none" xmlns="http://www.w3.org/2000/svg">
<rect x="1.5" y="1.5" width="60" height="41" rx="8.5" fill="white" stroke="black" stroke-width="3"/>
<path d="M9.88898 32.861C11.2081 33.9661 12.7703 34.7428 14.4475 35.1275C14.608 35.18 14.716 34.97 14.608 34.865C11.0155 31.4375 12.9895 27.728 14.4475 26.0555C15.487 24.8615 16.9675 22.895 16.8595 20.258C16.8595 19.994 17.1295 19.7825 17.3425 19.9415C19.381 20.996 20.7745 23.3165 21.1495 25.214C21.7405 24.635 21.955 23.738 21.955 22.9475C21.955 22.6835 22.276 22.472 22.5445 22.6835C24.475 24.4235 27.799 30.329 22.4365 34.9685C22.33 35.075 22.4365 35.2865 22.5445 35.234C24.1705 34.8077 25.6996 34.0735 27.049 33.071C35.7895 26.321 30.1045 14.351 26.404 10.397C25.9225 9.92151 25.0645 10.238 25.0645 10.9235C25.0105 12.3485 24.5815 13.9295 23.4565 14.984C22.5985 11.399 19.7395 7.32651 15.664 5.32251C15.1285 5.05851 14.485 5.48001 14.539 6.06051C14.644 10.9655 11.4445 14.0885 8.65598 18.149C6.18848 21.7865 4.58048 28.484 9.88898 32.861Z" fill="black"/>
</svg>
