<svg width="440" height="587" viewBox="0 0 440 587" fill="none" xmlns="http://www.w3.org/2000/svg">
<rect x="1.01643" y="0.999865" width="490.674" height="581.24" transform="matrix(1 0 0.0164336 0.999865 -11.0164 0.000135046)" fill="#2238FF" stroke="white" stroke-width="2"/>
<path d="M1.405 458.258L-6.32384 422.518L-1.85804 423.023L15.628 420.409L18.768 456.549L1.405 458.258Z" fill="white"/>
<path d="M17.6407 561.023L9.91188 525.283L14.3777 525.787L31.8638 523.174L35.0037 559.313L17.6407 561.023Z" fill="white"/>
<path d="M11.0867 499.724L1.29893 477.536L5.84042 478.049L23.3692 477.254L28.5411 499.476L11.0867 499.724Z" fill="white"/>
<path d="M134.526 488.969C134.951 488.969 135.465 489.139 135.805 489.139C145.011 490.244 154.047 491.349 163.252 492.368L165.3 492.708C166.923 493.048 167.275 493.558 167.06 495.258C167.072 495.767 167 496.277 167.012 496.787C166.289 502.141 165.739 507.579 165.188 513.018C164.864 517.266 164.713 521.6 164.476 525.934C164.241 530.353 164.261 534.771 164.369 539.275C164.352 542.164 164.168 545.138 163.984 548.113C163.956 550.492 163.753 552.701 163.723 554.996C163.648 555.42 163.492 556.015 163.506 556.61C160.119 557.12 156.974 557.12 153.833 557.29C148.057 557.46 142.281 557.63 136.497 557.46C133.777 557.46 131.053 557.29 128.329 557.12C127.904 557.12 127.56 556.95 127.045 556.78C126.616 556.61 126.179 556.1 126.254 555.675C126.562 554.316 126.189 552.956 126.412 551.597C126.55 550.237 126.687 548.877 126.825 547.518L128.153 535.451C128.484 531.542 128.735 527.803 128.899 523.979C129.051 519.646 129.717 515.482 130.383 511.318C131.128 506.899 131.696 502.226 132.269 497.722C132.635 495.258 132.915 492.708 133.194 490.159C133.259 489.309 133.761 488.969 134.526 488.969ZM135.208 492.623C134.866 492.538 134.36 492.708 133.935 492.708C133.87 493.558 133.886 494.238 133.732 494.918L132.876 516.077L132.706 523.215L132.273 533.582C132.305 534.941 132.253 536.301 132.198 537.576L131.688 544.714C131.714 545.818 131.571 546.923 131.51 547.943C131.522 548.452 131.872 548.877 132.297 548.877C134.169 548.962 135.96 549.217 137.658 549.132C141.989 548.962 141.164 549.982 141.398 545.563C141.661 542.334 141.755 539.105 141.848 535.876C141.961 533.497 142.074 531.117 142.188 528.738C142.265 528.398 142.256 528.058 142.248 527.718C142.487 527.039 142.902 526.614 143.667 526.614C144.942 526.614 146.132 526.614 147.409 526.699C148.004 526.699 148.435 526.954 149.032 527.039C149.544 527.124 150.066 527.633 149.913 528.313C149.945 529.673 149.977 531.032 149.925 532.392C149.457 537.746 149.417 543.184 149.206 548.622C149.218 549.132 149.396 549.472 149.409 549.982L157.237 550.322H157.747C158.425 550.237 158.842 549.897 158.91 549.217C159.072 548.877 159.147 548.452 159.135 547.943L159.58 538.085C159.819 533.837 159.975 529.673 160.042 525.339C160.27 520.665 160.416 516.077 160.558 511.318C160.602 509.618 160.56 507.834 160.77 505.965C161.114 502.565 161.033 499.166 161.292 495.767L161.282 495.343C161.268 494.748 160.835 494.408 160.323 494.323C159.301 494.238 158.281 494.238 157.257 494.068C155.725 493.983 154.189 493.728 152.657 493.643C152.315 493.558 151.809 493.728 151.384 493.728C151.224 497.722 150.975 501.546 150.894 505.285L150.495 517.096L150.196 518.796C150.036 519.221 149.704 519.561 149.279 519.561C147.836 519.646 146.221 519.646 144.772 519.476C143.066 519.221 142.718 518.881 142.677 517.181L142.653 516.162L143.115 506.984C143.088 505.88 143.147 504.775 143.123 503.755C143.323 501.461 143.272 499.336 143.473 497.042C143.807 493.218 144.139 492.878 139.723 493.048C138.274 492.878 136.74 492.708 135.208 492.623ZM140.878 513.018L140.627 513.187C140.625 513.102 140.54 513.102 140.538 513.018C140.538 513.018 140.623 513.018 140.789 512.848L140.878 513.018ZM142.018 560.859H142.273C142.103 560.859 142.107 561.029 142.022 561.029C142.018 560.859 141.933 560.859 141.933 560.859C141.933 560.859 142.016 560.774 142.018 560.859ZM167.98 508.089C168.235 508.089 168.407 508.174 168.662 508.174C168.688 509.279 168.628 510.298 168.486 511.488C168.488 511.573 168.32 511.658 168.071 511.913C167.717 511.318 167.875 510.808 167.863 510.298C167.93 509.534 167.998 508.854 167.98 508.089ZM180.487 512.168C184.035 511.233 187.437 511.318 190.95 512.508C194.207 513.612 196.137 516.162 196.641 519.476C197.04 521.94 197.182 524.319 197.412 526.869C197.767 534.601 197.868 542.419 198.904 550.237L198.92 550.917C199.021 551.597 198.604 551.936 198.013 552.106C197.248 552.106 196.485 552.191 195.635 552.191C193.34 552.191 193.51 552.191 191.766 550.322C191.428 550.407 191.007 550.577 190.588 550.832C188.166 552.616 185.12 553.211 182.058 553.126C178.061 553.041 173.847 551.002 172.623 545.988C171.874 543.099 171.72 540.21 172.246 537.321C173.013 533.837 175.167 531.457 178.277 530.013C181.05 528.653 184.013 528.143 187.067 527.888C188.087 527.888 189.19 527.803 190.459 527.548C191.08 525.084 190.602 522.875 190.125 520.665C189.659 518.966 188.362 518.031 186.575 517.946C185.555 517.946 184.363 517.861 183.262 518.031C180.722 518.456 179.237 520.325 178.957 522.875L178.971 523.47C179.063 527.293 178.714 526.954 175.148 527.124C174.638 527.124 174.213 527.124 173.786 527.039C173.106 527.039 172.673 526.699 172.659 526.104C172.348 523.724 172.463 521.43 173.09 519.221C174.363 515.567 176.6 513.102 180.487 512.168ZM190.003 533.412C187.028 533.412 184.239 534.092 181.546 535.196C180.198 535.706 179.378 536.981 178.901 538.34C178.18 540.21 178.397 542.164 179.034 543.949C179.666 545.478 180.878 546.413 182.586 546.753C184.638 547.263 186.5 546.923 188.429 545.818C190.191 544.883 191.086 543.184 191.211 541.314C191.499 539.105 191.359 536.811 191.307 534.601C191.373 533.837 190.683 533.412 190.003 533.412ZM166.147 534.601C166.709 536.811 166.709 536.811 165.981 538.34C165.44 537.066 165.918 535.706 166.147 534.601ZM166.159 538.68C166.699 539.955 166.814 541.23 166.078 542.419C165.62 541.06 165.422 539.87 166.159 538.68ZM166.078 542.419C166.523 543.269 166.711 544.034 166.047 544.714C165.859 543.949 165.671 543.184 166.078 542.419ZM166.053 544.968C166.31 545.053 166.482 545.138 166.153 545.563L165.981 545.478C165.977 545.308 165.97 545.053 166.053 544.968ZM166.225 548.622L166.047 548.283C166.472 548.283 166.223 548.537 166.225 548.622ZM166.234 548.962C166.952 550.577 167.162 552.276 166.355 554.061C166.057 552.276 165.677 550.577 166.234 548.962ZM166.361 554.316L166.717 554.996C166.723 555.251 166.557 555.42 166.393 555.675C166.302 555.42 166.213 555.251 166.209 555.081C166.203 554.826 166.282 554.571 166.361 554.316ZM188.487 555.42C188.657 555.42 188.744 555.505 188.748 555.675L188.665 555.76C188.495 555.76 188.408 555.675 188.408 555.675C188.404 555.505 188.489 555.505 188.487 555.42ZM207.813 502.565L215.908 503.415C216.175 503.925 216.272 504.435 216.286 505.03L215.707 512.848C215.803 513.272 215.643 513.697 215.649 513.952C216.007 514.717 216.517 514.717 217.027 514.717L222.307 515.142C222.904 515.227 223.412 515.142 223.93 515.482L224.054 517.096C223.896 517.606 223.906 518.031 223.831 518.456C223.59 519.051 223.173 519.391 222.578 519.391L218.743 518.966C217.634 518.796 216.614 518.796 215.341 518.881C215.351 519.306 215.274 519.646 215.282 519.986L213.746 541.145C213.611 542.589 213.645 544.034 214.355 545.308C214.977 546.413 215.839 546.923 217.029 546.923C218.053 547.093 218.891 546.583 219.298 545.818C219.704 545.053 219.854 544.204 220.006 543.439C220.168 543.099 220.158 542.674 220.231 542.164C220.374 541.06 220.961 540.72 222.155 540.89C222.667 540.975 223.1 541.314 223.113 541.824C223.125 542.334 223.135 542.759 223.06 543.184C222.35 545.478 221.724 547.773 219.984 549.642C217.751 552.276 214.714 553.211 211.468 552.531C207.029 551.767 204.421 549.302 203.542 544.544C203.328 542.674 203.285 540.89 203.498 539.105L204.459 525.934L204.629 522.365C204.852 521.005 204.987 519.561 204.961 518.456C204.433 517.691 204.008 517.691 203.411 517.606L200.511 517.181C199.831 517.181 199.479 516.671 199.379 516.077L199.373 515.822C199.319 513.527 199.568 513.272 201.865 513.357L204.251 513.612C204.929 513.527 205.263 513.272 205.248 512.678L205.904 508.089L206.374 502.82C206.967 502.735 207.303 502.565 207.813 502.565ZM219.872 523.555C219.324 529.078 218.561 532.732 216.09 539.615C216.084 539.36 215.995 539.19 215.993 539.105C216.932 535.706 217.788 532.392 218.213 528.823C218.344 527.208 219.071 525.594 219.872 523.555ZM251.88 500.016C251.063 501.376 250.235 502.311 248.45 502.311C242.16 502.311 235.959 502.481 229.754 502.481H215.049C214.369 502.481 213.685 502.311 212.92 502.311C216.729 501.631 220.473 501.801 224.043 501.801H245.803C246.738 501.801 247.584 501.631 248.237 500.526C249.061 499.421 250.427 499.676 251.88 500.016ZM234.131 514.972H233.961C239.264 512.763 244.305 513.867 248.956 516.417C251.192 517.521 252.603 519.646 253.341 522.11C253.999 524.744 254.485 527.293 254.207 529.928C254.143 530.777 253.479 531.457 252.631 531.542C250.514 531.882 248.555 531.712 246.509 531.457C243.441 531.117 240.209 531.032 236.975 530.862C235.87 530.862 234.789 531.882 234.817 533.072C234.815 536.556 235.151 539.955 237.011 543.099C239.766 548.113 246.649 548.028 249.298 545.053L252.449 541.739C252.615 541.569 253.125 541.569 253.299 541.739C253.56 541.994 253.995 542.419 253.831 542.674C253.596 543.524 253.196 544.544 252.704 545.308C249.601 550.662 242.69 553.126 236.092 550.917C234.378 550.322 232.741 549.387 230.855 548.707H231.025L230.847 548.367C226.746 543.949 225.093 538.765 225.206 532.817C225.415 527.293 226.651 522.11 230.288 517.776C231.697 516.247 231.525 516.162 232.62 515.737C233.21 515.567 233.544 515.312 234.131 514.972ZM238.379 518.456C237.473 519.646 236.651 520.835 236.256 522.11C235.694 523.47 235.649 525.169 235.342 526.529C235.69 526.869 235.781 527.124 236.125 527.293C238.442 528.228 240.818 528.058 243.186 527.548C243.607 527.378 244.19 526.869 244.265 526.444C244.629 523.894 244.317 521.515 243.16 519.306C242.097 517.521 239.707 517.096 238.379 518.456ZM258.56 501.036C260.608 501.376 262.652 501.546 264.699 501.801C271.264 502.65 271.527 502.99 277.926 504.01C285.007 505.115 283.34 506.474 282.589 510.638C281.156 518.286 279.15 555.42 278.335 560.434C278.266 561.114 278.025 561.709 277.786 562.389C277.562 563.663 276.641 564.258 275.451 564.258L272.049 564.173C266.263 563.918 260.477 563.663 254.776 563.408C255.891 545.988 255.735 546.583 256.51 529.163C256.474 527.633 257.445 525.594 257.915 523.894C258.002 523.979 258.004 524.064 258.01 524.319L258.542 546.668C258.595 548.877 258.649 551.172 258.874 553.466C258.985 554.571 259.677 555.081 260.869 555.166C261.723 555.336 262.488 555.336 263.338 555.336C268.525 555.42 268.523 555.336 268.57 550.152C268.542 545.393 268.256 540.55 268.06 535.876C267.809 532.477 268.384 531.627 271.416 530.438C271.919 530.183 272.512 530.098 273.018 529.928C276.736 528.993 276.918 529.503 276.882 524.404C276.858 523.385 276.75 522.45 276.641 521.43C276.536 520.58 275.585 519.901 274.743 520.24C273.646 520.58 272.721 521.005 271.802 521.685C270.964 522.195 270.561 523.13 269.815 523.894C269.564 524.064 268.979 524.489 268.807 524.404C268.374 524.064 268.024 523.64 267.929 523.215C267.095 520.325 267.095 520.325 264.118 520.24H262.928C262.163 520.24 261.566 520.155 260.803 520.24C259.443 520.24 258.688 520.665 258.281 521.43C258.546 514.717 258.724 507.919 258.56 501.036ZM288.959 503.84C289.132 503.925 289.051 504.095 289.055 504.265L288.729 511.998C288.739 512.423 288.751 512.933 288.417 513.187L288.569 505.285C288.727 504.775 288.715 504.265 288.959 503.84ZM296.757 510.043C298.708 509.873 300.744 509.703 302.713 510.298C303.571 510.638 304.427 510.893 305.288 511.318L306.407 511.913L307.332 511.488C307.755 511.403 308.176 511.233 308.431 511.233C310.212 511.063 310.299 511.148 310.333 512.593L310.365 513.952C310.422 516.332 310.564 518.711 311.045 521.09C311.349 523.13 311.09 522.96 309.475 522.96H308.795C307.688 522.875 307.601 522.79 307.064 521.685L305.8 518.541C305.344 517.266 304.383 516.162 303.26 515.397C302.566 514.802 301.788 514.292 300.849 514.122C299.224 513.697 297.528 513.867 295.844 514.547C295.764 514.717 295.683 514.887 295.432 515.057L294.602 515.907C294.102 516.332 293.861 516.926 293.711 517.776C293.564 518.711 293.673 519.731 293.952 520.75C294.236 521.94 294.855 522.96 295.893 523.724C297.625 525.084 299.354 526.274 301.41 526.954C302.784 527.548 304.073 528.143 305.288 529.163C305.634 529.418 305.978 529.588 306.411 529.928C307.884 531.117 309.274 532.392 310.165 534.092C310.349 534.686 310.703 535.281 310.802 535.876C311.448 538 311.671 540.21 311.387 542.589C311.09 544.374 310.531 545.903 309.463 547.433L309.137 548.028C308.321 549.472 307.071 550.492 305.731 551.342C303.889 552.531 303.889 552.531 301.604 552.956C299.659 553.381 297.708 553.551 295.573 553.126C294.122 552.871 292.497 552.446 291.202 551.597L290.601 551.342C290.083 551.002 289.571 550.917 288.984 551.257C287.893 551.852 286.879 552.106 285.685 551.936C285.26 551.936 285.084 551.682 285.076 551.342L285.355 548.792L285.63 546.073L286.254 540.125C286.241 539.615 286.486 539.19 286.563 538.85C288.506 538.34 289.797 539.02 290.267 540.89C290.461 541.909 290.651 542.759 291.014 543.694C291.566 545.478 292.531 546.753 294.005 547.943L294.436 548.198C296.67 549.217 298.886 549.472 301.074 548.537C302.42 547.943 303.073 546.838 303.553 545.563C303.551 545.478 303.543 545.138 303.369 544.968C303.367 544.883 303.191 544.629 303.102 544.459C304.1 543.524 303.905 542.504 303.624 541.399C303.171 540.21 302.468 539.275 301.432 538.595C300.222 537.746 298.927 536.896 297.551 536.216C295.832 535.451 294.278 534.431 292.641 533.497C291.52 532.817 290.56 531.797 289.686 530.777C288.462 529.333 287.488 527.718 287.019 525.849C286.924 525.424 286.658 524.999 286.476 524.489C286.395 524.659 286.312 524.744 286.314 524.829C285.993 525.594 285.752 526.189 285.683 526.869L284.315 533.667C284.015 535.366 283.882 536.896 283.837 538.595C283.872 540.04 283.732 541.314 283.422 542.589C283.194 543.694 283.052 544.883 282.906 545.903C282.928 546.838 282.779 547.688 282.799 548.537C282.732 549.302 282.75 550.067 282.688 551.002C282.572 549.727 282.54 548.367 282.514 547.263C282.56 545.648 282.694 544.119 282.829 542.674C283.04 540.805 283.252 539.02 283.548 537.151L284.175 531.372C284.467 529.333 285.011 527.208 285.559 525.254C286.26 522.535 287.043 519.731 287.569 516.841C287.561 516.502 287.808 516.162 287.883 515.737C287.873 515.312 288.118 514.887 288.364 514.547C289.113 513.867 289.862 513.187 290.694 512.423C291.275 511.828 291.945 511.403 292.706 511.233C293.968 510.723 295.231 510.213 296.757 510.043ZM288.417 513.187L288.364 514.547C288.184 514.122 288.089 513.697 288.417 513.187ZM303.314 542.674L303.488 542.844C303.318 542.844 303.32 542.929 303.235 542.929L303.148 542.844C303.231 542.759 303.316 542.759 303.314 542.674Z" fill="white"/>
</svg>
