<svg width="440" height="597" viewBox="0 0 440 597" fill="none" xmlns="http://www.w3.org/2000/svg">
<rect x="1.02989" y="0.999553" width="489.527" height="595.106" transform="matrix(1 0 0.0298939 0.999553 -28.0299 0.000446716)" fill="#2238FF" stroke="white" stroke-width="2"/>
<path d="M18.496 461.889L17.2459 424.432L21.5359 425.791L39.1462 426.491L35.8256 463.475L18.496 461.889Z" fill="white"/>
<path d="M13.3944 514.12L17.0435 476.996L21.1455 478.835L38.6212 481.57L30.4743 517.697L13.3944 514.12Z" fill="white"/>
<path d="M16.2192 568.449L14.9691 530.992L19.2591 532.351L36.8694 533.051L33.5488 570.035L16.2192 568.449Z" fill="white"/>
<path d="M99.0526 506.181C102.585 506.426 106.048 506.738 109.514 506.914C111.078 506.932 112.71 506.951 114.339 507.106C114.679 507.11 115.087 507.115 115.426 507.187C115.901 507.26 116.166 507.671 115.955 508.077C115.884 508.28 115.677 508.482 115.472 508.547C115.199 508.612 114.927 508.609 114.655 508.606C112.753 508.448 111.851 509.525 111.344 511.424C111.197 512.102 111.047 512.916 111.034 513.732L110.647 520.732L109.911 532.352C109.569 536.632 109.225 540.981 109.02 545.195L108.667 550.087C108.649 551.175 108.768 552.196 109.23 553.085C109.558 553.837 110.096 554.183 110.841 554.396C111.926 554.545 113.012 554.693 114.103 554.502C115.194 554.311 116.085 553.913 116.913 553.174C117.88 552.302 118.575 551.358 119.138 550.208C120.19 548.316 121.039 546.286 121.686 544.185C122.551 541.203 123.346 538.356 123.738 535.232C123.742 534.96 123.814 534.689 124.021 534.556C124.091 534.42 124.296 534.355 124.5 534.357C124.636 534.359 124.837 534.565 124.834 534.701C124.896 535.11 124.89 535.45 124.884 535.79C124.287 539.047 124.097 542.309 123.839 545.57C123.518 548.559 123.265 551.548 122.944 554.536C122.937 554.944 122.928 555.488 122.851 556.031C122.843 556.507 122.636 556.709 122.228 556.704C121.684 556.698 121.142 556.556 120.666 556.55C117.269 556.375 113.871 556.199 110.542 556.025C108.096 555.86 105.789 555.562 103.342 555.465C100.966 555.234 98.5857 555.206 96.275 555.111C95.7321 555.037 95.1202 555.03 94.4424 554.886C94.1716 554.815 94.1069 554.61 94.1114 554.338C94.1159 554.066 94.1204 553.794 94.4626 553.662C94.7368 553.53 95.0088 553.533 95.2808 553.536C96.9149 553.419 97.7476 552.408 98.2471 550.986C98.392 550.444 98.401 549.9 98.4088 549.424L98.7771 543.58L99.133 538.484C99.3025 536.445 99.4732 534.339 99.6439 532.233C99.7578 529.446 100.007 526.729 100.12 523.942C100.223 521.835 100.395 519.661 100.567 517.487C100.596 515.719 100.76 514.021 100.858 512.186C100.867 511.642 100.876 511.098 100.817 510.554C100.639 508.987 99.8383 508.026 98.4171 507.602C98.1451 507.598 97.8743 507.527 97.6034 507.456C97.1977 507.316 97.1398 506.703 97.3482 506.433C97.4173 506.366 97.4876 506.231 97.6236 506.232C98.1687 506.171 98.5766 506.175 99.0526 506.181ZM94.9365 516.606L94.941 516.334C95.0747 516.471 94.9376 516.538 94.9365 516.606ZM94.9231 517.422L94.9365 516.606C95.068 516.879 95.0635 517.151 94.9231 517.422ZM94.6298 518.71L94.9231 517.422C94.9197 517.626 95.0546 517.695 95.0524 517.831C94.9351 520.822 94.6819 523.811 94.0909 526.661L94.0207 526.796C93.7521 526.589 93.8257 526.25 93.8301 525.978C93.8346 525.706 93.8413 525.298 93.9818 525.027L94.6298 518.71ZM93.7118 529.036C93.7107 529.104 93.7787 529.105 93.7095 529.172C93.7095 529.172 93.6393 529.308 93.6382 529.376C93.6393 529.308 93.5056 529.17 93.6427 529.104C93.6427 529.104 93.7107 529.104 93.7118 529.036ZM93.6169 530.667C93.871 531.758 93.7126 533.117 93.3547 534.2C93.0951 533.449 93.3091 532.84 93.3214 532.092C93.3973 531.617 93.472 531.21 93.4798 530.734C93.4798 530.734 93.6158 530.735 93.6169 530.667ZM93.4227 534.201C93.4216 534.269 93.5576 534.271 93.5565 534.339C93.5229 536.379 93.5596 538.283 93.5951 540.256C93.5772 541.343 93.4913 542.431 93.4054 543.518C93.4032 543.654 93.2638 543.856 93.1902 544.195C92.9317 543.376 93.0086 542.833 93.0187 542.221C93.0545 540.045 93.2263 537.871 93.1239 535.83C93.0671 535.149 93.28 534.608 93.4227 534.201ZM147.153 514.422C146.455 515.502 145.763 516.242 144.335 516.226C139.303 516.168 134.337 516.246 129.374 516.189L117.61 516.052C117.067 516.046 116.525 515.904 115.913 515.897C118.982 515.388 121.971 515.559 124.827 515.592L142.234 515.794C142.982 515.802 143.664 515.674 144.222 514.796C144.917 513.92 146.002 514.137 147.153 514.422ZM132.473 526.221L132.337 526.219C136.65 524.501 140.647 525.432 144.285 527.514C146.038 528.418 147.098 530.131 147.61 532.109C148.051 534.222 148.358 536.266 148.051 538.37C147.972 539.049 147.419 539.587 146.738 539.647C145.033 539.899 143.472 539.745 141.843 539.522C139.4 539.222 136.817 539.124 134.236 538.958C133.352 538.948 132.454 539.754 132.439 540.705C132.325 543.492 132.484 546.214 133.87 548.746C135.912 552.782 141.421 552.778 143.636 550.424L146.263 547.802C146.402 547.668 146.81 547.672 146.943 547.81C147.144 548.016 147.478 548.36 147.339 548.562C147.124 549.24 146.771 550.052 146.352 550.659C143.698 554.913 138.09 556.82 132.884 554.991C131.531 554.5 130.252 553.737 128.765 553.176L128.901 553.177L128.769 552.904C125.632 549.331 124.476 545.17 124.758 540.413C125.103 535.996 126.259 531.861 129.308 528.429C130.484 527.218 130.349 527.149 131.239 526.819C131.717 526.688 131.993 526.488 132.473 526.221ZM135.759 529.047C134.995 529.99 134.3 530.934 133.943 531.95C133.449 533.033 133.359 534.392 133.069 535.476C133.336 535.752 133.401 535.956 133.671 536.095C135.494 536.865 137.4 536.751 139.311 536.365C139.653 536.233 140.136 535.83 140.209 535.491C140.583 533.455 140.41 531.549 139.555 529.771C138.763 528.334 136.865 527.972 135.759 529.047ZM148.835 520.902C149.039 520.905 149.174 520.974 149.378 520.977C149.364 521.86 149.282 522.676 149.13 523.626C149.129 523.694 148.992 523.76 148.785 523.962C148.521 523.483 148.663 523.076 148.67 522.668C148.748 522.057 148.825 521.514 148.835 520.902ZM158.709 524.281C161.577 523.566 164.296 523.665 167.068 524.65C169.637 525.563 171.099 527.62 171.396 530.276C171.635 532.251 171.672 534.155 171.774 536.197C171.809 542.385 171.638 548.64 172.215 554.903L172.206 555.447C172.265 555.992 171.92 556.26 171.442 556.39C170.83 556.383 170.217 556.444 169.537 556.436C167.701 556.415 167.837 556.416 166.502 554.905C166.229 554.97 165.887 555.102 165.543 555.302C163.548 556.707 161.092 557.154 158.645 557.058C155.451 556.953 152.146 555.282 151.328 551.261C150.822 548.943 150.792 546.63 151.306 544.324C152.032 541.544 153.831 539.661 156.366 538.534C158.628 537.473 161.014 537.092 163.465 536.917C164.281 536.926 165.166 536.868 166.19 536.676C166.766 534.711 166.455 532.939 166.144 531.167C165.827 529.804 164.819 529.044 163.392 528.959C162.576 528.95 161.626 528.871 160.739 528.997C158.694 529.313 157.445 530.795 157.14 532.831L157.132 533.307C157.082 536.367 156.814 536.091 153.956 536.194C153.548 536.19 153.208 536.186 152.869 536.114C152.325 536.108 151.99 535.832 151.998 535.356C151.825 533.45 151.991 531.615 152.564 529.854C153.7 526.943 155.569 524.992 158.709 524.281ZM165.637 541.362C163.257 541.334 161.004 541.852 158.814 542.711C157.719 543.106 157.022 544.118 156.596 545.201C155.96 546.69 156.07 548.256 156.522 549.689C156.978 550.918 157.918 551.677 159.273 551.965C160.898 552.392 162.399 552.137 163.977 551.271C165.418 550.54 166.188 549.189 166.348 547.695C166.65 545.93 166.612 544.093 166.641 542.326C166.719 541.715 166.181 541.368 165.637 541.362ZM146.514 542.093C146.893 543.865 146.893 543.865 146.261 545.082C145.87 544.057 146.296 542.974 146.514 542.093ZM146.392 545.355C146.784 546.38 146.835 547.401 146.207 548.345C145.885 547.254 145.765 546.3 146.392 545.355ZM146.207 548.345C146.536 549.029 146.662 549.643 146.109 550.18C145.983 549.567 145.857 548.953 146.207 548.345ZM146.106 550.384C146.309 550.455 146.443 550.524 146.166 550.861L146.031 550.791C146.033 550.655 146.037 550.451 146.106 550.384ZM146.126 553.309L145.994 553.035C146.334 553.039 146.127 553.241 146.126 553.309ZM146.121 553.581C146.644 554.879 146.757 556.24 146.054 557.66C145.873 556.23 145.624 554.867 146.121 553.581ZM146.051 557.864L146.314 558.411C146.31 558.615 146.172 558.75 146.033 558.952C145.968 558.747 145.902 558.61 145.905 558.474C145.908 558.27 145.979 558.067 146.051 557.864ZM163.715 558.953C163.851 558.954 163.918 559.023 163.915 559.159L163.846 559.226C163.71 559.225 163.643 559.156 163.643 559.156C163.646 559.02 163.714 559.021 163.715 558.953ZM186.774 509.781C187.042 510.056 186.77 510.053 186.631 510.187C186.634 510.051 186.772 509.917 186.774 509.781ZM186.631 510.187C186.618 511.003 186.336 511.612 186.121 512.29C185.841 512.762 185.56 513.303 185.825 513.714C186.497 514.198 187.18 514.07 187.792 514.077C190.849 514.248 193.841 514.283 196.697 514.316C198.941 514.342 201.187 514.232 203.295 514.257C203.906 514.264 204.656 514.204 205.195 514.483C205.717 515.849 205.016 517.065 205.127 518.63C205.261 518.768 205.395 518.837 205.665 518.976C205.799 519.114 206.002 519.184 206.206 519.187C206.201 519.459 206.267 519.595 206.265 519.731C205.802 523.058 205.678 526.457 205.145 529.919C204.912 531.684 204.476 533.379 204.312 535.077C203.782 538.336 203.663 541.462 203.675 544.863C203.621 548.126 203.565 551.526 203.51 554.857C203.492 555.945 203.677 557.103 203.725 558.328C203.899 560.166 203.598 561.931 203.366 563.628C203.353 564.444 202.869 564.914 202.184 565.179C201.843 565.243 201.571 565.239 201.027 565.233C200.012 564.949 199.201 564.6 198.329 563.91C197.723 563.495 197.116 563.216 196.367 563.275C195.551 563.266 194.735 563.256 193.848 563.45L193.168 563.442C190.251 563 187.32 563.374 184.332 563.136C181.68 563.105 178.96 563.073 176.377 562.976C173.252 562.803 173.526 562.67 173.575 559.679L173.758 548.596C173.785 546.965 173.607 545.33 173.431 543.628C173.446 542.744 173.463 541.725 173.884 540.913C174.594 539.086 175.307 537.122 176.088 535.091C177.786 531.098 179.285 526.831 180.305 522.695C180.953 520.526 181.529 518.561 182.105 516.595C182.319 515.986 182.462 515.579 183.139 515.791C183.615 515.797 183.755 515.526 183.896 515.256C184.597 513.972 185.23 512.687 186.066 511.473C186.21 510.999 186.422 510.525 186.631 510.187ZM191.264 517.993C190.992 517.99 190.852 518.193 190.784 518.192C190.848 518.465 190.845 518.601 190.981 518.602C192.19 519.568 192.576 520.865 192.551 522.429C192.433 525.419 192.388 528.207 192.065 531.263C192.051 532.147 192.037 532.963 191.683 533.843C191.406 534.112 191.675 534.319 191.672 534.523C191.719 535.748 191.907 536.77 191.82 537.925C191.633 540.983 191.792 543.705 191.469 546.829C191.467 546.965 191.531 547.17 191.528 547.374C191.442 548.461 191.489 549.754 191.132 550.77C190.979 551.788 190.963 552.808 191.424 553.697C191.62 554.176 191.542 554.787 191.599 555.467C191.593 555.807 191.52 556.147 191.511 556.69C191.507 556.894 191.637 557.304 191.978 557.24C193.002 556.98 193.944 557.603 194.896 557.614C197.072 557.639 199.178 557.731 201.284 557.892C201.624 557.896 201.762 557.761 202.442 557.769C201.037 556.393 200.791 554.826 200.818 553.126C200.872 549.862 200.997 546.396 201.255 543.135C201.334 542.455 201.416 541.64 201.429 540.824L201.562 532.734C201.569 532.326 201.714 531.783 201.723 531.239C201.81 530.084 201.828 528.996 202.118 527.912L202.194 523.288C202.296 521.181 202.582 520.369 203.831 518.819C203.087 518.606 202.339 518.598 201.387 518.587C200.297 518.71 199.206 518.901 198.189 518.686C196.834 518.398 195.474 518.382 194.252 518.232C193.234 518.084 192.214 518.072 191.264 517.993ZM198.696 525.084C198.897 525.222 199.097 525.497 198.958 525.699C198.885 525.97 198.678 526.172 198.407 526.101C198.271 526.099 198.074 525.689 198.077 525.485C198.286 525.215 198.424 525.081 198.696 525.084ZM186.786 529.706C186.447 529.634 186.038 529.698 185.766 529.694C184.95 529.685 184.472 529.815 183.791 529.876C181.682 529.919 180.098 531.125 178.848 532.674C178.152 533.686 177.592 534.632 177.031 535.646C176.819 536.119 176.677 536.526 176.533 537L175.81 539.576C175.668 539.982 175.594 540.321 175.659 540.526C175.982 541.55 175.763 542.431 175.612 543.382C175.537 543.789 175.528 544.333 175.52 544.809C175.546 547.393 175.979 549.982 176.892 552.373C178.269 555.449 180.484 557.243 183.466 557.889C185.026 558.111 186.594 557.926 188.042 556.718C188.11 556.719 188.112 556.583 188.186 556.244C188.05 556.242 187.712 556.102 187.644 556.102C186.353 556.019 185.82 555.332 185.432 554.104C185.172 553.421 185.185 552.605 185.2 551.721C185.239 549.341 185.484 546.828 185.322 544.31C185.365 541.658 185.61 539.213 185.787 536.699C185.94 535.681 186.164 534.459 186.385 533.442C186.604 532.492 187.226 531.887 187.91 531.691C188.457 531.494 188.797 531.498 189.753 531.237C189.083 530.617 188.678 530.476 188.476 530.338C187.938 529.992 187.328 529.849 186.786 529.706ZM229.624 515.378C228.926 516.458 228.234 517.198 226.806 517.181C221.774 517.123 216.808 517.201 211.845 517.144L200.082 517.008C199.538 517.001 198.996 516.859 198.384 516.852C201.453 516.343 204.442 516.514 207.298 516.547L224.705 516.749C225.453 516.757 226.135 516.629 226.693 515.752C227.388 514.876 228.473 515.092 229.624 515.378ZM214.944 527.176L214.808 527.175C219.121 525.456 223.118 526.387 226.756 528.469C228.51 529.373 229.569 531.086 230.081 533.064C230.522 535.177 230.829 537.221 230.522 539.325C230.443 540.004 229.89 540.542 229.209 540.602C227.504 540.854 225.943 540.7 224.314 540.477C221.871 540.177 219.288 540.079 216.707 539.913C215.823 539.903 214.925 540.709 214.91 541.661C214.796 544.447 214.955 547.169 216.341 549.702C218.383 553.737 223.892 553.733 226.107 551.379L228.735 548.757C228.873 548.623 229.281 548.627 229.414 548.765C229.615 548.971 229.949 549.315 229.81 549.518C229.595 550.195 229.242 551.007 228.824 551.614C226.169 555.868 220.561 557.775 215.355 555.947C214.002 555.455 212.723 554.692 211.236 554.131L211.372 554.132L211.24 553.859C208.103 550.286 206.947 546.125 207.229 541.368C207.574 536.951 208.73 532.817 211.779 529.384C212.955 528.173 212.82 528.104 213.71 527.774C214.188 527.643 214.464 527.443 214.944 527.176ZM218.23 530.002C217.466 530.946 216.771 531.89 216.414 532.906C215.92 533.988 215.83 535.347 215.54 536.432C215.807 536.707 215.872 536.911 216.142 537.051C217.965 537.82 219.871 537.706 221.782 537.32C222.124 537.188 222.607 536.785 222.68 536.446C223.054 534.411 222.881 532.504 222.026 530.726C221.234 529.289 219.336 528.927 218.23 530.002ZM234.935 516.255C236.562 516.546 238.192 516.701 239.821 516.924C245.045 517.664 245.244 517.939 250.331 518.814C255.96 519.763 254.582 520.835 253.847 524.159C252.455 530.263 249.654 559.948 248.84 563.951C248.763 564.494 248.551 564.967 248.338 565.509C248.117 566.527 247.361 566.994 246.409 566.983L243.691 566.883C239.07 566.626 234.45 566.368 229.898 566.112C231.351 552.188 231.207 552.662 232.389 538.735C232.409 537.511 233.252 535.889 233.682 534.534C233.749 534.602 233.748 534.67 233.744 534.874L233.45 552.756C233.421 554.524 233.391 556.359 233.496 558.197C233.55 559.081 234.087 559.496 235.038 559.575C235.716 559.719 236.328 559.726 237.008 559.733C241.154 559.85 241.155 559.782 241.36 555.636C241.49 551.829 241.418 547.952 241.412 544.212C241.32 541.49 241.808 540.816 244.271 539.893C244.682 539.693 245.159 539.631 245.57 539.5C248.574 538.786 248.703 539.196 248.838 535.117C248.852 534.301 248.796 533.553 248.741 532.736C248.685 532.055 247.946 531.503 247.261 531.767C246.373 532.028 245.619 532.36 244.862 532.895C244.176 533.295 243.823 534.039 243.201 534.644C242.995 534.777 242.514 535.112 242.379 535.042C242.043 534.766 241.777 534.423 241.714 534.083C241.14 531.764 241.14 531.764 238.762 531.668L237.81 531.657C237.198 531.65 236.723 531.577 236.11 531.638C235.022 531.625 234.404 531.958 234.054 532.566C234.483 527.198 234.844 521.762 234.935 516.255ZM256.406 516.844C260.341 517.433 264.347 517.82 268.28 518.477C270.18 518.771 272.146 519.134 274.112 519.497C274.833 525.286 272.763 531.246 273.481 537.171L273.652 539.213C272.804 541.107 272.566 543.212 272.531 545.32C272.517 546.204 272.638 547.089 272.898 547.84C272.388 549.875 271.809 551.976 271.096 554.008C270.813 554.685 271.007 555.299 270.79 556.045L269.866 558.482C264.023 558.142 258.18 557.803 252.341 557.191C253.774 548.639 254.868 540.015 253.04 531.29C252.791 529.859 250.686 529.698 250.367 528.402C249.55 524.313 254.168 516.478 256.406 516.844ZM260.04 523.278L254.465 523.214C254.193 523.21 253.916 523.479 253.709 523.681C253.503 523.815 253.769 524.158 254.309 524.436L254.78 524.713C255.927 525.271 256.388 526.16 256.369 527.316L256.364 527.656C256.461 530.037 256.084 532.277 255.977 534.656L255.291 543.284L254.955 547.157C254.861 548.72 254.631 550.281 254.539 551.776C254.466 552.047 254.597 552.389 254.801 552.391C255.071 552.462 255.413 552.398 255.752 552.402C255.82 552.403 255.825 552.131 255.962 552.065L256.653 551.393C257.205 550.923 257.477 550.926 258.084 551.205C258.757 551.689 259.566 552.106 260.24 552.454C261.794 553.084 263.356 553.238 265.063 552.782C266.702 552.393 268.21 551.662 269.121 550.041C269.26 549.838 269.535 549.706 269.606 549.502C271.128 547.956 271.296 545.986 271.531 544.084C271.761 542.523 271.517 540.82 271.339 539.254C271.1 537.211 269.902 535.633 268.498 534.189C268.097 533.776 267.422 533.428 266.678 533.216C264.915 532.855 263.417 532.974 261.973 533.977C261.698 534.11 261.287 534.309 260.877 534.441C260.809 534.44 260.538 534.369 260.473 534.164C260.339 534.026 260.481 533.688 260.486 533.416L260.747 529.951C260.899 528.932 260.917 527.845 261.002 526.826C261.016 526.01 261.096 525.263 261.108 524.515C261.123 523.631 260.856 523.288 260.04 523.278ZM261.057 535.871C262.368 534.73 264.541 534.959 265.468 536.466C265.869 536.878 266.199 537.494 266.257 538.107C266.704 539.88 266.879 541.65 266.714 543.417C266.41 545.317 266.31 547.288 265.396 549.114L264.761 550.466C263.787 551.815 262.491 552.072 261.279 551.31C260 550.547 259.612 549.319 259.499 547.889C259.457 546.325 259.687 544.763 259.779 543.268L259.987 538.918L260.29 537.018C260.434 536.544 260.644 536.206 261.057 535.871ZM288.394 524.899C289.885 525.256 291.443 525.614 292.998 526.176C295.027 526.88 296.637 528.19 297.764 529.971C299.226 532.028 300.003 534.418 300.304 536.801C300.784 540.683 300.249 544.281 299.643 548.014C299.052 550.864 297.719 553.364 296.049 555.657C295.007 557.005 293.632 557.873 292.125 558.536C290.343 559.399 288.364 559.784 286.324 559.761C284.693 559.742 283.064 559.519 281.507 559.093C278.796 558.517 276.436 557.266 274.773 555.003C274.575 554.66 274.307 554.385 273.908 553.837C273.248 556.753 273.41 559.339 272.755 561.916C272.487 561.708 272.354 561.503 272.288 561.366L272.307 560.21C272.977 552.602 273.716 544.858 275.268 537.327L275.727 534.272C276.117 531.217 276.847 528.165 278.052 525.187C278.521 525.668 277.964 526.41 278.366 526.823C279.325 526.358 280.421 525.894 281.379 525.565C283.637 524.708 286.021 524.463 288.394 524.899ZM285.742 533.164C285.259 533.567 284.976 534.244 284.898 534.855C284.673 536.144 284.516 537.434 284.426 538.725C284.11 541.442 283.862 544.091 283.613 546.809C283.596 547.828 283.579 548.916 283.766 549.938C283.758 550.414 283.953 550.961 284.217 551.44C284.612 552.26 285.56 552.475 286.317 551.94C286.662 551.672 286.869 551.47 286.941 551.199C287.222 550.659 287.368 550.048 287.513 549.506L288.3 543.055C288.542 540.745 288.647 538.502 288.753 536.191C288.831 535.58 288.706 534.899 288.648 534.286C288.518 533.945 288.387 533.603 288.256 533.33C287.522 532.437 286.642 532.223 285.742 533.164ZM300.563 522.659C300.767 522.662 300.902 522.731 301.106 522.734C301.092 523.618 301.01 524.433 300.859 525.383C300.857 525.451 300.72 525.517 300.513 525.719C300.249 525.24 300.392 524.834 300.398 524.426C300.476 523.815 300.553 523.271 300.563 522.659ZM310.437 526.038C313.305 525.323 316.024 525.423 318.796 526.407C321.365 527.321 322.828 529.378 323.124 532.033C323.363 534.008 323.4 535.913 323.502 537.954C323.537 544.143 323.366 550.397 323.943 556.66L323.934 557.204C323.993 557.749 323.648 558.017 323.17 558.147C322.558 558.14 321.945 558.201 321.265 558.193C319.429 558.172 319.565 558.173 318.23 556.662C317.957 556.727 317.615 556.859 317.271 557.059C315.276 558.464 312.82 558.911 310.374 558.815C307.179 558.71 303.874 557.04 303.056 553.018C302.55 550.7 302.52 548.388 303.034 546.081C303.76 543.302 305.559 541.418 308.094 540.292C310.356 539.23 312.742 538.849 315.194 538.674C316.01 538.683 316.895 538.625 317.918 538.433C318.494 536.468 318.183 534.696 317.873 532.924C317.555 531.561 316.547 530.801 315.121 530.716C314.305 530.707 313.354 530.628 312.468 530.754C310.422 531.07 309.174 532.552 308.868 534.588L308.86 535.064C308.81 538.124 308.542 537.849 305.684 537.952C305.276 537.947 304.936 537.943 304.597 537.871C304.054 537.865 303.718 537.589 303.726 537.113C303.553 535.207 303.719 533.373 304.292 531.611C305.429 528.7 307.297 526.75 310.437 526.038ZM317.365 543.119C314.985 543.092 312.732 543.61 310.542 544.468C309.447 544.864 308.75 545.876 308.324 546.959C307.688 548.447 307.798 550.013 308.251 551.446C308.706 552.675 309.646 553.434 311.001 553.722C312.627 554.149 314.127 553.894 315.705 553.028C317.146 552.297 317.916 550.946 318.077 549.452C318.378 547.687 318.34 545.851 318.369 544.083C318.447 543.472 317.909 543.125 317.365 543.119ZM298.242 543.85C298.621 545.622 298.621 545.622 297.989 546.839C297.598 545.814 298.024 544.731 298.242 543.85ZM298.121 547.113C298.512 548.137 298.563 549.158 297.935 550.103C297.613 549.011 297.493 548.057 298.121 547.113ZM297.935 550.103C298.264 550.786 298.39 551.4 297.837 551.938C297.711 551.324 297.585 550.711 297.935 550.103ZM297.834 552.141C298.037 552.212 298.172 552.281 297.894 552.618L297.759 552.549C297.761 552.413 297.765 552.209 297.834 552.141ZM297.854 555.066L297.722 554.792C298.062 554.796 297.855 554.998 297.854 555.066ZM297.849 555.338C298.372 556.636 298.486 557.997 297.782 559.417C297.602 557.987 297.352 556.624 297.849 555.338ZM297.779 559.621L298.042 560.168C298.038 560.372 297.9 560.507 297.761 560.709C297.696 560.504 297.63 560.368 297.633 560.232C297.636 560.028 297.707 559.824 297.779 559.621ZM315.443 560.71C315.579 560.711 315.646 560.78 315.644 560.916L315.574 560.983C315.438 560.982 315.372 560.913 315.372 560.913C315.374 560.777 315.442 560.778 315.443 560.71ZM329.225 517.347C330.853 517.638 332.483 517.793 334.111 518.016C339.336 518.756 339.535 519.031 344.621 519.906C350.25 520.855 348.873 521.927 348.138 525.251C346.745 531.355 343.944 561.04 343.13 565.043C343.053 565.586 342.841 566.059 342.629 566.601C342.408 567.619 341.652 568.086 340.7 568.075L337.981 567.975C333.361 567.718 328.741 567.46 324.188 567.204C325.642 553.28 325.498 553.754 326.679 539.827C326.699 538.603 327.542 536.981 327.972 535.626C328.039 535.694 328.038 535.762 328.035 535.966L327.741 553.848C327.711 555.616 327.681 557.451 327.787 559.289C327.84 560.173 328.378 560.588 329.329 560.667C330.006 560.811 330.618 560.818 331.298 560.825C335.445 560.942 335.446 560.874 335.65 556.728C335.781 552.921 335.709 549.044 335.702 545.304C335.611 542.582 336.098 541.908 338.562 540.985C338.973 540.785 339.45 540.723 339.86 540.592C342.864 539.878 342.994 540.288 343.129 536.209C343.142 535.393 343.087 534.645 343.032 533.828C342.975 533.147 342.236 532.595 341.552 532.859C340.663 533.12 339.91 533.452 339.153 533.987C338.466 534.387 338.114 535.131 337.492 535.736C337.286 535.869 336.804 536.204 336.669 536.134C336.334 535.858 336.067 535.515 336.005 535.175C335.431 532.856 335.431 532.856 333.052 532.76L332.1 532.749C331.488 532.742 331.014 532.669 330.4 532.73C329.313 532.717 328.695 533.05 328.345 533.658C328.773 528.29 329.135 522.854 329.225 517.347ZM358.755 511.773C359.022 512.048 358.75 512.045 358.612 512.179C358.614 512.043 358.753 511.909 358.755 511.773ZM358.612 512.179C358.599 512.995 358.317 513.604 358.101 514.281C357.822 514.754 357.541 515.295 357.806 515.706C358.478 516.19 359.16 516.062 359.772 516.069C362.83 516.24 365.822 516.275 368.677 516.308C370.921 516.334 373.167 516.224 375.275 516.248C375.887 516.255 376.636 516.196 377.176 516.474C377.697 517.84 376.997 519.056 377.107 520.622C377.241 520.759 377.376 520.829 377.646 520.968C377.78 521.106 377.982 521.176 378.186 521.178C378.182 521.45 378.248 521.587 378.245 521.723C377.783 525.05 377.659 528.449 377.126 531.911C376.893 533.676 376.457 535.371 376.293 537.069C375.763 540.327 375.643 543.454 375.655 546.854C375.602 550.118 375.546 553.518 375.491 556.849C375.473 557.937 375.658 559.095 375.706 560.32C375.88 562.158 375.579 563.922 375.347 565.62C375.333 566.436 374.849 566.906 374.165 567.17C373.824 567.234 373.552 567.231 373.008 567.225C371.992 566.941 371.182 566.592 370.309 565.902C369.704 565.487 369.097 565.207 368.348 565.267C367.532 565.257 366.716 565.248 365.828 565.442L365.148 565.434C362.231 564.992 359.301 565.366 356.312 565.127C353.661 565.097 350.941 565.065 348.358 564.967C345.232 564.795 345.507 564.662 345.556 561.671L345.738 550.588C345.765 548.956 345.588 547.322 345.412 545.62C345.427 544.736 345.443 543.716 345.865 542.905C346.575 541.077 347.287 539.113 348.069 537.082C349.767 533.09 351.265 528.823 352.285 524.687C352.933 522.518 353.51 520.552 354.086 518.587C354.3 517.978 354.443 517.571 355.119 517.783C355.595 517.788 355.736 517.518 355.876 517.248C356.578 515.964 357.211 514.679 358.047 513.465C358.191 512.99 358.402 512.517 358.612 512.179ZM363.244 519.985C362.972 519.982 362.833 520.184 362.765 520.184C362.828 520.456 362.826 520.592 362.962 520.594C364.17 521.56 364.557 522.857 364.531 524.42C364.414 527.411 364.368 530.199 364.046 533.255C364.031 534.139 364.018 534.955 363.663 535.835C363.387 536.104 363.656 536.311 363.652 536.515C363.7 537.739 363.887 538.762 363.8 539.917C363.614 542.975 363.773 545.697 363.45 548.821C363.447 548.957 363.512 549.162 363.509 549.366C363.423 550.453 363.469 551.746 363.113 552.761C362.96 553.78 362.943 554.8 363.405 555.689C363.601 556.167 363.523 556.778 363.579 557.459C363.574 557.799 363.5 558.138 363.491 558.682C363.488 558.886 363.617 559.296 363.958 559.232C364.983 558.971 365.925 559.594 366.877 559.605C369.052 559.631 371.159 559.723 373.265 559.883C373.605 559.887 373.743 559.753 374.423 559.761C373.017 558.385 372.771 556.818 372.799 555.118C372.853 551.854 372.978 548.387 373.236 545.126C373.315 544.447 373.396 543.632 373.41 542.816L373.543 534.725C373.55 534.317 373.695 533.775 373.703 533.231C373.79 532.076 373.808 530.988 374.098 529.903L374.174 525.28C374.277 523.173 374.562 522.36 375.812 520.811C375.068 520.598 374.32 520.589 373.368 520.578C372.277 520.702 371.186 520.893 370.17 520.677C368.814 520.39 367.454 520.374 366.233 520.224C365.215 520.076 364.195 520.064 363.244 519.985ZM370.676 527.076C370.878 527.214 371.078 527.488 370.938 527.691C370.866 527.962 370.658 528.164 370.388 528.092C370.252 528.091 370.054 527.68 370.058 527.477C370.266 527.207 370.404 527.073 370.676 527.076ZM358.767 531.698C358.428 531.626 358.019 531.689 357.747 531.686C356.931 531.677 356.453 531.807 355.772 531.867C353.663 531.911 352.079 533.117 350.829 534.666C350.132 535.678 349.573 536.624 349.012 537.637C348.8 538.111 348.657 538.517 348.514 538.992L347.791 541.567C347.648 541.974 347.575 542.313 347.639 542.518C347.963 543.542 347.744 544.423 347.592 545.373C347.518 545.781 347.509 546.324 347.501 546.8C347.526 549.385 347.96 551.974 348.873 554.365C350.25 557.441 352.465 559.235 355.447 559.881C357.007 560.103 358.574 559.917 360.022 558.71C360.09 558.711 360.093 558.575 360.166 558.236C360.03 558.234 359.693 558.094 359.625 558.093C358.334 558.01 357.801 557.324 357.413 556.096C357.152 555.413 357.166 554.597 357.18 553.713C357.22 551.333 357.465 548.82 357.302 546.302C357.346 543.65 357.59 541.205 357.768 538.691C357.92 537.673 358.145 536.451 358.365 535.434C358.585 534.484 359.207 533.879 359.89 533.683C360.438 533.485 360.778 533.489 361.734 533.228C361.064 532.609 360.658 532.468 360.457 532.33C359.918 531.983 359.309 531.84 358.767 531.698Z" fill="white"/>
</svg>
