<svg width="440" height="678" viewBox="0 0 440 678" fill="none" xmlns="http://www.w3.org/2000/svg">
<rect x="1.2056" y="0.778665" width="489.527" height="595.106" transform="matrix(0.980662 -0.195708 0.224936 0.974373 -30.1518 96.4516)" fill="#2238FF" stroke="white" stroke-width="2"/>
<path d="M99.5 552.286L87 516.954H91.5L108.5 512.305L116.5 548.567L99.5 552.286Z" fill="white"/>
<path d="M110.405 603.62L102.676 567.127L107.142 567.642L124.628 564.973L127.768 601.874L110.405 603.62Z" fill="white"/>
<path d="M129.5 654.561L117 619.229H121.5L138.5 614.581L146.5 650.842L129.5 654.561Z" fill="white"/>
<path d="M152.258 555.948C155.798 555.889 159.275 555.903 162.743 555.781C164.303 555.665 165.93 555.544 167.567 555.558C167.906 555.533 168.313 555.503 168.657 555.545C169.136 555.578 169.436 555.965 169.261 556.387C169.207 556.595 169.018 556.814 168.819 556.897C168.553 556.985 168.281 557.005 168.01 557.025C166.102 557.031 165.296 558.182 164.953 560.117C164.865 560.805 164.786 561.629 164.842 562.443L165.057 569.451L165.321 581.091C165.347 585.385 165.378 589.747 165.535 593.963L165.603 598.867C165.678 599.952 165.885 600.96 166.421 601.806C166.812 602.527 167.378 602.826 168.138 602.974C169.232 603.029 170.327 603.084 171.398 602.8C172.469 602.515 173.322 602.043 174.084 601.236C174.972 600.283 175.584 599.283 176.046 598.09C176.931 596.115 177.603 594.019 178.067 591.871C178.674 588.825 179.221 585.92 179.344 582.775C179.325 582.503 179.374 582.227 179.568 582.076C179.626 581.936 179.825 581.853 180.028 581.837C180.164 581.827 180.381 582.016 180.391 582.151C180.487 582.553 180.51 582.892 180.534 583.232C180.218 586.528 180.309 589.794 180.332 593.066C180.268 596.071 180.272 599.071 180.209 602.076C180.237 602.483 180.275 603.025 180.245 603.573C180.278 604.048 180.088 604.267 179.681 604.297C179.139 604.337 178.587 604.242 178.112 604.277C174.712 604.394 171.312 604.511 167.98 604.622C165.529 604.668 163.205 604.569 160.759 604.683C158.371 604.656 155.998 604.833 153.687 604.936C153.14 604.909 152.53 604.954 151.842 604.869C151.566 604.821 151.484 604.623 151.466 604.352C151.447 604.08 151.428 603.809 151.757 603.648C152.019 603.492 152.29 603.472 152.562 603.452C154.18 603.195 154.923 602.117 155.298 600.657C155.396 600.104 155.359 599.562 155.326 599.087L155.191 593.233L155.109 588.125C155.103 586.079 155.092 583.966 155.081 581.853C154.956 579.067 154.971 576.339 154.845 573.552C154.767 571.444 154.751 569.263 154.736 567.082C154.613 565.319 154.631 563.613 154.571 561.776C154.534 561.233 154.496 560.691 154.39 560.153C154.078 558.608 153.199 557.719 151.746 557.418C151.475 557.438 151.199 557.39 150.923 557.343C150.507 557.237 150.397 556.632 150.581 556.345C150.644 556.273 150.703 556.132 150.838 556.122C151.376 556.014 151.783 555.983 152.258 555.948ZM149.051 566.687L149.032 566.416C149.177 566.542 149.046 566.62 149.051 566.687ZM149.107 567.501L149.051 566.687C149.205 566.949 149.224 567.22 149.107 567.501ZM148.926 568.811L149.107 567.501C149.122 567.705 149.262 567.763 149.271 567.898C149.411 570.888 149.415 573.888 149.071 576.778L149.013 576.918C148.727 576.735 148.771 576.391 148.752 576.12C148.734 575.848 148.705 575.441 148.822 575.16L148.926 568.811ZM148.897 579.177C148.902 579.245 148.969 579.24 148.906 579.313C148.906 579.313 148.848 579.454 148.853 579.521C148.848 579.454 148.703 579.328 148.834 579.25C148.834 579.25 148.902 579.245 148.897 579.177ZM148.942 580.81C149.289 581.876 149.248 583.242 148.984 584.353C148.661 583.627 148.822 583.001 148.77 582.255C148.805 581.775 148.844 581.363 148.811 580.888C148.811 580.888 148.947 580.878 148.942 580.81ZM149.052 584.348C149.057 584.416 149.192 584.406 149.197 584.473C149.339 586.509 149.539 588.403 149.743 590.365C149.819 591.451 149.826 592.541 149.834 593.631C149.843 593.767 149.722 593.981 149.678 594.325C149.35 593.531 149.38 592.983 149.337 592.373C149.186 590.202 149.171 588.021 148.894 585.996C148.779 585.323 148.945 584.765 149.052 584.348ZM200.888 560.033C200.285 561.169 199.659 561.965 198.235 562.071C193.216 562.445 188.276 562.949 183.325 563.318L171.594 564.191C171.051 564.231 170.499 564.136 169.889 564.182C172.903 563.412 175.896 563.325 178.744 563.113L196.104 561.821C196.85 561.765 197.519 561.579 198 560.657C198.617 559.725 199.716 559.847 200.888 560.033ZM187.274 573.047L187.138 573.057C191.288 570.976 195.35 571.56 199.153 573.322C200.978 574.073 202.181 575.688 202.86 577.615C203.481 579.682 203.961 581.692 203.836 583.815C203.816 584.499 203.311 585.082 202.638 585.2C200.961 585.598 199.392 585.578 197.75 585.496C195.29 585.406 192.709 585.53 190.122 585.586C189.241 585.652 188.416 586.532 188.482 587.481C188.608 590.268 189 592.966 190.598 595.37C192.979 599.216 198.467 598.739 200.472 596.203L202.865 593.366C202.991 593.22 203.398 593.19 203.543 593.315C203.76 593.504 204.123 593.818 204.002 594.031C203.845 594.725 203.563 595.564 203.198 596.205C200.919 600.67 195.495 603.051 190.151 601.676C188.761 601.303 187.421 600.652 185.892 600.221L186.027 600.211L185.873 599.949C182.44 596.659 180.932 592.612 180.805 587.848C180.77 583.419 181.567 579.2 184.31 575.518C185.378 574.211 185.238 574.154 186.096 573.749C186.561 573.578 186.818 573.354 187.274 573.047ZM190.79 575.581C190.11 576.586 189.498 577.587 189.23 578.629C188.83 579.75 188.857 581.112 188.661 582.218C188.951 582.469 189.033 582.667 189.314 582.783C191.197 583.393 193.086 583.115 194.957 582.567C195.286 582.406 195.733 581.964 195.777 581.62C195.974 579.559 195.639 577.675 194.635 575.977C193.722 574.613 191.799 574.415 190.79 575.581ZM203.119 566.345C203.323 566.329 203.463 566.387 203.667 566.372C203.728 567.254 203.717 568.073 203.647 569.033C203.652 569.101 203.521 569.179 203.332 569.397C203.027 568.943 203.135 568.525 203.106 568.118C203.132 567.503 203.162 566.955 203.119 566.345ZM213.247 568.864C216.043 567.905 218.76 567.771 221.606 568.514C224.244 569.204 225.878 571.128 226.401 573.749C226.809 575.696 227.009 577.59 227.286 579.615C227.851 585.778 228.217 592.024 229.329 598.214L229.367 598.757C229.473 599.295 229.152 599.591 228.687 599.762C228.077 599.808 227.471 599.921 226.793 599.971C224.962 600.108 225.098 600.098 223.638 598.706C223.371 598.794 223.042 598.955 222.717 599.184C220.849 600.755 218.441 601.411 215.995 601.525C212.803 601.695 209.367 600.314 208.207 596.377C207.504 594.111 207.276 591.81 207.59 589.468C208.075 586.636 209.706 584.606 212.135 583.266C214.297 582.014 216.642 581.43 219.07 581.045C219.883 580.984 220.76 580.851 221.763 580.572C222.169 578.564 221.707 576.825 221.245 575.087C220.812 573.755 219.743 573.085 218.314 573.123C217.5 573.184 216.546 573.187 215.674 573.388C213.663 573.878 212.547 575.462 212.417 577.517L212.45 577.992C212.662 581.045 212.372 580.793 209.533 581.141C209.126 581.171 208.787 581.197 208.444 581.154C207.901 581.194 207.543 580.948 207.51 580.473C207.175 578.589 207.183 576.747 207.603 574.943C208.485 571.946 210.179 569.842 213.247 568.864ZM221.614 585.288C219.241 585.464 217.04 586.174 214.932 587.217C213.875 587.705 213.268 588.773 212.936 589.888C212.43 591.426 212.674 592.976 213.248 594.366C213.807 595.551 214.809 596.227 216.184 596.397C217.839 596.683 219.312 596.301 220.811 595.303C222.183 594.451 222.835 593.038 222.866 591.536C223.015 589.752 222.82 587.925 222.697 586.162C222.723 585.546 222.156 585.247 221.614 585.288ZM202.625 587.656C203.154 589.389 203.154 589.389 202.629 590.656C202.151 589.669 202.483 588.553 202.625 587.656ZM202.783 590.917C203.261 591.904 203.4 592.917 202.855 593.912C202.441 592.852 202.239 591.912 202.783 590.917ZM202.855 593.912C203.242 594.565 203.42 595.165 202.915 595.749C202.737 595.148 202.559 594.548 202.855 593.912ZM202.929 595.952C203.137 596.005 203.277 596.062 203.03 596.422L202.889 596.364C202.88 596.228 202.866 596.025 202.929 595.952ZM203.2 598.864L203.045 598.603C203.384 598.577 203.195 598.796 203.2 598.864ZM203.219 599.135C203.851 600.384 204.081 601.73 203.502 603.205C203.199 601.796 202.833 600.46 203.219 599.135ZM203.516 603.409L203.825 603.931C203.839 604.135 203.713 604.281 203.591 604.494C203.509 604.296 203.432 604.165 203.423 604.03C203.408 603.826 203.462 603.618 203.516 603.409ZM221.208 602.978C221.344 602.968 221.416 603.031 221.426 603.167L221.363 603.24C221.227 603.25 221.155 603.187 221.155 603.187C221.145 603.051 221.213 603.046 221.208 602.978ZM239.965 552.01C240.255 552.261 239.983 552.281 239.857 552.427C239.848 552.291 239.974 552.146 239.965 552.01ZM239.857 552.427C239.914 553.241 239.685 553.872 239.529 554.565C239.291 555.06 239.057 555.623 239.357 556.01C240.068 556.434 240.736 556.248 241.347 556.203C244.408 556.111 247.391 555.889 250.24 555.677C252.477 555.511 254.706 555.208 256.808 555.052C257.418 555.006 258.159 554.883 258.721 555.114C259.358 556.43 258.764 557.702 259.009 559.252C259.154 559.378 259.294 559.435 259.575 559.551C259.72 559.676 259.928 559.729 260.131 559.714C260.15 559.985 260.227 560.116 260.237 560.252C260.061 563.606 260.229 567.003 259.995 570.498C259.914 572.276 259.625 574.003 259.608 575.709C259.359 579 259.509 582.126 259.812 585.512C260.039 588.769 260.275 592.16 260.506 595.484C260.581 596.57 260.865 597.708 261.018 598.924C261.348 600.74 261.2 602.524 261.114 604.235C261.171 605.049 260.729 605.559 260.07 605.881C259.736 605.974 259.464 605.995 258.922 606.035C257.886 605.839 257.048 605.561 256.12 604.948C255.481 604.586 254.852 604.36 254.111 604.484C253.297 604.544 252.483 604.605 251.616 604.874L250.938 604.925C247.993 604.735 245.106 605.359 242.108 605.377C239.463 605.574 236.751 605.776 234.169 605.9C231.04 605.997 231.302 605.841 231.095 602.856L230.326 591.799C230.212 590.171 229.896 588.558 229.574 586.877C229.513 585.995 229.442 584.978 229.793 584.133C230.343 582.251 230.885 580.233 231.489 578.143C232.838 574.019 233.965 569.64 234.627 565.431C235.086 563.215 235.492 561.207 235.898 559.2C236.059 558.574 236.166 558.157 236.858 558.31C237.333 558.274 237.45 557.993 237.566 557.712C238.155 556.372 238.675 555.038 239.404 553.756C239.507 553.271 239.677 552.781 239.857 552.427ZM245.142 559.807C244.871 559.827 244.749 560.041 244.681 560.046C244.768 560.312 244.777 560.448 244.913 560.438C246.2 561.296 246.696 562.555 246.805 564.115C246.944 567.105 247.138 569.886 247.079 572.959C247.14 573.841 247.197 574.655 246.919 575.562C246.667 575.854 246.952 576.037 246.966 576.241C247.119 577.457 247.393 578.459 247.406 579.617C247.482 582.68 247.874 585.378 247.82 588.519C247.83 588.655 247.912 588.853 247.926 589.057C247.933 590.147 248.091 591.431 247.822 592.474C247.758 593.501 247.828 594.519 248.364 595.365C248.601 595.825 248.575 596.441 248.69 597.114C248.714 597.453 248.67 597.797 248.708 598.34C248.722 598.544 248.886 598.941 249.22 598.847C250.218 598.5 251.21 599.04 252.159 598.97C254.329 598.808 256.436 598.719 258.548 598.699C258.887 598.673 259.013 598.528 259.691 598.477C258.173 597.226 257.793 595.686 257.675 593.99C257.449 590.734 257.276 587.27 257.253 583.998C257.274 583.315 257.285 582.496 257.228 581.682L256.667 573.609C256.639 573.202 256.737 572.649 256.699 572.107C256.686 570.948 256.611 569.863 256.807 568.758L256.486 564.145C256.408 562.037 256.622 561.202 257.734 559.551C256.974 559.403 256.228 559.459 255.279 559.53C254.203 559.746 253.132 560.03 252.101 559.903C250.726 559.732 249.37 559.833 248.14 559.788C247.113 559.728 246.096 559.804 245.142 559.807ZM253.155 566.234C253.368 566.354 253.59 566.61 253.469 566.824C253.42 567.1 253.23 567.319 252.954 567.271C252.819 567.282 252.587 566.89 252.573 566.686C252.757 566.4 252.884 566.254 253.155 566.234ZM241.686 571.861C241.342 571.818 240.94 571.916 240.669 571.936C239.855 571.997 239.39 572.168 238.716 572.286C236.619 572.511 235.144 573.848 234.032 575.499C233.424 576.567 232.948 577.557 232.476 578.615C232.306 579.105 232.199 579.522 232.096 580.007L231.597 582.635C231.49 583.052 231.445 583.397 231.527 583.595C231.937 584.587 231.795 585.484 231.726 586.444C231.686 586.856 231.724 587.399 231.757 587.874C232.004 590.446 232.658 592.989 233.772 595.292C235.409 598.239 237.769 599.836 240.795 600.225C242.369 600.312 243.915 599.992 245.254 598.665C245.322 598.66 245.312 598.525 245.356 598.18C245.221 598.191 244.872 598.08 244.805 598.085C243.511 598.113 242.922 597.475 242.43 596.284C242.111 595.626 242.055 594.812 241.994 593.93C241.828 591.556 241.857 589.031 241.479 586.536C241.295 583.891 241.329 581.433 241.29 578.913C241.355 577.886 241.473 576.65 241.606 575.617C241.744 574.652 242.311 573.996 242.975 573.742C243.504 573.498 243.843 573.473 244.773 573.131C244.053 572.571 243.636 572.465 243.424 572.345C242.857 572.046 242.238 571.956 241.686 571.861ZM283.137 553.91C282.534 555.046 281.908 555.843 280.484 555.949C275.465 556.322 270.525 556.826 265.574 557.195L253.843 558.068C253.3 558.109 252.748 558.013 252.138 558.059C255.152 557.289 258.145 557.202 260.993 556.99L278.353 555.698C279.099 555.643 279.768 555.456 280.249 554.534C280.866 553.602 281.965 553.725 283.137 553.91ZM269.523 566.924L269.387 566.935C273.537 564.853 277.599 565.437 281.402 567.199C283.227 567.95 284.43 569.565 285.109 571.492C285.73 573.56 286.21 575.569 286.085 577.692C286.065 578.376 285.56 578.959 284.887 579.077C283.21 579.475 281.641 579.455 279.999 579.373C277.539 579.283 274.958 579.407 272.371 579.463C271.49 579.529 270.665 580.409 270.731 581.358C270.857 584.145 271.249 586.843 272.847 589.247C275.228 593.093 280.716 592.616 282.721 590.08L285.114 587.243C285.24 587.097 285.647 587.067 285.792 587.192C286.009 587.381 286.372 587.695 286.251 587.908C286.094 588.602 285.812 589.441 285.447 590.082C283.168 594.547 277.744 596.929 272.4 595.554C271.01 595.18 269.67 594.529 268.141 594.098L268.276 594.088L268.122 593.826C264.689 590.536 263.181 586.489 263.054 581.725C263.019 577.296 263.816 573.077 266.559 569.395C267.627 568.088 267.487 568.031 268.345 567.626C268.81 567.455 269.067 567.231 269.523 566.924ZM273.039 569.458C272.359 570.464 271.747 571.464 271.479 572.507C271.079 573.627 271.106 574.989 270.91 576.095C271.2 576.346 271.282 576.544 271.563 576.66C273.446 577.27 275.335 576.993 277.206 576.444C277.535 576.283 277.982 575.841 278.026 575.497C278.223 573.436 277.888 571.552 276.884 569.854C275.971 568.49 274.048 568.292 273.039 569.458ZM288.503 554.329C290.15 554.479 291.786 554.493 293.428 554.576C298.697 554.866 298.919 555.122 304.062 555.557C309.751 556.02 308.471 557.206 308.024 560.581C307.16 566.782 306.916 596.598 306.448 600.656C306.418 601.204 306.248 601.694 306.082 602.251C305.949 603.284 305.236 603.815 304.287 603.885L301.57 604.019C296.944 604.159 292.319 604.299 287.761 604.434C288.015 590.436 287.912 590.921 287.895 576.944C287.81 575.723 288.51 574.034 288.823 572.647C288.895 572.71 288.9 572.778 288.914 572.982L290.155 590.822C290.277 592.586 290.405 594.418 290.668 596.239C290.797 597.116 291.368 597.483 292.322 597.48C293.009 597.565 293.62 597.52 294.298 597.469C298.439 597.229 298.434 597.161 298.282 593.013C298.086 589.209 297.681 585.353 297.354 581.627C297.03 578.923 297.457 578.21 299.833 577.078C300.225 576.844 300.695 576.741 301.093 576.575C304.025 575.607 304.188 576.004 303.973 571.929C303.917 571.115 303.797 570.373 303.672 569.565C303.557 568.891 302.774 568.404 302.115 568.726C301.252 569.063 300.53 569.458 299.821 570.056C299.171 570.513 298.884 571.285 298.316 571.941C298.122 572.091 297.671 572.466 297.531 572.408C297.173 572.162 296.878 571.843 296.787 571.509C296.016 569.248 296.016 569.248 293.638 569.357L292.689 569.428C292.078 569.473 291.599 569.44 290.993 569.554C289.908 569.635 289.322 570.019 289.025 570.655C288.991 565.271 288.885 559.824 288.503 554.329ZM309.945 553.074C313.916 553.323 317.941 553.365 321.916 553.682C323.834 553.812 325.824 554.005 327.814 554.198C329.029 559.904 327.478 566.02 328.702 571.861L329.047 573.881C328.365 575.841 328.308 577.959 328.454 580.062C328.515 580.943 328.712 581.815 329.035 582.541C328.702 584.612 328.306 586.755 327.769 588.841C327.545 589.539 327.791 590.134 327.64 590.896L326.928 593.404C321.077 593.566 315.226 593.729 309.357 593.621C310.051 584.977 310.401 576.291 307.831 567.755C307.46 566.35 305.349 566.371 304.92 565.108C303.756 561.103 307.684 552.901 309.945 553.074ZM314.118 559.172L308.558 559.586C308.287 559.607 308.034 559.898 307.845 560.117C307.651 560.268 307.946 560.587 308.507 560.818L309.001 561.054C310.191 561.51 310.727 562.357 310.807 563.51L310.831 563.849C311.132 566.214 310.948 568.477 311.046 570.857L311.102 579.512L311.1 583.399C311.141 584.964 311.046 586.54 311.082 588.037C311.033 588.314 311.192 588.643 311.395 588.628C311.671 588.675 312.006 588.582 312.345 588.557C312.413 588.552 312.394 588.28 312.525 588.203L313.156 587.474C313.665 586.958 313.936 586.938 314.565 587.164C315.277 587.589 316.119 587.935 316.82 588.224C318.422 588.718 319.992 588.738 321.654 588.137C323.253 587.608 324.693 586.751 325.461 585.058C325.583 584.844 325.845 584.688 325.898 584.479C327.282 582.808 327.281 580.831 327.352 578.916C327.447 577.341 327.058 575.665 326.746 574.12C326.333 572.105 325.004 570.636 323.481 569.317C323.046 568.941 322.344 568.652 321.584 568.504C319.797 568.296 318.315 568.543 316.961 569.666C316.699 569.822 316.307 570.056 315.909 570.222C315.842 570.227 315.566 570.179 315.484 569.981C315.339 569.855 315.451 569.506 315.432 569.235L315.395 565.76C315.459 564.732 315.384 563.647 315.381 562.624C315.324 561.81 315.34 561.059 315.288 560.313C315.227 559.431 314.932 559.112 314.118 559.172ZM316.212 571.631C317.42 570.382 319.604 570.424 320.657 571.846C321.093 572.223 321.474 572.808 321.584 573.413C322.182 575.142 322.508 576.89 322.495 578.664C322.356 580.584 322.425 582.556 321.67 584.453L321.154 585.855C320.299 587.283 319.03 587.65 317.757 586.995C316.417 586.344 315.925 585.154 315.691 583.739C315.514 582.184 315.609 580.609 315.573 579.111L315.407 574.76L315.546 572.84C315.649 572.355 315.829 572.001 316.212 571.631ZM342.507 558.355C344.023 558.583 345.606 558.806 347.203 559.232C349.285 559.759 351.002 560.927 352.277 562.605C353.911 564.529 354.89 566.843 355.394 569.192C356.205 573.018 355.98 576.649 355.697 580.42C355.353 583.31 354.239 585.915 352.772 588.343C351.849 589.775 350.554 590.758 349.11 591.548C347.408 592.561 345.47 593.114 343.435 593.266C341.808 593.387 340.166 593.305 338.578 593.014C335.828 592.673 333.369 591.628 331.518 589.516C331.291 589.192 331.001 588.941 330.557 588.428C330.149 591.391 330.532 593.954 330.101 596.577C329.816 596.393 329.666 596.2 329.588 596.069L329.508 594.916C329.522 587.278 329.595 579.499 330.495 571.864L330.69 568.781C330.817 565.703 331.283 562.6 332.228 559.529C332.736 559.969 332.245 560.755 332.68 561.132C333.597 560.586 334.648 560.031 335.574 559.621C337.751 558.572 340.105 558.124 342.507 558.355ZM340.574 566.817C340.127 567.26 339.903 567.958 339.878 568.574C339.764 569.878 339.718 571.177 339.74 572.471C339.657 575.205 339.638 577.865 339.623 580.594C339.694 581.611 339.769 582.697 340.043 583.699C340.076 584.174 340.318 584.702 340.622 585.156C341.085 585.94 342.049 586.073 342.757 585.475C343.077 585.178 343.267 584.959 343.315 584.683C343.549 584.12 343.642 583.5 343.74 582.947L343.97 576.452C344.013 574.13 343.925 571.887 343.833 569.575C343.858 568.96 343.675 568.291 343.565 567.686C343.406 567.357 343.247 567.028 343.092 566.766C342.285 565.94 341.389 565.802 340.574 566.817ZM354.439 555.08C354.642 555.065 354.783 555.122 354.986 555.107C355.048 555.989 355.036 556.808 354.967 557.768C354.972 557.836 354.841 557.914 354.651 558.133C354.347 557.678 354.454 557.261 354.426 556.854C354.451 556.238 354.482 555.69 354.439 555.08ZM364.566 557.599C367.362 556.641 370.08 556.507 372.926 557.249C375.564 557.939 377.197 559.863 377.72 562.484C378.129 564.431 378.328 566.325 378.606 568.35C379.17 574.513 379.537 580.759 380.649 586.95L380.687 587.492C380.792 588.03 380.472 588.327 380.007 588.498C379.396 588.543 378.791 588.656 378.113 588.707C376.282 588.843 376.417 588.833 374.957 587.442C374.691 587.53 374.361 587.691 374.036 587.919C372.169 589.49 369.76 590.147 367.315 590.261C364.123 590.43 360.687 589.049 359.527 585.113C358.824 582.847 358.596 580.545 358.91 578.204C359.395 575.372 361.026 573.341 363.455 572.001C365.617 570.749 367.962 570.165 370.389 569.78C371.203 569.72 372.08 569.586 373.083 569.307C373.488 567.299 373.027 565.561 372.565 563.822C372.132 562.491 371.063 561.82 369.634 561.858C368.82 561.919 367.866 561.922 366.994 562.123C364.983 562.614 363.866 564.197 363.736 566.252L363.769 566.727C363.982 569.78 363.692 569.529 360.853 569.876C360.446 569.907 360.107 569.932 359.763 569.889C359.221 569.93 358.863 569.684 358.83 569.209C358.494 567.324 358.502 565.483 358.922 563.679C359.804 560.681 361.499 558.577 364.566 557.599ZM372.934 574.023C370.56 574.2 368.36 574.909 366.251 575.952C365.195 576.44 364.587 577.508 364.256 578.624C363.749 580.162 363.993 581.712 364.567 583.101C365.127 584.287 366.128 584.962 367.503 585.133C369.159 585.418 370.632 585.036 372.13 584.038C373.503 583.186 374.154 581.774 374.186 580.271C374.335 578.487 374.139 576.661 374.017 574.897C374.042 574.281 373.476 573.983 372.934 574.023ZM353.944 576.391C354.474 578.125 354.474 578.125 353.948 579.391C353.471 578.404 353.802 577.288 353.944 576.391ZM354.103 579.652C354.581 580.64 354.719 581.652 354.175 582.647C353.76 581.587 353.559 580.647 354.103 579.652ZM354.175 582.647C354.561 583.3 354.739 583.901 354.234 584.484C354.056 583.883 353.878 583.283 354.175 582.647ZM354.249 584.687C354.457 584.74 354.597 584.798 354.349 585.157L354.209 585.099C354.2 584.964 354.185 584.76 354.249 584.687ZM354.519 587.599L354.365 587.338C354.704 587.313 354.514 587.531 354.519 587.599ZM354.538 587.871C355.17 589.119 355.4 590.466 354.821 591.941C354.519 590.531 354.153 589.195 354.538 587.871ZM354.835 592.144L355.144 592.667C355.158 592.87 355.032 593.016 354.911 593.23C354.829 593.031 354.752 592.901 354.742 592.765C354.728 592.561 354.782 592.353 354.835 592.144ZM372.528 591.714C372.663 591.704 372.736 591.766 372.745 591.902L372.682 591.975C372.547 591.985 372.474 591.922 372.474 591.922C372.465 591.787 372.533 591.781 372.528 591.714ZM382.54 547.328C384.186 547.479 385.823 547.493 387.465 547.575C392.733 547.865 392.956 548.121 398.098 548.557C403.788 549.02 402.507 550.206 402.06 553.58C401.196 559.782 400.952 589.598 400.485 593.656C400.455 594.203 400.284 594.693 400.119 595.251C399.986 596.284 399.273 596.814 398.324 596.885L395.606 597.019C390.981 597.159 386.356 597.298 381.798 597.433C382.052 583.436 381.949 583.921 381.931 569.944C381.846 568.723 382.547 567.034 382.859 565.647C382.932 565.71 382.937 565.778 382.951 565.981L384.191 583.822C384.314 585.586 384.441 587.417 384.704 589.239C384.834 590.116 385.404 590.482 386.359 590.479C387.046 590.565 387.656 590.519 388.335 590.469C392.476 590.229 392.471 590.161 392.319 586.013C392.123 582.209 391.718 578.352 391.391 574.626C391.066 571.923 391.494 571.209 393.869 570.078C394.262 569.844 394.732 569.741 395.129 569.575C398.061 568.607 398.225 569.004 398.01 564.928C397.953 564.114 397.834 563.373 397.709 562.564C397.594 561.891 396.81 561.404 396.151 561.725C395.289 562.062 394.566 562.457 393.858 563.055C393.208 563.513 392.921 564.284 392.353 564.94C392.159 565.091 391.708 565.466 391.568 565.408C391.21 565.162 390.915 564.843 390.824 564.509C390.053 562.248 390.053 562.248 387.675 562.357L386.725 562.427C386.115 562.473 385.636 562.44 385.03 562.553C383.945 562.634 383.358 563.019 383.062 563.655C383.028 558.27 382.922 552.823 382.54 547.328ZM411.482 539.242C411.772 539.493 411.501 539.513 411.375 539.659C411.365 539.523 411.492 539.377 411.482 539.242ZM411.375 539.659C411.431 540.473 411.203 541.103 411.046 541.797C410.808 542.292 410.575 542.855 410.874 543.242C411.585 543.666 412.254 543.48 412.864 543.434C415.925 543.343 418.909 543.121 421.757 542.909C423.995 542.742 426.223 542.44 428.326 542.284C428.936 542.238 429.677 542.115 430.238 542.346C430.875 543.662 430.282 544.934 430.526 546.484C430.671 546.609 430.812 546.667 431.092 546.782C431.237 546.908 431.445 546.961 431.649 546.946C431.668 547.217 431.745 547.348 431.754 547.483C431.579 550.838 431.747 554.234 431.513 557.729C431.432 559.508 431.143 561.234 431.125 562.94C430.877 566.232 431.026 569.357 431.33 572.744C431.556 576 431.792 579.392 432.023 582.716C432.099 583.801 432.382 584.94 432.535 586.156C432.866 587.972 432.717 589.756 432.632 591.467C432.688 592.281 432.247 592.791 431.588 593.113C431.253 593.206 430.982 593.226 430.439 593.267C429.403 593.071 428.566 592.792 427.637 592.18C426.999 591.818 426.37 591.592 425.628 591.716C424.815 591.776 424.001 591.837 423.133 592.106L422.455 592.156C419.511 591.966 416.623 592.59 413.626 592.609C410.981 592.806 408.268 593.008 405.687 593.132C402.558 593.228 402.82 593.073 402.612 590.088L401.843 579.03C401.73 577.402 401.413 575.789 401.092 574.109C401.031 573.227 400.96 572.209 401.31 571.365C401.861 569.483 402.402 567.465 403.007 565.375C404.356 561.251 405.483 556.871 406.144 552.663C406.604 550.447 407.009 548.439 407.415 546.431C407.576 545.806 407.683 545.388 408.376 545.542C408.85 545.506 408.967 545.225 409.084 544.943C409.672 543.604 410.193 542.27 410.922 540.988C411.025 540.503 411.195 540.013 411.375 539.659ZM416.659 547.039C416.388 547.059 416.267 547.272 416.199 547.277C416.286 547.544 416.295 547.679 416.431 547.669C417.717 548.528 418.214 549.787 418.322 551.347C418.462 554.337 418.655 557.118 418.596 560.191C418.658 561.073 418.714 561.887 418.437 562.794C418.184 563.086 418.47 563.269 418.484 563.472C418.637 564.688 418.911 565.691 418.923 566.849C419 569.912 419.392 572.61 419.338 575.751C419.347 575.886 419.429 576.085 419.443 576.288C419.451 577.379 419.608 578.663 419.34 579.705C419.275 580.733 419.346 581.751 419.882 582.597C420.118 583.057 420.093 583.672 420.208 584.346C420.232 584.685 420.187 585.029 420.225 585.572C420.239 585.775 420.403 586.172 420.738 586.079C421.736 585.732 422.728 586.272 423.677 586.201C425.847 586.04 427.954 585.951 430.066 585.93C430.405 585.905 430.531 585.759 431.209 585.709C429.691 584.458 429.311 582.918 429.193 581.222C428.966 577.966 428.794 574.501 428.771 571.23C428.791 570.547 428.803 569.728 428.746 568.913L428.185 560.841C428.156 560.434 428.254 559.881 428.216 559.338C428.204 558.18 428.129 557.095 428.324 555.989L428.004 551.376C427.925 549.268 428.14 548.434 429.252 546.783C428.492 546.635 427.746 546.691 426.796 546.761C425.721 546.978 424.65 547.262 423.619 547.134C422.244 546.964 420.887 547.065 419.657 547.02C418.631 546.96 417.614 547.036 416.659 547.039ZM424.672 553.465C424.885 553.586 425.108 553.842 424.986 554.056C424.937 554.332 424.748 554.551 424.472 554.503C424.336 554.513 424.105 554.121 424.09 553.918C424.275 553.631 424.401 553.486 424.672 553.465ZM413.203 559.092C412.86 559.05 412.457 559.148 412.186 559.168C411.372 559.229 410.907 559.4 410.234 559.518C408.136 559.742 406.662 561.079 405.549 562.731C404.942 563.799 404.466 564.789 403.994 565.847C403.823 566.337 403.716 566.754 403.613 567.239L403.115 569.867C403.007 570.284 402.963 570.628 403.045 570.827C403.455 571.819 403.313 572.716 403.243 573.676C403.204 574.088 403.241 574.631 403.274 575.105C403.521 577.678 404.175 580.221 405.29 582.524C406.926 585.471 409.287 587.068 412.313 587.456C413.887 587.544 415.432 587.224 416.771 585.897C416.839 585.892 416.83 585.756 416.874 585.412C416.738 585.422 416.39 585.312 416.322 585.317C415.029 585.345 414.439 584.707 413.947 583.516C413.629 582.858 413.572 582.044 413.511 581.162C413.346 578.788 413.375 576.263 412.997 573.768C412.813 571.122 412.847 568.665 412.808 566.145C412.873 565.117 412.991 563.881 413.124 562.849C413.261 561.884 413.829 561.228 414.493 560.974C415.021 560.73 415.36 560.705 416.291 560.363C415.57 559.803 415.154 559.697 414.941 559.577C414.375 559.278 413.755 559.188 413.203 559.092Z" fill="white"/>
</svg>
