<svg width="154" height="68" viewBox="0 0 154 68" fill="none" xmlns="http://www.w3.org/2000/svg">
<rect y="15.0442" width="148.517" height="52.8029" transform="rotate(-5.81381 0 15.0442)" fill="#2238FF"/>
<path d="M32.8749 42.4464C32.8935 42.6179 33.3844 43.4672 34.3478 44.9942C35.3566 46.6204 35.8648 47.4678 35.8722 47.5364C35.9019 47.8109 36.2505 48.4673 36.9181 49.5057C38.0447 51.258 38.3516 52.4916 37.8389 53.2065C37.5941 53.5106 36.494 53.7684 34.5386 53.9799L31.7599 54.2803L30.6389 52.5795C30.1419 51.835 29.2796 50.2797 28.052 47.9136C27.0441 45.9749 26.3273 44.803 25.9017 44.3978C25.5559 44.0882 25.0877 43.9306 24.4971 43.925C24.0131 43.9426 23.4943 44.1202 22.9408 44.4577C22.6163 44.6663 22.4629 45.0126 22.4805 45.4966C22.4861 46.1902 22.5872 47.446 22.7838 49.2642L23.0565 51.7856C23.1121 52.3002 23.1182 52.8375 23.0746 53.3975C23.0274 53.9232 22.9615 54.2774 22.8772 54.46C22.7891 54.6084 22.5485 54.7906 22.1554 55.0066C21.6288 55.2718 21.2797 55.4137 21.1082 55.4322L19.4615 55.6103C17.5747 55.8143 16.5307 55.7884 16.3295 55.5325C16.1246 55.2423 15.6386 51.3904 14.8716 43.9768C14.4237 39.5134 14.0578 36.2906 13.774 34.3083C13.6062 33.077 13.3363 32.1865 12.9645 31.6367C12.13 30.3386 12.4832 29.4328 14.0242 28.9191C14.4664 28.8366 15.1855 28.5853 16.1812 28.1652C16.8414 27.8509 17.6002 27.6474 18.4579 27.5546C19.144 27.4804 19.8125 27.5643 20.4633 27.8063C21.0419 28.0214 22.7243 28.013 25.5104 27.7811C27.0884 27.6104 28.0851 27.52 28.5005 27.5098C29.0188 27.4884 29.5084 27.5223 29.9692 27.6113C30.1444 27.627 30.6488 27.7981 31.4823 28.1244C32.3919 28.5119 33.1128 28.9199 33.645 29.3482C34.2152 29.8071 34.6881 30.3286 35.0636 30.9128C35.4391 31.4969 35.721 32.1779 35.9093 32.9557C36.308 34.7174 36.4221 36.0933 36.2515 37.0835C36.1078 38.0014 35.5275 39.0533 34.5104 40.2392C33.409 41.6077 32.8638 42.3434 32.8749 42.4464ZM26.0126 31.9436C25.103 31.5561 24.1165 31.4198 23.0531 31.5348C22.5042 31.5942 22.163 31.6484 22.0295 31.6976C21.896 31.7467 21.7527 31.8663 21.5997 32.0564C21.4774 32.2084 21.3777 32.4101 21.3007 32.6614C21.1506 33.1982 21.2266 34.5435 21.529 36.6973C21.7682 38.268 21.9351 39.1696 22.0297 39.4023C22.2077 39.7649 22.4776 40.0133 22.8392 40.1478C23.5243 40.386 24.4353 40.3049 25.572 39.9043C26.7087 39.5037 27.5371 38.9803 28.0572 38.3341C28.3326 37.9919 28.5106 37.7124 28.5912 37.4954C28.7025 37.2404 28.7623 36.991 28.7706 36.7472C28.7864 36.5719 28.7609 36.1756 28.6941 35.5581C28.5643 34.3574 28.338 33.5489 28.0153 33.1326C27.6509 32.6514 26.9834 32.2551 26.0126 31.9436ZM39.3789 23.1578C40.6454 22.6737 41.7723 22.3436 42.7598 22.1674C43.4765 22.0552 44.1431 22.122 44.7597 22.3676C45.3382 22.5827 47.8439 22.4853 52.2767 22.0753C54.7124 21.8119 56.2237 21.6659 56.8106 21.6371C57.7785 21.6018 58.4034 21.6037 58.6853 21.6426C59.0738 21.7047 59.3459 21.8141 59.5017 21.9708C60.3074 22.6819 60.2931 23.6726 59.4587 24.9428C59.2139 25.247 58.7332 25.4551 58.0165 25.5673C56.8575 25.7621 55.0927 25.9703 52.7219 26.192L52.1559 26.2532C48.9961 26.5602 47.1051 26.8861 46.483 27.2311C45.9601 27.5305 45.7969 28.5894 45.9935 30.4076L46.0269 30.7163L46.0826 31.2309C46.2681 32.9461 46.6311 33.896 47.1716 34.0805C47.7845 34.2919 49.5299 34.2246 52.4078 33.8787L53.437 33.7674C56.8332 33.4001 58.8855 33.2823 59.5938 33.4139C60.3022 33.5456 60.7046 34.0574 60.8011 34.9493C60.8122 35.0522 60.808 35.1741 60.7886 35.3151C60.8034 35.4523 60.8127 35.538 60.8164 35.5723C60.8312 35.7096 60.7965 35.8695 60.7121 36.0522C60.6546 36.1625 60.5647 36.2937 60.4423 36.4458C60.3811 36.5218 60.1864 36.647 59.8582 36.8213C59.8239 36.825 59.5379 36.908 59.0001 37.0702C58.9009 37.1157 58.6988 37.1722 58.3937 37.2399C58.085 37.2733 57.862 37.2974 57.7248 37.3123C56.9775 37.4625 56.4152 37.558 56.0378 37.5988C55.1802 37.6916 54.4445 37.7885 53.8307 37.8896C49.8207 38.3579 47.678 38.7632 47.4027 39.1053C47.1199 39.3788 47.1306 40.9221 47.4348 43.7351L47.4849 44.1982L47.663 45.8449C47.7186 46.3595 47.7974 46.7674 47.8994 47.0688L48.2054 47.9727C48.2926 48.1368 48.4483 48.2935 48.6727 48.4428C48.8971 48.5921 49.1331 48.688 49.3806 48.7307C49.5596 48.7807 49.9082 48.7951 50.4265 48.7737C50.8075 48.7672 51.2725 48.7343 51.8214 48.675C51.8557 48.6712 52.4866 48.5683 53.7142 48.3661L53.92 48.3439L54.0744 48.3272L54.2802 48.3049C57.5967 47.8422 59.5929 47.366 60.2688 46.8764C61.0133 46.3794 61.6999 46.149 62.3285 46.1852C62.9571 46.2213 63.4573 46.5143 63.8291 47.0641C64.0795 47.4535 64.2139 47.7339 64.2325 47.9055C64.2585 48.1456 64.1908 48.4826 64.0295 48.9165C63.8413 49.4228 63.5525 49.8011 63.1631 50.0514C62.579 50.427 61.7223 50.8493 60.593 51.3185C59.498 51.784 56.189 52.3153 50.6658 52.9126L42.6384 53.7807C41.9653 53.3329 41.0242 52.6538 39.8151 51.7433L38.2904 39.5701C37.2888 31.5918 36.6332 27.1336 36.3235 26.1953C36.0629 25.3905 36.1065 24.8305 36.4542 24.5152C36.7712 24.238 37.7461 23.7855 39.3789 23.1578ZM65.3039 21.7078C66.8411 21.1597 67.9014 20.8542 68.4845 20.7911C69.205 20.7132 69.8544 20.7818 70.433 20.9969C71.1562 21.2658 72.8043 21.2611 75.3771 20.9828C77.5041 20.7528 79.0988 20.7366 80.1613 20.934C81.1516 21.1046 82.2911 21.6928 83.5799 22.6988C84.5265 23.4294 85.176 24.14 85.5284 24.8307C85.8845 25.5558 86.1478 26.7073 86.3185 28.2854C86.4557 29.5546 86.4989 30.435 86.4479 30.9264C86.3932 31.3835 86.1665 32.0154 85.7679 32.822C85.2005 33.994 84.6015 34.8743 83.9711 35.4631C83.3712 36.0139 82.4283 36.6017 81.1423 37.2267C79.6311 38.0148 77.9664 38.5072 76.1482 38.7038C74.2271 38.9116 73.1595 39.1485 72.9453 39.4146C72.7005 39.7187 72.7043 41.0372 72.9566 43.3699C73.22 45.8056 73.2005 47.2307 72.8983 47.6451C72.5997 48.0939 71.4042 48.4314 69.3116 48.6577L66.1212 49.0027L64.9943 37.6194C64.5176 32.5691 64.1688 29.3444 63.9481 27.9453C63.7729 26.6455 63.4956 25.6863 63.1164 25.0679C62.65 24.2854 62.547 23.6544 62.8076 23.1751C63.0449 22.8024 63.877 22.3132 65.3039 21.7078ZM75.8738 25.0939C75.0365 24.7333 74.1205 24.6067 73.1256 24.7143C72.1994 24.8145 71.6232 25.1024 71.3969 25.578C71.2087 26.0843 71.2612 27.6924 71.5543 30.4026C71.8473 33.1127 72.1821 34.6035 72.5585 34.8752C72.9693 35.1431 73.7333 35.1473 74.8505 34.8876C76.0326 34.5863 76.8624 34.2362 77.3399 33.8375C77.8823 33.3971 78.3227 32.6554 78.6611 31.6123C78.9994 30.5692 79.1241 29.636 79.0351 28.8127C78.9794 28.2981 78.8037 27.7965 78.5079 27.3079C78.2502 26.8499 77.8723 26.4049 77.3744 25.9728C76.9869 25.5982 76.4866 25.3053 75.8738 25.0939ZM89.5502 17.7322C91.2173 17.1007 92.3081 16.7572 92.8226 16.7015C93.5088 16.6273 94.0743 16.7224 94.5194 16.9866C94.8921 17.2239 95.1568 17.9068 95.3136 19.0351C95.5083 20.1941 95.9326 23.6362 96.5864 29.3615C97.512 37.2785 98.0277 41.4049 98.1334 41.7405C98.3077 42.0688 99.7499 42.0863 102.46 41.7932C105.17 41.5002 107.172 41.0755 108.465 40.5191C109.366 40.1788 109.987 39.9901 110.33 39.953C110.605 39.9233 110.983 40.0559 111.466 40.3507C112.539 40.9636 112.857 41.658 112.421 42.4341C112.045 43.1341 110.94 43.8263 109.105 44.5106C108.003 44.9074 106.908 45.2167 105.822 45.4383C105.04 45.5922 103.037 45.8436 99.8121 46.1923C96.8276 46.515 94.817 46.6978 93.7805 46.7404C93.0563 46.784 92.4013 46.664 91.8153 46.3803C91.3703 46.1161 91.0281 45.8407 90.7889 45.5542C90.5497 45.2677 90.3392 44.9261 90.1575 44.5293C89.8886 43.9683 89.6832 43.1923 89.5413 42.2012C89.4662 41.8275 89.3688 41.248 89.2492 40.4627C89.1638 39.6737 89.0989 39.0734 89.0544 38.6617C88.9274 37.8078 88.6987 35.8542 88.3686 32.8011C87.6044 25.7342 87.0368 21.7696 86.6659 20.9074C86.3024 20.1137 86.2927 19.5421 86.6366 19.1926C86.9769 18.8087 87.9481 18.3219 89.5502 17.7322ZM111.015 16.9207C111.287 16.5442 112.692 16.2188 115.23 15.9442C117.735 15.6734 119.215 15.7216 119.671 16.0887C120.165 16.4865 120.422 16.7711 120.44 16.9426C120.481 17.32 121.48 19.0167 123.438 22.0327C125.437 25.1136 126.505 26.6467 126.642 26.6318C126.882 26.6059 127.169 26.2104 127.503 25.4455C127.948 24.4256 128.641 22.65 129.582 20.1188C130.957 16.4648 131.824 14.5316 132.182 14.3193C132.545 14.1413 133.378 13.9818 134.682 13.8408C136.088 13.6887 136.899 13.8092 137.115 14.2023C137.369 14.626 136.938 16.2518 135.821 19.0797C135.514 19.7723 135.322 20.2443 135.245 20.4955C133.333 25.2835 132.055 28.5453 131.41 30.281L129.895 34.089L130.324 38.0512C130.628 40.8642 130.614 42.497 130.281 42.9495C129.917 43.4399 128.585 43.7923 126.282 44.0066L122.824 44.2765L122.42 39.5827L122.022 34.9404L118.648 29.7349C116.471 26.2914 115.098 24.184 114.528 23.4126C111.826 19.6095 110.655 17.4455 111.015 16.9207Z" fill="white"/>
</svg>
