<svg width="440" height="678" viewBox="0 0 440 678" fill="none" xmlns="http://www.w3.org/2000/svg">
<rect x="1.2056" y="0.778665" width="489.527" height="595.106" transform="matrix(0.980662 -0.195708 0.224936 0.974373 -68.1518 96.4516)" fill="#2238FF" stroke="white" stroke-width="2"/>
<path d="M61.5 552.286L49 516.954H53.5L70.5 512.305L78.5 548.567L61.5 552.286Z" fill="white"/>
<path d="M72.405 603.62L64.6762 567.127L69.142 567.642L86.628 564.973L89.768 601.874L72.405 603.62Z" fill="white"/>
<path d="M91.5 654.561L79 619.229H83.5L100.5 614.581L108.5 650.842L91.5 654.561Z" fill="white"/>
<path d="M13.5 378.98L1 343.649H5.5L22.5 339L30.5 375.261L13.5 378.98Z" fill="white"/>
<path d="M24.405 430.314L16.6762 393.821L21.142 394.336L38.628 391.668L41.768 428.569L24.405 430.314Z" fill="white"/>
<path d="M43.5 481.255L31 445.924H35.5L52.5 441.275L60.5 477.536L43.5 481.255Z" fill="white"/>
<path d="M202.387 552.939C203.404 552.863 204.503 552.986 205.511 552.775L205.647 552.765C206.571 553.31 207.588 553.234 208.624 553.43C208.624 553.43 208.764 553.487 208.832 553.482C209.118 553.666 209.335 553.854 209.345 553.99C209.427 554.188 209.441 554.392 209.445 554.459L209.488 555.07C209.423 556.098 210.293 556.851 209.899 558.04C209.752 558.869 210.162 559.861 210.373 560.936C210.57 561.808 210.713 562.888 210.987 563.891C211.02 564.366 211.257 564.825 211.358 565.295C211.459 565.765 211.206 566.057 210.877 566.217C210.615 566.373 210.416 566.456 210.213 566.471C209.001 566.698 207.781 566.789 206.628 566.875C206.56 566.88 206.492 566.885 206.212 566.769C206.038 566.237 205.942 565.835 205.773 565.37C205.398 563.898 204.951 562.363 204.242 560.984C203.75 559.793 202.928 558.763 201.927 558.088C201.125 557.329 200.152 557.06 199.134 557.136C197.914 557.227 196.843 557.511 195.859 558.062C194.356 558.992 193.428 560.357 193.149 562.219C193.152 563.241 193.091 564.337 193.307 565.48C193.441 566.424 193.701 567.223 194.237 568.07C194.75 568.577 195.068 569.235 195.58 569.743C196.451 570.496 197.384 571.177 198.512 571.706C198.792 571.822 199.209 571.927 199.494 572.111C200.331 572.389 201.241 572.731 202.244 572.451C202.471 572.775 202.834 573.089 203.25 573.195C204.494 573.443 205.54 573.774 206.585 574.106C207.491 574.379 208.265 574.731 209.107 575.077L210.651 575.712C210.941 575.963 211.367 576.205 211.652 576.388C212.454 577.146 213.252 577.837 213.996 578.736C215.316 580.07 215.967 581.59 216.099 583.489C216.222 585.253 216.354 587.152 216.409 588.921C216.339 589.881 216.405 590.831 216.467 591.713C216.58 593.341 216.059 594.675 215.195 595.967C214.534 597.243 213.379 598.284 212.292 599.319C211.967 599.548 211.57 599.714 211.24 599.875L207.883 600.602L203.125 601.775C202.059 602.127 200.925 602.484 199.917 602.695C199.384 602.871 198.701 602.854 198.163 602.962C197.892 602.982 197.48 602.945 197.209 602.965C195.238 603.044 193.358 603.456 191.546 603.864C191.139 603.894 190.8 603.919 190.398 604.018C189.865 604.194 189.647 604.005 189.542 603.468C189.378 603.071 189.277 602.601 189.244 602.126C189.091 600.91 188.87 599.699 188.577 598.425L187.817 593.368L187.05 589.197C187.04 589.062 186.89 588.868 186.876 588.665C186.862 588.461 186.984 588.248 187.119 588.238C187.114 588.17 187.25 588.16 187.318 588.155C188.592 587.855 189.948 587.754 191.363 587.513C191.499 587.503 191.76 587.347 191.973 587.467C192.114 587.525 192.254 587.583 192.399 587.708L192.755 588.909L194.035 593.587C194.255 594.798 195.004 595.765 195.613 596.674C196.289 597.579 197.155 598.264 198.142 598.736C198.495 598.914 198.984 599.083 199.391 599.052C200.698 599.228 202.054 599.127 203.315 598.624C204.769 597.97 205.647 596.882 206.018 595.354C206.511 593.613 206.393 591.917 205.931 590.178C205.811 589.437 205.561 588.774 205.378 588.106C205.055 587.38 204.664 586.659 203.948 586.167C203.155 585.544 202.434 584.984 201.573 584.366C201.147 584.125 200.794 583.947 200.305 583.778L196.626 582.825C194.196 582.188 191.699 581.555 189.43 580.292C188.225 579.632 187.214 578.821 186.397 577.859C184.919 576.196 184.094 574.144 183.677 572.061C183.124 569.988 182.977 567.885 182.831 565.782C182.784 565.104 183.003 564.338 183.305 563.77C183.335 563.222 183.568 562.659 183.797 562.028C184.026 561.398 184.453 560.684 184.881 559.97C185.696 558.955 186.439 557.877 187.608 557.04C188.253 556.514 188.84 556.13 189.485 555.604C189.553 555.599 189.679 555.454 189.747 555.449C190.949 555.086 192.272 554.51 193.415 554.289C194.816 553.844 196.162 553.607 197.509 553.371C199.205 553.244 200.827 553.055 202.387 552.939ZM212.559 557.091C212.768 557.144 212.971 557.129 213.048 557.26C213.116 557.255 213.135 557.526 213.067 557.531C212.999 557.536 212.796 557.551 212.786 557.415C212.714 557.353 212.709 557.285 212.559 557.091ZM179.739 561.512C179.981 562.04 179.883 562.592 179.857 563.208C179.857 563.208 179.722 563.218 179.654 563.223L179.586 563.228C179.403 562.56 179.506 562.075 179.541 561.595L179.604 561.522C179.739 561.512 179.739 561.512 179.739 561.512ZM213.765 559.729C213.77 559.797 213.915 559.923 213.92 559.99L213.649 560.011C213.44 559.958 213.426 559.754 213.494 559.749C213.62 559.604 213.698 559.734 213.765 559.729ZM175.961 569.908C175.961 569.908 175.966 569.976 176.101 569.965C175.966 569.976 175.902 570.048 175.83 569.986C175.83 569.986 175.893 569.913 175.961 569.908ZM180.149 570.346L180.362 570.466C180.372 570.602 180.241 570.68 180.182 570.821L180.149 570.346ZM180.25 570.816C180.255 570.884 180.39 570.873 180.405 571.077C180.405 571.077 180.274 571.155 180.278 571.223C180.206 571.16 180.206 571.16 180.201 571.092C180.192 570.956 180.187 570.889 180.25 570.816ZM180.565 573.383C180.855 573.635 180.956 574.104 180.699 574.328L180.439 573.529L180.565 573.383C180.56 573.316 180.565 573.383 180.565 573.383ZM181.02 576.009C181.093 576.072 181.306 576.192 181.31 576.26C181.474 576.657 181.362 577.006 181.105 577.23C181.086 576.959 180.99 576.557 180.967 576.217C180.967 576.217 181.025 576.077 181.02 576.009ZM181.105 577.23C181.55 577.742 181.55 577.742 181.475 578.634C181.466 578.499 181.263 578.514 181.258 578.446C181.23 578.039 181.138 577.705 181.105 577.23ZM181.682 579.642C182.068 580.295 182.585 580.87 182.448 581.835C181.853 581.129 181.757 580.727 181.682 579.642ZM183.048 584.586L182.673 583.114C183.113 583.558 183.349 584.018 183.378 584.425C183.532 584.686 183.546 584.89 183.362 585.176C183.352 585.041 183.212 584.983 183.212 584.983L183.048 584.586ZM183.467 585.714L183.43 585.171C183.439 585.307 183.448 585.442 183.589 585.5C183.598 585.636 183.467 585.714 183.467 585.714ZM184.561 591.633C184.773 591.753 184.841 591.748 184.914 591.811C185.155 592.339 185.324 592.804 185.424 593.273C185.572 594.421 185.784 595.497 185.859 596.582C185.714 596.457 185.637 596.326 185.545 595.992C185.044 594.665 184.669 593.193 184.561 591.633ZM185.859 596.582C185.868 596.718 185.95 596.916 186.032 597.115C186.192 597.444 186.22 597.851 185.832 598.152C185.818 597.949 185.731 597.683 185.712 597.411C185.693 597.14 185.674 596.869 185.859 596.582ZM186.174 599.15L185.832 598.152C186.103 598.132 186.452 598.243 186.475 598.582C186.489 598.785 186.368 598.999 186.377 599.135L186.174 599.15ZM220.538 560.998L227.028 561.197C227.259 561.588 227.356 561.99 227.389 562.465L227.212 568.752C227.304 569.086 227.192 569.435 227.206 569.639C227.519 570.229 227.926 570.199 228.333 570.168L232.561 570.195C233.041 570.227 233.443 570.129 233.868 570.37L234.026 571.654C233.919 572.071 233.942 572.41 233.898 572.754C233.728 573.244 233.407 573.541 232.933 573.576L229.858 573.464C228.967 573.394 228.153 573.455 227.14 573.598C227.164 573.938 227.115 574.214 227.134 574.485L226.681 591.498C226.626 592.661 226.706 593.814 227.319 594.791C227.855 595.638 228.561 595.994 229.511 595.924C230.334 595.999 230.984 595.541 231.28 594.906C231.577 594.27 231.665 593.581 231.759 592.961C231.875 592.679 231.852 592.34 231.891 591.928C231.966 591.036 232.421 590.729 233.38 590.794C233.792 590.832 234.15 591.078 234.178 591.485C234.206 591.892 234.23 592.231 234.186 592.575C233.703 594.452 233.288 596.324 231.967 597.923C230.283 600.162 227.893 601.09 225.279 600.739C221.71 600.391 219.539 598.575 218.664 594.822C218.425 593.34 218.326 591.915 218.43 590.475L218.716 579.885L218.722 577.021C218.85 575.92 218.905 574.757 218.844 573.875C218.394 573.295 218.055 573.32 217.576 573.288L215.247 573.12C214.704 573.16 214.405 572.774 214.304 572.304L214.29 572.1C214.162 570.269 214.351 570.05 216.187 569.982L218.1 570.044C218.638 569.935 218.895 569.712 218.862 569.237L219.217 565.528L219.4 561.287C219.87 561.184 220.131 561.028 220.538 560.998ZM230.926 577.067C230.69 581.517 230.215 584.484 228.495 590.135C228.481 589.932 228.403 589.801 228.399 589.733C229.024 586.959 229.586 584.258 229.794 581.379C229.84 580.08 230.361 578.745 230.926 577.067ZM236.4 558.59C238.046 558.74 239.683 558.754 241.325 558.837C246.594 559.126 246.816 559.383 251.958 559.818C257.648 560.281 256.367 561.467 255.92 564.842C255.057 571.043 254.812 600.859 254.345 604.917C254.315 605.465 254.144 605.955 253.979 606.512C253.846 607.545 253.133 608.075 252.184 608.146L249.466 608.28C244.841 608.42 240.216 608.56 235.658 608.694C235.912 594.697 235.809 595.182 235.791 581.205C235.706 579.984 236.407 578.295 236.72 576.908C236.792 576.971 236.797 577.039 236.811 577.242L238.052 595.083C238.174 596.847 238.302 598.679 238.565 600.5C238.694 601.377 239.265 601.744 240.219 601.741C240.906 601.826 241.516 601.781 242.195 601.73C246.336 601.49 246.331 601.422 246.179 597.274C245.983 593.47 245.578 589.614 245.251 585.888C244.927 583.184 245.354 582.471 247.729 581.339C248.122 581.105 248.592 581.002 248.989 580.836C251.921 579.868 252.085 580.265 251.87 576.19C251.813 575.376 251.694 574.634 251.569 573.825C251.454 573.152 250.671 572.665 250.011 572.987C249.149 573.324 248.426 573.718 247.718 574.317C247.068 574.774 246.781 575.546 246.213 576.202C246.019 576.352 245.568 576.727 245.428 576.669C245.07 576.423 244.775 576.104 244.684 575.77C243.913 573.509 243.913 573.509 241.535 573.618L240.585 573.688C239.975 573.734 239.496 573.701 238.89 573.815C237.805 573.895 237.218 574.28 236.922 574.916C236.888 569.531 236.782 564.084 236.4 558.59ZM253.463 562.979C253.667 562.964 253.807 563.022 254.01 563.006C254.072 563.888 254.061 564.707 253.991 565.667C253.996 565.735 253.865 565.813 253.676 566.032C253.371 565.577 253.479 565.16 253.45 564.753C253.476 564.137 253.506 563.59 253.463 562.979ZM263.59 565.498C266.387 564.54 269.104 564.406 271.95 565.149C274.588 565.839 276.222 567.763 276.745 570.383C277.153 572.33 277.353 574.224 277.63 576.249C278.195 582.412 278.561 588.658 279.673 594.849L279.711 595.391C279.816 595.929 279.496 596.226 279.031 596.397C278.421 596.442 277.815 596.555 277.137 596.606C275.306 596.742 275.441 596.732 273.981 595.341C273.715 595.429 273.385 595.59 273.06 595.818C271.193 597.389 268.785 598.046 266.339 598.16C263.147 598.329 259.711 596.949 258.551 593.012C257.848 590.746 257.62 588.444 257.934 586.103C258.419 583.271 260.05 581.24 262.479 579.9C264.641 578.648 266.986 578.065 269.413 577.679C270.227 577.619 271.104 577.485 272.107 577.206C272.513 575.198 272.051 573.46 271.589 571.721C271.156 570.39 270.087 569.719 268.658 569.758C267.844 569.818 266.89 569.821 266.018 570.022C264.007 570.513 262.89 572.096 262.761 574.151L262.794 574.626C263.006 577.679 262.716 577.428 259.877 577.775C259.47 577.806 259.131 577.831 258.787 577.788C258.245 577.829 257.887 577.583 257.854 577.108C257.518 575.224 257.527 573.382 257.947 571.578C258.829 568.58 260.523 566.477 263.59 565.498ZM271.958 581.922C269.584 582.099 267.384 582.808 265.276 583.851C264.219 584.339 263.611 585.407 263.28 586.523C262.774 588.061 263.018 589.611 263.591 591C264.151 592.186 265.152 592.861 266.527 593.032C268.183 593.318 269.656 592.935 271.155 591.937C272.527 591.085 273.178 589.673 273.21 588.17C273.359 586.386 273.164 584.56 273.041 582.796C273.066 582.18 272.5 581.882 271.958 581.922ZM252.968 584.29C253.498 586.024 253.498 586.024 252.973 587.29C252.495 586.303 252.826 585.187 252.968 584.29ZM253.127 587.551C253.605 588.539 253.743 589.551 253.199 590.546C252.785 589.486 252.583 588.547 253.127 587.551ZM253.199 590.546C253.585 591.199 253.763 591.8 253.259 592.383C253.081 591.783 252.902 591.182 253.199 590.546ZM253.273 592.586C253.481 592.639 253.621 592.697 253.374 593.056L253.233 592.999C253.224 592.863 253.21 592.659 253.273 592.586ZM253.543 595.498L253.389 595.237C253.728 595.212 253.539 595.431 253.543 595.498ZM253.562 595.77C254.194 597.018 254.424 598.365 253.845 599.84C253.543 598.43 253.177 597.094 253.562 595.77ZM253.859 600.043L254.168 600.566C254.183 600.769 254.056 600.915 253.935 601.129C253.853 600.93 253.776 600.8 253.766 600.664C253.752 600.461 253.806 600.252 253.859 600.043ZM271.552 599.613C271.688 599.603 271.76 599.665 271.77 599.801L271.707 599.874C271.571 599.884 271.498 599.821 271.498 599.821C271.489 599.686 271.557 599.681 271.552 599.613ZM280.846 563.532C281.999 563.446 283.089 563.433 284.246 563.415L291.114 563.176C291.589 563.141 292.001 563.179 292.48 563.211C292.688 563.264 292.77 563.462 292.784 563.666C292.939 563.927 292.682 564.151 292.41 564.171L291.258 564.257C290.851 564.287 290.521 564.448 290.182 564.473C290.192 564.609 290.128 564.682 290.128 564.682L290.152 565.021C291.569 568.734 292.913 572.384 294.398 576.092C295.059 577.748 295.52 579.486 296.37 580.923C296.651 581.038 296.772 580.825 296.831 580.684L297.736 578.026C298.383 576.545 298.958 575.003 299.532 573.46C300.228 571.703 300.851 569.884 301.542 568.06C302.345 565.886 301.412 565.205 300.081 564.691C299.655 564.45 299.108 564.422 298.556 564.327L297.52 564.131C297.312 564.079 297.099 563.958 297.075 563.619C297.056 563.348 297.309 563.056 297.58 563.036L298.394 562.975C300.365 562.897 302.273 562.891 304.109 562.823C305.126 562.747 306.017 562.817 306.899 562.751C307.306 562.721 307.577 562.701 307.988 562.738C308.4 562.776 308.695 563.095 308.714 563.366C308.665 563.643 308.408 563.866 308.078 564.027L307.603 564.063C306.383 564.154 305.466 564.699 304.782 565.636C304.219 566.36 303.733 567.215 303.455 568.122C302.977 570.067 302.073 571.77 301.382 573.595L300.355 576.467C300.359 576.535 300.359 576.535 300.228 576.613C300.053 577.035 300.566 577.542 300.11 577.849C299.717 578.083 299.542 578.505 299.43 578.854L298.627 581.028C297.873 582.925 297.118 584.822 296.437 586.782C295.444 589.174 294.592 591.624 293.609 594.152C293.215 595.341 292.816 596.462 292.349 597.587C291.629 599.005 290.837 600.359 289.828 601.525C289.071 602.4 288.091 603.018 287.03 603.438C285.232 604.049 283.513 603.836 281.882 602.935C280.813 602.265 280.263 601.214 279.839 600.019C279.57 599.084 279.78 598.182 280.13 597.338C280.539 596.353 281.378 595.677 282.458 595.528C283.8 595.223 285.514 595.369 286.722 597.052C287.185 597.835 287.445 598.634 287.235 599.536C287.03 600.506 286.612 601.356 285.913 602.089C285.719 602.24 285.521 602.323 285.544 602.662C285.612 602.657 285.689 602.788 285.757 602.783C286.227 602.68 286.692 602.509 287.143 602.134C287.919 601.531 288.614 600.729 289.099 599.875C290.188 597.885 291.204 595.831 291.949 593.799L292.343 592.61C292.757 591.693 292.763 590.806 292.363 589.949C291.384 587.636 290.328 585.191 289.276 582.815C288.953 582.089 288.625 581.295 288.23 580.506C287.159 577.858 286.084 575.143 284.942 572.432L282.082 565.622C281.923 565.293 281.764 564.963 281.605 564.634C281.121 564.534 280.578 564.574 280.23 564.464C279.958 564.484 279.813 564.359 279.862 564.082C279.848 563.879 279.97 563.665 280.173 563.65C280.372 563.567 280.643 563.547 280.846 563.532ZM300.569 578.565L300.51 578.706C300.375 578.716 300.37 578.648 300.37 578.648C300.356 578.444 300.491 578.434 300.569 578.565ZM301.557 581.014C301.692 581.004 301.838 581.13 301.91 581.192L302.243 582.054C302.334 582.388 302.556 582.644 302.648 582.979C302.652 583.046 302.589 583.119 302.589 583.119C302.454 583.129 302.328 583.275 302.318 583.139L301.525 582.517C301.085 582.072 300.998 581.806 301.295 581.17C301.353 581.029 301.417 580.956 301.557 581.014ZM298.705 583.136C298.831 582.99 299.117 583.173 299.126 583.309C299.208 583.507 299.15 583.648 299.019 583.726C298.888 583.804 298.748 583.746 298.656 583.412C298.652 583.344 298.642 583.209 298.705 583.136ZM299.765 583.67C300.172 583.64 300.209 584.183 300.563 584.361C300.383 584.715 300.397 584.919 300.624 585.243C300.706 585.441 300.856 585.635 301.001 585.76C301.006 585.828 301.01 585.896 300.884 586.042C300.821 586.115 300.758 586.188 300.685 586.125C300.482 586.14 300.206 586.092 300.192 585.889C299.96 585.497 299.679 585.382 299.321 585.135C298.968 584.957 298.94 584.55 299.26 584.254C299.382 584.04 299.58 583.957 299.765 583.67ZM300.563 584.361C300.703 584.419 300.78 584.55 300.998 584.738L301.007 584.874C300.939 584.879 300.736 584.894 300.731 584.826C300.654 584.695 300.645 584.56 300.563 584.361ZM285.697 588.195C285.833 588.185 285.9 588.18 285.905 588.248C285.978 588.311 285.919 588.451 285.924 588.519C285.856 588.524 285.716 588.467 285.648 588.472C285.639 588.336 285.634 588.268 285.697 588.195ZM286.184 589.318C286.388 589.303 286.523 589.293 286.596 589.356L286.813 589.544C286.61 589.559 286.551 589.7 286.484 589.705C286.406 589.574 286.266 589.517 286.126 589.459C286.189 589.386 286.184 589.318 286.184 589.318ZM302.451 602.699C302 603.074 301.526 603.109 301.051 603.145L294.487 603.838C294.221 603.926 294.017 603.941 293.737 603.825C294.527 603.426 295.422 603.564 296.232 603.435C296.765 603.259 297.239 603.224 297.709 603.121C298.92 602.894 300.136 602.735 301.366 602.78C301.642 602.828 302.044 602.73 302.451 602.699ZM293.737 603.825C293.15 604.21 292.472 604.26 291.861 604.306C292.385 603.994 293.044 603.672 293.737 603.825ZM291.237 604.148C291.44 604.133 291.59 604.326 291.861 604.306L287.758 605.089C285.205 605.62 282.574 606.02 279.934 606.285L279.053 606.35C279.223 605.86 279.508 606.044 279.838 605.883C280.511 605.765 281.194 605.782 281.935 605.659L286.582 604.835C288.136 604.651 289.687 604.4 291.237 604.148ZM315.455 554.955C315.595 555.013 315.537 555.153 315.546 555.289L315.569 561.492C315.592 561.831 315.62 562.239 315.363 562.462L315.196 556.133C315.303 555.716 315.275 555.309 315.455 554.955ZM321.902 559.452C323.452 559.201 325.071 558.944 326.663 559.303C327.36 559.523 328.053 559.677 328.754 559.965L329.669 560.374L330.391 559.98C330.726 559.887 331.055 559.726 331.259 559.711C332.673 559.469 332.746 559.532 332.826 560.685L332.901 561.77C333.033 563.67 333.233 565.564 333.705 567.438C334.021 569.051 333.808 568.931 332.52 569.027L331.977 569.067C331.091 569.065 331.019 569.002 330.55 568.15L329.426 565.711C329.017 564.719 328.209 563.892 327.285 563.348C326.71 562.913 326.071 562.552 325.316 562.471C324.004 562.228 322.657 562.465 321.339 563.108C321.28 563.249 321.222 563.39 321.028 563.541L320.397 564.269C320.014 564.639 319.843 565.129 319.755 565.817C319.671 566.574 319.795 567.383 320.055 568.182C320.325 569.116 320.856 569.895 321.712 570.445C323.144 571.429 324.566 572.278 326.232 572.699C327.35 573.094 328.4 573.493 329.406 574.236C329.691 574.419 329.972 574.535 330.33 574.781C331.549 575.645 332.704 576.582 333.477 577.888C333.646 578.353 333.95 578.807 334.051 579.277C334.643 580.938 334.902 582.691 334.762 584.611C334.59 586.056 334.2 587.312 333.404 588.599L333.166 589.094C332.568 590.297 331.607 591.187 330.569 591.946C329.143 593.007 329.143 593.007 327.336 593.483C325.8 593.938 324.25 594.19 322.531 593.977C321.364 593.859 320.052 593.616 318.987 593.013L318.499 592.845C318.073 592.604 317.661 592.566 317.205 592.873C316.357 593.413 315.557 593.678 314.599 593.613C314.259 593.638 314.11 593.444 314.091 593.173L314.221 591.118L314.341 588.927L314.621 584.133C314.593 583.726 314.772 583.372 314.821 583.095C316.353 582.572 317.408 583.039 317.851 584.506C318.043 585.31 318.226 585.978 318.549 586.704C319.055 588.099 319.871 589.061 321.09 589.925L321.443 590.103C323.263 590.786 325.04 590.858 326.752 589.98C327.804 589.425 328.285 588.502 328.621 587.455C328.616 587.387 328.597 587.115 328.452 586.99C328.448 586.922 328.298 586.729 328.221 586.598C328.982 585.791 328.79 584.987 328.525 584.121C328.12 583.196 327.526 582.49 326.674 582.008C325.678 581.401 324.614 580.798 323.491 580.336C322.092 579.826 320.815 579.103 319.475 578.453C318.555 577.976 317.753 577.217 317.018 576.454C315.988 575.371 315.153 574.138 314.71 572.671C314.619 572.337 314.392 572.013 314.228 571.616C314.169 571.756 314.106 571.829 314.111 571.897C313.882 572.528 313.712 573.018 313.682 573.566L312.838 579.083C312.661 580.46 312.611 581.691 312.637 583.053C312.717 584.206 312.653 585.234 312.452 586.272C312.31 587.169 312.24 588.129 312.161 588.953C312.213 589.699 312.125 590.387 312.172 591.066C312.147 591.681 312.189 592.292 312.173 593.043C312.035 592.031 311.959 590.945 311.898 590.063C311.876 588.769 311.927 587.538 311.982 586.375C312.082 584.867 312.186 583.428 312.354 581.915L312.643 577.257C312.801 575.609 313.158 573.877 313.524 572.282C313.984 570.066 314.506 567.776 314.82 565.435C314.801 565.163 314.986 564.877 315.03 564.533C315.007 564.193 315.186 563.839 315.371 563.553C315.944 562.965 316.516 562.376 317.152 561.715C317.593 561.205 318.112 560.826 318.713 560.645C319.702 560.162 320.691 559.679 321.902 559.452ZM315.363 562.462L315.371 563.553C315.212 563.224 315.12 562.889 315.363 562.462ZM328.325 585.158L328.47 585.284C328.334 585.294 328.339 585.362 328.271 585.367L328.199 585.304C328.262 585.231 328.33 585.226 328.325 585.158Z" fill="white"/>
</svg>
