<svg width="440" height="597" viewBox="0 0 440 597" fill="none" xmlns="http://www.w3.org/2000/svg">
<rect x="1.02989" y="0.999553" width="489.527" height="595.106" transform="matrix(1 0 0.0298939 0.999553 -28.0299 0.000446716)" fill="#2238FF" stroke="white" stroke-width="2"/>
<path d="M18.496 461.889L17.2459 424.432L21.5359 425.791L39.1462 426.491L35.8256 463.475L18.496 461.889Z" fill="white"/>
<path d="M13.3944 514.12L17.0435 476.996L21.1455 478.835L38.6212 481.57L30.4743 517.697L13.3944 514.12Z" fill="white"/>
<path d="M16.2192 568.449L14.9691 530.992L19.2591 532.351L36.8694 533.051L33.5488 570.035L16.2192 568.449Z" fill="white"/>
<path d="M105.202 506.731C106.222 506.743 107.306 506.96 108.328 506.835L108.464 506.837C109.338 507.459 110.358 507.471 111.374 507.755C111.374 507.755 111.509 507.824 111.577 507.825C111.845 508.032 112.046 508.238 112.044 508.374C112.108 508.579 112.105 508.783 112.104 508.851L112.094 509.463C111.941 510.481 112.743 511.307 112.248 512.457C112.031 513.271 112.354 514.294 112.472 515.384C112.594 516.269 112.644 517.358 112.831 518.38C112.823 518.856 113.019 519.334 113.079 519.811C113.14 520.288 112.863 520.557 112.521 520.689C112.247 520.822 112.042 520.887 111.838 520.885C110.612 521.007 109.388 520.992 108.232 520.979C108.164 520.978 108.096 520.977 107.826 520.838C107.699 520.293 107.638 519.884 107.509 519.407C107.262 517.908 106.948 516.34 106.359 514.905C105.972 513.676 105.242 512.58 104.302 511.821C103.567 510.996 102.621 510.645 101.601 510.634C100.377 510.619 99.2859 510.811 98.2581 511.275C96.6808 512.073 95.6396 513.353 95.2014 515.184C95.1166 516.203 94.9628 517.289 95.0797 518.447C95.132 519.399 95.3226 520.217 95.784 521.107C96.251 521.656 96.5118 522.339 96.9788 522.889C97.7814 523.714 98.653 524.472 99.7308 525.097C100.001 525.236 100.406 525.377 100.675 525.584C101.485 525.933 102.363 526.351 103.386 526.159C103.584 526.501 103.919 526.845 104.324 526.986C105.543 527.34 106.556 527.76 107.569 528.18C108.447 528.53 109.189 528.947 109.998 529.364L111.481 530.129C111.749 530.404 112.152 530.681 112.421 530.888C113.156 531.713 113.891 532.469 114.556 533.429C115.756 534.871 116.274 536.441 116.243 538.345C116.214 540.113 116.182 542.016 116.085 543.783C115.934 544.734 115.918 545.685 115.903 546.569C115.877 548.201 115.243 549.486 114.271 550.699C113.503 551.914 112.264 552.851 111.092 553.79C110.749 553.99 110.338 554.121 109.996 554.253L106.589 554.69L101.748 555.45C100.655 555.709 99.4947 555.968 98.4726 556.092C97.9264 556.222 97.2475 556.146 96.7025 556.207C96.4305 556.204 96.0236 556.132 95.7516 556.128C93.7809 556.038 91.8725 556.288 90.0322 556.538C89.6242 556.533 89.2842 556.53 88.8751 556.593C88.3289 556.722 88.1283 556.516 88.0693 555.971C87.94 555.562 87.8798 555.085 87.8877 554.609C87.8398 553.385 87.724 552.159 87.5412 550.865L87.2172 545.761L86.8106 541.54C86.8129 541.404 86.6802 541.199 86.6836 540.995C86.6869 540.791 86.8263 540.588 86.9623 540.59C86.9634 540.522 87.0994 540.523 87.1674 540.524C88.4627 540.335 89.8226 540.351 91.2527 540.231C91.3887 540.233 91.6629 540.1 91.8647 540.239C91.9995 540.308 92.1344 540.378 92.2682 540.515L92.52 541.742L93.3936 546.513C93.5094 547.738 94.1726 548.766 94.7009 549.724C95.2972 550.683 96.1008 551.44 97.0438 551.995C97.3804 552.203 97.8531 552.413 98.261 552.417C99.5485 552.704 100.908 552.72 102.207 552.327C103.712 551.8 104.681 550.792 105.181 549.301C105.821 547.609 105.849 545.909 105.538 544.137C105.483 543.388 105.29 542.706 105.165 542.025C104.905 541.274 104.578 540.522 103.907 539.97C103.17 539.281 102.5 538.662 101.695 537.972C101.292 537.696 100.955 537.488 100.482 537.278L96.8988 536.013C94.5324 535.169 92.098 534.325 89.9457 532.872C88.8021 532.111 87.8647 531.216 87.1335 530.187C85.8027 528.404 85.1574 526.288 84.9201 524.177C84.5469 522.065 84.5816 519.957 84.6163 517.849C84.6274 517.169 84.9117 516.425 85.2607 515.885C85.3376 515.342 85.6185 514.801 85.9006 514.192C86.1827 513.583 86.6698 512.909 87.157 512.234C88.0566 511.293 88.8893 510.282 90.1255 509.549C90.8133 509.081 91.4309 508.748 92.1187 508.28C92.1867 508.28 92.3249 508.146 92.3929 508.147C93.6213 507.889 94.989 507.429 96.1472 507.306C97.5807 506.983 98.9428 506.863 100.305 506.742C102.005 506.762 103.638 506.713 105.202 506.731ZM114.981 511.741C115.183 511.811 115.387 511.813 115.453 511.95C115.521 511.951 115.517 512.223 115.449 512.222C115.381 512.221 115.177 512.219 115.179 512.083C115.112 512.014 115.113 511.946 114.981 511.741ZM81.9023 513.33C82.0973 513.876 81.9524 514.418 81.8743 515.029C81.8743 515.029 81.7383 515.028 81.6703 515.027L81.6023 515.026C81.4775 514.345 81.6214 513.87 81.6972 513.395L81.7663 513.328C81.9023 513.33 81.9023 513.33 81.9023 513.33ZM115.956 514.472C115.955 514.54 116.088 514.678 116.087 514.746L115.815 514.742C115.612 514.672 115.616 514.468 115.684 514.469C115.822 514.335 115.888 514.471 115.956 514.472ZM77.4174 521.37C77.4174 521.37 77.4163 521.438 77.5523 521.44C77.4163 521.438 77.3472 521.505 77.2803 521.437C77.2803 521.437 77.3494 521.369 77.4174 521.37ZM81.5528 522.166L81.7546 522.304C81.7523 522.44 81.6152 522.507 81.545 522.642L81.5528 522.166ZM81.613 522.643C81.6119 522.711 81.7479 522.712 81.7445 522.916C81.7445 522.916 81.6074 522.983 81.6063 523.051C81.5394 522.982 81.5394 522.982 81.5405 522.914C81.5428 522.778 81.5439 522.71 81.613 522.643ZM81.7065 525.228C81.974 525.503 82.0341 525.98 81.7588 526.181L81.5682 525.362L81.7065 525.228C81.7076 525.16 81.7065 525.228 81.7065 525.228ZM81.9348 527.883C82.0017 527.952 82.2034 528.09 82.2023 528.158C82.3316 528.567 82.19 528.906 81.9146 529.107C81.9191 528.835 81.8578 528.426 81.8634 528.086C81.8634 528.086 81.9337 527.951 81.9348 527.883ZM81.9146 529.107C82.3137 529.655 82.3137 529.655 82.1631 530.538C82.1654 530.402 81.9614 530.399 81.9625 530.331C81.9692 529.923 81.9068 529.583 81.9146 529.107ZM82.2823 531.559C82.6111 532.243 83.077 532.86 82.8574 533.81C82.3257 533.056 82.2644 532.647 82.2823 531.559ZM83.2194 536.602L82.9721 535.103C83.3722 535.584 83.5684 536.062 83.5617 536.47C83.6932 536.744 83.6898 536.948 83.4814 537.217C83.4836 537.081 83.3487 537.012 83.3487 537.012L83.2194 536.602ZM83.5404 537.762L83.5494 537.218C83.5471 537.354 83.5449 537.49 83.6797 537.56C83.6775 537.696 83.5404 537.762 83.5404 537.762ZM84.1219 543.753C84.3236 543.891 84.3916 543.892 84.4585 543.961C84.6535 544.507 84.7817 544.985 84.8418 545.461C84.8908 546.618 85.0089 547.708 84.991 548.795C84.8572 548.658 84.7915 548.521 84.7291 548.18C84.3435 546.816 84.0961 545.317 84.1219 543.753ZM84.991 548.795C84.9888 548.931 85.0534 549.136 85.118 549.341C85.2484 549.682 85.2417 550.09 84.8293 550.358C84.8326 550.154 84.7691 549.881 84.7736 549.609C84.7781 549.337 84.7825 549.065 84.991 548.795ZM85.0845 551.381L84.8293 550.358C85.1012 550.361 85.439 550.501 85.4334 550.841C85.43 551.045 85.2907 551.247 85.2884 551.383L85.0845 551.381ZM138.539 514.462C137.842 515.542 137.149 516.282 135.721 516.265C130.69 516.207 125.724 516.285 120.76 516.228L108.997 516.092C108.453 516.085 107.911 515.943 107.299 515.936C110.368 515.427 113.358 515.598 116.213 515.631L133.62 515.833C134.368 515.841 135.05 515.713 135.609 514.836C136.303 513.96 137.388 514.176 138.539 514.462ZM123.859 526.26L123.723 526.259C128.036 524.541 132.033 525.471 135.672 527.553C137.425 528.458 138.485 530.17 138.996 532.148C139.438 534.261 139.744 536.305 139.437 538.409C139.358 539.088 138.805 539.626 138.124 539.686C136.42 539.938 134.858 539.784 133.23 539.562C130.786 539.261 128.204 539.163 125.622 538.997C124.738 538.987 123.841 539.793 123.825 540.745C123.711 543.532 123.87 546.254 125.257 548.786C127.299 552.822 132.807 552.817 135.023 550.463L137.65 547.841C137.788 547.707 138.196 547.711 138.33 547.849C138.531 548.055 138.865 548.399 138.726 548.602C138.51 549.279 138.157 550.091 137.739 550.698C135.085 554.952 129.477 556.859 124.27 555.031C122.918 554.539 121.638 553.776 120.151 553.215L120.287 553.216L120.156 552.943C117.018 549.37 115.863 545.209 116.145 540.452C116.49 536.035 117.646 531.901 120.695 528.468C121.871 527.257 121.736 527.188 122.625 526.858C123.104 526.728 123.379 526.527 123.859 526.26ZM127.145 529.086C126.382 530.03 125.686 530.974 125.329 531.99C124.835 533.072 124.745 534.431 124.455 535.516C124.723 535.791 124.787 535.996 125.057 536.135C126.881 536.904 128.787 536.79 130.697 536.404C131.04 536.272 131.522 535.87 131.596 535.53C131.969 533.495 131.797 531.588 130.942 529.81C130.149 528.373 128.251 528.011 127.145 529.086ZM146.597 522.035C147.613 522.251 148.769 522.265 149.856 522.345L150.196 522.349C153.656 522.865 157.122 522.973 160.585 523.353C161.875 523.436 162.009 523.574 161.988 524.866C161.96 530.714 161.864 536.493 161.837 542.273C161.855 545.333 162.009 548.395 162.026 551.456C162.058 553.632 162.023 555.808 161.851 557.982C161.781 558.117 161.776 558.389 161.637 558.592C161.633 558.796 161.427 558.929 161.291 558.928C160.272 558.848 159.324 558.633 158.373 558.554C155.795 558.184 153.146 557.949 150.564 557.851L147.848 557.548L142.752 557.285C142.48 557.282 142.21 557.143 141.87 557.139C141.259 557.063 140.787 556.854 140.316 556.509C139.982 556.165 139.849 555.959 139.992 555.553C140.137 555.01 140.079 554.398 140.089 553.786C140.066 551.065 140.248 548.279 140.903 545.635C140.976 545.364 140.983 544.956 141.122 544.753C141.537 544.35 141.407 543.94 141.346 543.532C141.347 543.464 141.485 543.329 141.488 543.193C141.838 542.585 141.712 541.972 141.655 541.291C141.659 541.019 141.663 540.815 141.734 540.612L141.733 540.68C141.881 539.934 141.959 539.323 141.495 538.637C141.496 538.569 141.499 538.365 141.569 538.23C141.99 537.487 142.071 536.672 141.949 535.854C141.82 535.377 141.828 534.901 141.836 534.425C141.854 533.337 141.803 532.316 141.685 531.227C141.56 530.546 141.572 529.798 141.584 529.05C141.609 527.554 141.702 526.059 141.795 524.496C141.804 523.952 142.016 523.478 142.566 523.145C142.84 523.012 143.183 522.812 143.527 522.612C144.489 522.011 145.443 521.886 146.597 522.035ZM145.774 526.582C145.434 526.578 145.161 526.643 144.889 526.64C144.674 527.249 144.868 527.864 144.859 528.408C144.945 531.469 144.76 534.459 144.984 537.386C144.98 537.59 144.842 537.724 144.84 537.86C144.6 540.033 144.562 542.345 144.525 544.589C144.496 546.356 144.535 548.125 144.37 549.891C144.36 550.503 144.279 551.25 144.471 552C146.305 552.158 148.142 552.111 150.182 552.135C150.257 551.659 150.264 551.251 150.27 550.911C150.378 548.465 150.417 546.085 150.595 543.571C150.617 542.211 150.708 540.784 150.528 539.354C150.42 537.653 150.789 535.889 150.749 534.188C150.752 533.984 150.823 533.849 150.825 533.713C151.048 532.559 151.873 532.025 153.026 532.174C153.569 532.249 154.041 532.526 154.236 533.072C154.432 533.551 154.422 534.163 154.414 534.639L154.302 541.438C154.179 544.768 154.126 548.032 154.002 551.431C153.997 551.703 154.062 551.907 154.125 552.18C154.465 552.184 154.6 552.254 154.872 552.257C155.756 552.267 156.639 552.345 157.523 552.356C158.067 552.362 158.543 552.367 159.088 552.306C159.428 552.31 159.77 552.178 159.777 551.77C159.785 551.294 160 550.616 159.532 550.135C159.464 550.134 159.466 549.998 159.468 549.862C160.023 549.188 159.97 548.304 159.983 547.488L160.163 536.541C160.184 535.317 160.204 534.094 160.291 532.939C160.44 532.124 160.455 531.24 160.332 530.423C160.228 528.518 159.093 527.212 157.332 526.784C155.436 526.286 153.527 526.536 151.872 527.945L151.114 528.548C150.645 528.135 150.72 527.659 150.66 527.183C150.599 526.774 150.464 526.704 150.056 526.7C148.56 526.682 147.132 526.666 145.774 526.582ZM143.779 532.067L143.509 531.928C143.508 531.996 143.507 532.064 143.438 532.131C143.574 532.133 143.643 532.066 143.779 532.067ZM143.632 532.746L143.503 532.336C143.432 532.471 143.429 532.675 143.426 532.879L143.632 532.746ZM174.575 509.779C174.842 510.054 174.57 510.051 174.432 510.185C174.434 510.049 174.573 509.915 174.575 509.779ZM174.432 510.185C174.419 511.001 174.137 511.61 173.922 512.287C173.642 512.76 173.361 513.301 173.626 513.712C174.298 514.196 174.98 514.068 175.592 514.075C178.65 514.246 181.642 514.281 184.497 514.314C186.741 514.34 188.987 514.23 191.095 514.254C191.707 514.261 192.456 514.202 192.996 514.48C193.517 515.846 192.817 517.062 192.928 518.628C193.061 518.765 193.196 518.835 193.466 518.974C193.6 519.112 193.803 519.182 194.007 519.184C194.002 519.456 194.068 519.593 194.066 519.729C193.603 523.056 193.479 526.455 192.946 529.917C192.713 531.682 192.277 533.377 192.113 535.075C191.583 538.333 191.464 541.46 191.476 544.86C191.422 548.124 191.366 551.523 191.311 554.855C191.293 555.943 191.478 557.101 191.526 558.326C191.7 560.164 191.399 561.928 191.167 563.626C191.153 564.442 190.67 564.912 189.985 565.176C189.644 565.24 189.372 565.237 188.828 565.231C187.813 564.947 187.002 564.598 186.129 563.907C185.524 563.492 184.917 563.213 184.168 563.273C183.352 563.263 182.536 563.254 181.649 563.448L180.969 563.44C178.051 562.998 175.121 563.372 172.133 563.133C169.481 563.103 166.761 563.071 164.178 562.973C161.053 562.801 161.327 562.668 161.376 559.677L161.558 548.594C161.585 546.962 161.408 545.328 161.232 543.626C161.247 542.742 161.264 541.722 161.685 540.911C162.395 539.083 163.108 537.119 163.889 535.088C165.587 531.096 167.085 526.829 168.106 522.692C168.753 520.524 169.33 518.558 169.906 516.593C170.12 515.983 170.263 515.577 170.94 515.789C171.416 515.794 171.556 515.524 171.696 515.254C172.398 513.97 173.031 512.685 173.867 511.471C174.011 510.996 174.223 510.523 174.432 510.185ZM179.064 517.991C178.792 517.988 178.653 518.19 178.585 518.19C178.649 518.462 178.646 518.598 178.782 518.6C179.991 519.566 180.377 520.862 180.351 522.426C180.234 525.417 180.188 528.205 179.866 531.261C179.851 532.145 179.838 532.961 179.484 533.841C179.207 534.11 179.476 534.317 179.472 534.521C179.52 535.745 179.707 536.768 179.62 537.923C179.434 540.981 179.593 543.703 179.27 546.827C179.268 546.963 179.332 547.168 179.329 547.372C179.243 548.459 179.29 549.751 178.933 550.767C178.78 551.786 178.763 552.806 179.225 553.695C179.421 554.173 179.343 554.784 179.4 555.465C179.394 555.805 179.32 556.144 179.311 556.688C179.308 556.892 179.437 557.302 179.778 557.238C180.803 556.977 181.745 557.6 182.697 557.611C184.873 557.637 186.979 557.729 189.085 557.889C189.425 557.893 189.563 557.759 190.243 557.767C188.838 556.39 188.591 554.823 188.619 553.124C188.673 549.86 188.798 546.393 189.056 543.132C189.135 542.453 189.216 541.638 189.23 540.822L189.363 532.731C189.37 532.323 189.515 531.781 189.524 531.237C189.611 530.082 189.629 528.994 189.918 527.909L189.995 523.286C190.097 521.179 190.383 520.366 191.632 518.817C190.888 518.604 190.14 518.595 189.188 518.584C188.098 518.708 187.006 518.899 185.99 518.683C184.634 518.396 183.274 518.38 182.053 518.23C181.035 518.082 180.015 518.07 179.064 517.991ZM186.497 525.082C186.698 525.22 186.898 525.494 186.758 525.697C186.686 525.968 186.479 526.169 186.208 526.098C186.072 526.097 185.875 525.686 185.878 525.482C186.086 525.213 186.225 525.078 186.497 525.082ZM174.587 529.704C174.248 529.632 173.839 529.695 173.567 529.692C172.751 529.683 172.273 529.813 171.592 529.873C169.483 529.917 167.899 531.123 166.649 532.672C165.952 533.684 165.393 534.63 164.832 535.643C164.62 536.117 164.478 536.523 164.334 536.998L163.611 539.573C163.468 539.98 163.395 540.319 163.46 540.524C163.783 541.547 163.564 542.429 163.413 543.379C163.338 543.786 163.329 544.33 163.321 544.806C163.347 547.391 163.78 549.98 164.693 552.371C166.07 555.447 168.285 557.24 171.267 557.887C172.827 558.109 174.395 557.923 175.843 556.716C175.911 556.717 175.913 556.581 175.986 556.242C175.85 556.24 175.513 556.1 175.445 556.099C174.154 556.016 173.621 555.33 173.233 554.102C172.972 553.419 172.986 552.603 173 551.719C173.04 549.339 173.285 546.826 173.122 544.308C173.166 541.656 173.41 539.211 173.588 536.697C173.741 535.678 173.965 534.457 174.185 533.439C174.405 532.49 175.027 531.885 175.71 531.689C176.258 531.491 176.598 531.495 177.554 531.234C176.884 530.615 176.479 530.474 176.277 530.336C175.738 529.989 175.129 529.846 174.587 529.704ZM208.084 521.727C208.288 521.73 208.423 521.799 208.627 521.802C208.613 522.686 208.531 523.501 208.38 524.451C208.378 524.519 208.241 524.585 208.034 524.787C207.77 524.308 207.913 523.902 207.919 523.494C207.997 522.882 208.074 522.339 208.084 521.727ZM217.958 525.106C220.826 524.391 223.545 524.491 226.317 525.475C228.886 526.389 230.349 528.446 230.645 531.101C230.884 533.076 230.921 534.981 231.023 537.022C231.058 543.211 230.887 549.465 231.464 555.728L231.455 556.272C231.514 556.817 231.169 557.085 230.691 557.215C230.079 557.208 229.466 557.269 228.786 557.261C226.95 557.24 227.086 557.241 225.751 555.73C225.478 555.795 225.136 555.927 224.792 556.127C222.797 557.532 220.341 557.979 217.895 557.883C214.7 557.778 211.395 556.108 210.577 552.086C210.071 549.768 210.041 547.455 210.555 545.149C211.281 542.37 213.08 540.486 215.615 539.36C217.877 538.298 220.263 537.917 222.715 537.742C223.531 537.751 224.416 537.693 225.439 537.501C226.015 535.536 225.704 533.764 225.394 531.992C225.076 530.629 224.068 529.869 222.642 529.784C221.826 529.775 220.875 529.696 219.989 529.822C217.943 530.138 216.695 531.62 216.389 533.656L216.381 534.132C216.331 537.192 216.063 536.917 213.205 537.02C212.797 537.015 212.457 537.011 212.119 536.939C211.575 536.933 211.239 536.657 211.247 536.181C211.074 534.275 211.24 532.441 211.814 530.679C212.95 527.768 214.818 525.818 217.958 525.106ZM224.886 542.187C222.506 542.16 220.253 542.677 218.063 543.536C216.968 543.932 216.271 544.944 215.845 546.027C215.209 547.515 215.319 549.081 215.772 550.514C216.227 551.743 217.167 552.502 218.522 552.79C220.148 553.217 221.648 552.962 223.226 552.096C224.667 551.365 225.437 550.014 225.598 548.52C225.899 546.755 225.861 544.919 225.89 543.151C225.968 542.54 225.43 542.193 224.886 542.187ZM205.763 542.918C206.142 544.69 206.142 544.69 205.51 545.907C205.119 544.882 205.545 543.799 205.763 542.918ZM205.642 546.18C206.033 547.205 206.084 548.226 205.456 549.17C205.134 548.079 205.014 547.125 205.642 546.18ZM205.456 549.17C205.785 549.854 205.911 550.468 205.358 551.005C205.232 550.392 205.106 549.778 205.456 549.17ZM205.355 551.209C205.558 551.28 205.693 551.349 205.415 551.686L205.28 551.617C205.282 551.481 205.286 551.277 205.355 551.209ZM205.375 554.134L205.243 553.86C205.583 553.864 205.376 554.066 205.375 554.134ZM205.37 554.406C205.893 555.704 206.007 557.065 205.303 558.485C205.123 557.055 204.873 555.692 205.37 554.406ZM205.3 558.689L205.563 559.236C205.559 559.44 205.421 559.575 205.282 559.777C205.217 559.572 205.151 559.436 205.154 559.3C205.157 559.096 205.228 558.892 205.3 558.689ZM222.964 559.778C223.1 559.779 223.167 559.848 223.165 559.984L223.095 560.051C222.96 560.05 222.893 559.981 222.893 559.981C222.895 559.845 222.963 559.846 222.964 559.778ZM270.144 508.641C271.164 508.653 272.248 508.87 273.271 508.746L273.407 508.747C274.28 509.369 275.3 509.381 276.316 509.665C276.316 509.665 276.451 509.734 276.519 509.735C276.787 509.942 276.988 510.149 276.986 510.285C277.05 510.489 277.047 510.693 277.046 510.761L277.036 511.373C276.883 512.392 277.685 513.217 277.19 514.367C276.973 515.181 277.296 516.205 277.414 517.294C277.536 518.18 277.586 519.268 277.773 520.29C277.765 520.766 277.961 521.245 278.022 521.721C278.082 522.198 277.805 522.467 277.463 522.599C277.189 522.732 276.984 522.797 276.78 522.795C275.554 522.917 274.33 522.903 273.174 522.889C273.106 522.888 273.038 522.888 272.768 522.749C272.641 522.203 272.58 521.794 272.452 521.317C272.204 519.818 271.89 518.25 271.301 516.815C270.914 515.587 270.184 514.49 269.244 513.731C268.509 512.907 267.563 512.556 266.543 512.544C265.319 512.53 264.228 512.721 263.2 513.185C261.623 513.983 260.582 515.263 260.143 517.094C260.059 518.113 259.905 519.199 260.022 520.357C260.074 521.309 260.265 522.128 260.726 523.017C261.193 523.567 261.454 524.25 261.921 524.799C262.723 525.624 263.595 526.383 264.673 527.007C264.943 527.146 265.348 527.287 265.617 527.494C266.427 527.843 267.305 528.262 268.328 528.069C268.526 528.412 268.861 528.756 269.266 528.896C270.485 529.25 271.498 529.67 272.511 530.09C273.389 530.44 274.131 530.857 274.94 531.274L276.424 532.039C276.691 532.315 277.095 532.591 277.363 532.798C278.098 533.623 278.833 534.379 279.498 535.339C280.698 536.781 281.216 538.351 281.185 540.255C281.156 542.023 281.124 543.926 281.027 545.693C280.876 546.644 280.86 547.596 280.846 548.48C280.819 550.111 280.185 551.396 279.213 552.609C278.445 553.824 277.206 554.762 276.034 555.7C275.691 555.9 275.281 556.031 274.938 556.164L271.531 556.6L266.69 557.36C265.597 557.619 264.437 557.878 263.415 558.002C262.868 558.132 262.19 558.056 261.645 558.118C261.373 558.115 260.966 558.042 260.694 558.039C258.723 557.948 256.815 558.198 254.974 558.448C254.566 558.444 254.226 558.44 253.817 558.503C253.271 558.633 253.07 558.426 253.011 557.882C252.882 557.472 252.822 556.995 252.83 556.52C252.782 555.295 252.666 554.069 252.483 552.775L252.159 547.671L251.753 543.45C251.755 543.314 251.622 543.109 251.626 542.905C251.629 542.701 251.768 542.498 251.904 542.5C251.905 542.432 252.041 542.434 252.109 542.434C253.405 542.245 254.765 542.261 256.195 542.142C256.331 542.143 256.605 542.01 256.807 542.149C256.942 542.218 257.076 542.288 257.21 542.425L257.462 543.652L258.336 548.423C258.452 549.648 259.115 550.676 259.643 551.634C260.239 552.593 261.043 553.35 261.986 553.905C262.323 554.113 262.795 554.323 263.203 554.328C264.491 554.614 265.85 554.63 267.149 554.237C268.654 553.711 269.623 552.702 270.123 551.211C270.763 549.519 270.791 547.819 270.48 546.047C270.425 545.299 270.232 544.616 270.107 543.935C269.847 543.184 269.52 542.432 268.849 541.88C268.112 541.192 267.442 540.572 266.637 539.882C266.234 539.606 265.897 539.398 265.425 539.188L261.841 537.923C259.474 537.079 257.04 536.235 254.888 534.782C253.744 534.021 252.807 533.126 252.076 532.097C250.745 530.314 250.1 528.198 249.862 526.087C249.489 523.975 249.524 521.867 249.558 519.76C249.57 519.08 249.854 518.335 250.203 517.795C250.28 517.252 250.561 516.711 250.843 516.102C251.125 515.494 251.612 514.819 252.099 514.145C252.999 513.203 253.831 512.193 255.068 511.459C255.755 510.991 256.373 510.658 257.061 510.19C257.129 510.191 257.267 510.056 257.335 510.057C258.563 509.799 259.931 509.339 261.089 509.217C262.523 508.893 263.885 508.773 265.247 508.653C266.947 508.672 268.58 508.623 270.144 508.641ZM279.923 513.651C280.125 513.721 280.329 513.724 280.395 513.86C280.463 513.861 280.459 514.133 280.391 514.132C280.323 514.132 280.119 514.129 280.121 513.993C280.054 513.924 280.055 513.856 279.923 513.651ZM246.844 515.24C247.039 515.786 246.894 516.329 246.816 516.94C246.816 516.94 246.68 516.938 246.612 516.937L246.544 516.937C246.42 516.255 246.563 515.781 246.639 515.306L246.708 515.238C246.844 515.24 246.844 515.24 246.844 515.24ZM280.898 516.382C280.897 516.45 281.03 516.588 281.029 516.656L280.757 516.653C280.554 516.582 280.558 516.378 280.626 516.379C280.764 516.245 280.83 516.382 280.898 516.382ZM242.359 523.28C242.359 523.28 242.358 523.348 242.494 523.35C242.358 523.348 242.289 523.416 242.222 523.347C242.222 523.347 242.291 523.28 242.359 523.28ZM246.495 524.076L246.697 524.215C246.694 524.351 246.557 524.417 246.487 524.552L246.495 524.076ZM246.555 524.553C246.554 524.621 246.69 524.623 246.687 524.827C246.687 524.827 246.549 524.893 246.548 524.961C246.481 524.892 246.481 524.892 246.483 524.824C246.485 524.688 246.486 524.62 246.555 524.553ZM246.649 527.138C246.916 527.413 246.976 527.89 246.701 528.091L246.51 527.273L246.649 527.138C246.65 527.07 246.649 527.138 246.649 527.138ZM246.877 529.793C246.944 529.862 247.145 530 247.144 530.068C247.274 530.478 247.132 530.816 246.857 531.017C246.861 530.745 246.8 530.336 246.806 529.996C246.806 529.996 246.876 529.861 246.877 529.793ZM246.857 531.017C247.256 531.566 247.256 531.566 247.105 532.448C247.107 532.312 246.903 532.31 246.905 532.242C246.911 531.834 246.849 531.493 246.857 531.017ZM247.224 533.469C247.553 534.153 248.019 534.771 247.799 535.72C247.268 534.966 247.206 534.557 247.224 533.469ZM248.162 538.512L247.914 537.014C248.314 537.494 248.51 537.972 248.504 538.38C248.635 538.654 248.632 538.858 248.423 539.128C248.426 538.992 248.291 538.922 248.291 538.922L248.162 538.512ZM248.482 539.672L248.491 539.128C248.489 539.264 248.487 539.4 248.622 539.47C248.62 539.606 248.482 539.672 248.482 539.672ZM249.064 545.663C249.266 545.802 249.334 545.802 249.401 545.871C249.596 546.418 249.724 546.895 249.784 547.372C249.833 548.528 249.951 549.618 249.933 550.706C249.799 550.568 249.734 550.431 249.671 550.091C249.286 548.726 249.038 547.227 249.064 545.663ZM249.933 550.706C249.931 550.842 249.995 551.046 250.06 551.251C250.19 551.593 250.184 552.001 249.771 552.268C249.775 552.064 249.711 551.791 249.716 551.519C249.72 551.247 249.725 550.975 249.933 550.706ZM250.027 553.291L249.771 552.268C250.043 552.271 250.381 552.411 250.375 552.751C250.372 552.955 250.233 553.157 250.231 553.293L250.027 553.291ZM287.537 518.227L293.985 518.982C294.183 519.392 294.244 519.801 294.236 520.277L293.521 526.525C293.584 526.866 293.442 527.204 293.439 527.408C293.701 528.023 294.109 528.028 294.516 528.033L298.727 528.421C299.201 528.495 299.611 528.432 300.014 528.708L300.061 530.001C299.918 530.407 299.912 530.747 299.839 531.087C299.627 531.56 299.283 531.828 298.807 531.823L295.752 531.447C294.871 531.301 294.055 531.292 293.034 531.348C293.028 531.688 292.956 531.959 292.951 532.231L291.041 549.142C290.886 550.296 290.867 551.452 291.394 552.478C291.855 553.367 292.528 553.783 293.48 553.794C294.294 553.94 294.981 553.539 295.331 552.932C295.681 552.324 295.828 551.645 295.974 551.035C296.115 550.764 296.12 550.425 296.195 550.017C296.345 549.135 296.826 548.869 297.776 549.016C298.182 549.088 298.518 549.364 298.511 549.772C298.504 550.18 298.499 550.52 298.425 550.859C297.783 552.688 297.209 554.517 295.756 555.997C293.886 558.083 291.426 558.803 288.851 558.229C285.325 557.576 283.318 555.581 282.768 551.766C282.657 550.269 282.681 548.841 282.908 547.415L284.101 536.889L284.352 534.035C284.574 532.95 284.729 531.796 284.744 530.912C284.346 530.295 284.006 530.291 283.531 530.218L281.225 529.851C280.681 529.845 280.416 529.433 280.356 528.957L280.359 528.753C280.389 526.917 280.596 526.715 282.431 526.805L284.332 527.031C284.877 526.969 285.152 526.768 285.16 526.292L285.832 522.628L286.378 518.418C286.855 518.355 287.129 518.223 287.537 518.227ZM296.508 535.128C295.891 539.541 295.163 542.457 292.965 547.94C292.968 547.736 292.902 547.599 292.903 547.531C293.764 544.821 294.556 542.178 295.011 539.327C295.168 538.037 295.801 536.752 296.508 535.128ZM303.547 517.189C305.174 517.48 306.804 517.634 308.432 517.857C313.657 518.598 313.856 518.872 318.943 519.747C324.572 520.696 323.194 521.768 322.459 525.092C321.066 531.196 318.265 560.882 317.451 564.884C317.375 565.427 317.163 565.901 316.95 566.443C316.729 567.46 315.973 567.927 315.021 567.916L312.303 567.817C307.682 567.559 303.062 567.302 298.51 567.045C299.963 553.121 299.819 553.596 301 539.668C301.021 538.445 301.863 536.822 302.294 535.467C302.361 535.536 302.359 535.604 302.356 535.808L302.062 553.689C302.033 555.457 302.002 557.293 302.108 559.13C302.162 560.015 302.699 560.429 303.65 560.508C304.327 560.652 304.939 560.659 305.619 560.667C309.766 560.783 309.767 560.715 309.971 556.569C310.102 552.763 310.03 548.886 310.023 545.145C309.932 542.424 310.419 541.75 312.883 540.826C313.294 540.627 313.771 540.564 314.181 540.433C317.186 539.72 317.315 540.129 317.45 536.051C317.463 535.235 317.408 534.486 317.353 533.669C317.296 532.989 316.557 532.436 315.873 532.7C314.985 532.962 314.231 533.293 313.474 533.829C312.787 534.229 312.435 534.973 311.813 535.577C311.607 535.711 311.125 536.045 310.99 535.976C310.655 535.7 310.389 535.357 310.326 535.016C309.752 532.697 309.752 532.697 307.374 532.602L306.422 532.591C305.81 532.584 305.335 532.51 304.722 532.571C303.634 532.559 303.016 532.891 302.666 533.499C303.095 528.132 303.456 522.696 303.547 517.189ZM320.171 523.026C320.375 523.028 320.509 523.097 320.713 523.1C320.699 523.984 320.617 524.799 320.466 525.749C320.465 525.817 320.328 525.883 320.12 526.085C319.856 525.606 319.999 525.2 320.006 524.792C320.084 524.181 320.161 523.637 320.171 523.026ZM330.044 526.404C332.912 525.689 335.631 525.789 338.403 526.773C340.972 527.687 342.435 529.744 342.731 532.399C342.971 534.374 343.007 536.279 343.11 538.32C343.144 544.509 342.973 550.763 343.55 557.026L343.541 557.57C343.6 558.115 343.256 558.383 342.777 558.513C342.165 558.506 341.552 558.567 340.872 558.559C339.036 558.538 339.172 558.54 337.837 557.028C337.564 557.093 337.222 557.225 336.879 557.425C334.883 558.83 332.427 559.277 329.981 559.181C326.786 559.076 323.481 557.406 322.663 553.384C322.157 551.066 322.127 548.754 322.641 546.447C323.367 543.668 325.166 541.784 327.701 540.658C329.963 539.596 332.35 539.215 334.801 539.04C335.617 539.049 336.502 538.992 337.525 538.799C338.102 536.834 337.791 535.062 337.48 533.291C337.162 531.927 336.155 531.167 334.728 531.083C333.912 531.073 332.961 530.994 332.075 531.12C330.029 531.436 328.781 532.918 328.475 534.954L328.467 535.43C328.417 538.49 328.15 538.215 325.292 538.318C324.884 538.313 324.544 538.309 324.205 538.237C323.661 538.231 323.325 537.955 323.333 537.479C323.16 535.573 323.327 533.739 323.9 531.977C325.036 529.066 326.904 527.116 330.044 526.404ZM336.972 543.485C334.592 543.458 332.339 543.976 330.149 544.834C329.054 545.23 328.358 546.242 327.932 547.325C327.295 548.813 327.405 550.379 327.858 551.812C328.314 553.041 329.253 553.8 330.609 554.088C332.234 554.515 333.734 554.26 335.313 553.395C336.753 552.663 337.523 551.312 337.684 549.818C337.985 548.053 337.947 546.217 337.976 544.449C338.054 543.838 337.516 543.492 336.972 543.485ZM317.85 544.216C318.228 545.988 318.228 545.988 317.596 547.205C317.205 546.18 317.631 545.097 317.85 544.216ZM317.728 547.479C318.119 548.503 318.17 549.524 317.543 550.469C317.221 549.377 317.1 548.423 317.728 547.479ZM317.543 550.469C317.871 551.152 317.997 551.766 317.444 552.304C317.318 551.69 317.193 551.077 317.543 550.469ZM317.441 552.508C317.644 552.578 317.779 552.647 317.501 552.984L317.366 552.915C317.369 552.779 317.372 552.575 317.441 552.508ZM317.461 555.432L317.329 555.158C317.669 555.162 317.462 555.364 317.461 555.432ZM317.456 555.704C317.979 557.002 318.093 558.363 317.389 559.783C317.209 558.353 316.959 556.99 317.456 555.704ZM317.386 559.987L317.649 560.534C317.646 560.738 317.507 560.873 317.368 561.075C317.303 560.87 317.238 560.734 317.24 560.598C317.243 560.394 317.315 560.19 317.386 559.987ZM335.05 561.076C335.186 561.078 335.253 561.146 335.251 561.282L335.182 561.349C335.046 561.348 334.979 561.279 334.979 561.279C334.981 561.143 335.049 561.144 335.05 561.076ZM347.405 525.925C348.561 525.938 349.648 526.019 350.803 526.1L357.666 526.452C358.142 526.457 358.549 526.53 359.024 526.604C359.227 526.674 359.291 526.879 359.288 527.083C359.419 527.356 359.144 527.557 358.872 527.554L357.716 527.541C357.308 527.536 356.966 527.668 356.626 527.664C356.624 527.8 356.555 527.867 356.555 527.867L356.549 528.207C357.642 532.028 358.669 535.78 359.83 539.602C360.346 541.308 360.657 543.079 361.38 544.584C361.65 544.723 361.789 544.521 361.859 544.385L362.99 541.814C363.761 540.395 364.466 538.907 365.17 537.419C366.014 535.729 366.791 533.97 367.636 532.212C368.623 530.115 367.751 529.357 366.47 528.73C366.066 528.453 365.523 528.379 364.982 528.237L363.966 527.953C363.763 527.883 363.561 527.744 363.567 527.404C363.572 527.132 363.848 526.864 364.12 526.867L364.936 526.876C366.907 526.967 368.808 527.125 370.643 527.214C371.663 527.226 372.545 527.372 373.429 527.383C373.837 527.387 374.109 527.39 374.515 527.463C374.922 527.536 375.189 527.879 375.184 528.151C375.112 528.422 374.836 528.623 374.494 528.755L374.018 528.749C372.794 528.735 371.835 529.2 371.072 530.075C370.449 530.748 369.891 531.558 369.537 532.438C368.894 534.334 367.847 535.954 367.002 537.713L365.732 540.486C365.731 540.554 365.731 540.554 365.594 540.621C365.383 541.026 365.85 541.576 365.37 541.842C364.958 542.041 364.748 542.447 364.606 542.785L363.619 544.882C362.705 546.707 361.791 548.533 360.944 550.427C359.75 552.726 358.691 555.093 357.495 557.528C357 558.678 356.506 559.76 355.944 560.842C355.105 562.192 354.2 563.474 353.094 564.549C352.265 565.356 351.236 565.888 350.143 566.215C348.299 566.67 346.605 566.31 345.058 565.272C344.05 564.512 343.592 563.419 343.272 562.191C343.084 561.237 343.37 560.356 343.792 559.545C344.283 558.599 345.177 557.997 346.266 557.942C347.63 557.753 349.325 558.045 350.384 559.825C350.778 560.646 350.969 561.464 350.682 562.345C350.395 563.294 349.905 564.104 349.146 564.775C348.94 564.909 348.735 564.975 348.729 565.315C348.797 565.315 348.863 565.452 348.931 565.453C349.408 565.39 349.886 565.26 350.368 564.926C351.193 564.391 351.953 563.652 352.51 562.842C353.766 560.953 354.954 558.994 355.87 557.033L356.365 555.882C356.856 555.004 356.939 554.121 356.613 553.233C355.836 550.844 354.994 548.318 354.15 545.86C353.89 545.109 353.632 544.29 353.305 543.47C352.466 540.74 351.628 537.943 350.722 535.144L348.458 528.113C348.327 527.772 348.197 527.43 348.066 527.089C347.593 526.947 347.049 526.941 346.711 526.801C346.439 526.798 346.305 526.66 346.378 526.389C346.381 526.185 346.52 525.983 346.724 525.985C346.929 525.92 347.201 525.923 347.405 525.925ZM365.765 542.595L365.695 542.73C365.559 542.728 365.56 542.66 365.56 542.66C365.564 542.456 365.7 542.458 365.765 542.595ZM366.54 545.12C366.676 545.121 366.81 545.259 366.876 545.328L367.134 546.215C367.196 546.555 367.396 546.83 367.458 547.17C367.457 547.238 367.388 547.306 367.388 547.306C367.252 547.304 367.114 547.438 367.116 547.303L366.379 546.614C365.979 546.133 365.916 545.861 366.266 545.253C366.336 545.117 366.405 545.05 366.54 545.12ZM363.517 546.989C363.655 546.854 363.924 547.062 363.921 547.198C363.986 547.402 363.916 547.537 363.779 547.604C363.642 547.67 363.507 547.601 363.444 547.26C363.445 547.192 363.448 547.056 363.517 546.989ZM364.527 547.613C364.935 547.617 364.926 548.161 365.262 548.369C365.053 548.707 365.049 548.911 365.248 549.253C365.312 549.458 365.445 549.663 365.579 549.801C365.578 549.869 365.576 549.937 365.438 550.071C365.369 550.138 365.3 550.206 365.233 550.137C365.029 550.135 364.758 550.063 364.762 549.859C364.564 549.449 364.295 549.31 363.959 549.034C363.623 548.826 363.629 548.418 363.974 548.15C364.113 547.948 364.318 547.882 364.527 547.613ZM365.262 548.369C365.397 548.439 365.463 548.575 365.663 548.782L365.661 548.918C365.593 548.917 365.389 548.915 365.39 548.847C365.325 548.71 365.327 548.574 365.262 548.369ZM350.122 550.914C350.258 550.915 350.326 550.916 350.325 550.984C350.392 551.053 350.322 551.188 350.321 551.256C350.253 551.255 350.118 551.186 350.05 551.185C350.052 551.049 350.053 550.981 350.122 550.914ZM350.511 552.074C350.715 552.077 350.851 552.078 350.918 552.147L351.119 552.354C350.915 552.351 350.845 552.486 350.777 552.486C350.711 552.349 350.576 552.279 350.441 552.21C350.51 552.142 350.511 552.074 350.511 552.074ZM365.571 566.802C365.089 567.136 364.613 567.131 364.137 567.125L357.538 567.253C357.265 567.318 357.061 567.315 356.792 567.176C357.613 566.846 358.494 567.06 359.311 567.001C359.857 566.872 360.333 566.877 360.81 566.815C362.036 566.693 363.261 566.639 364.483 566.789C364.754 566.86 365.163 566.797 365.571 566.802ZM356.792 567.176C356.174 567.509 355.494 567.501 354.882 567.494C355.431 567.228 356.115 566.964 356.792 567.176ZM354.274 567.283C354.478 567.285 354.61 567.491 354.882 567.494L350.727 567.922C348.137 568.232 345.482 568.405 342.829 568.442L341.945 568.432C342.157 567.959 342.426 568.166 342.768 568.034C343.449 567.974 344.128 568.049 344.877 567.99L349.576 567.569C351.141 567.519 352.707 567.401 354.274 567.283Z" fill="white"/>
</svg>
