<svg width="440" height="615" viewBox="0 0 440 615" fill="none" xmlns="http://www.w3.org/2000/svg">
<rect x="1.00865" y="0.999963" width="490.552" height="625.245" transform="matrix(1 0 0.00865019 0.999963 -19.0086 6.79479e-05)" fill="#2238FF" stroke="white" stroke-width="2"/>
<path d="M6.83897 504.171L3.59098 465.055L7.96064 466.13L25.638 465.438L24.2824 504.43L6.83897 504.171Z" fill="white"/>
<path d="M4.5116 559.271L6.18887 520.107L10.3958 521.7L28.0468 523.149L21.811 561.634L4.5116 559.271Z" fill="white"/>
<path d="M10.2359 615.925L6.98795 576.809L11.3576 577.884L29.035 577.192L27.6794 616.184L10.2359 615.925Z" fill="white"/>
<path d="M3.83573 315.481L0.587744 276.365L4.95741 277.44L22.6348 276.748L21.2791 315.74L3.83573 315.481Z" fill="white"/>
<path d="M1.50837 370.581L3.18563 331.416L7.39254 333.01L25.0436 334.459L18.8078 372.944L1.50837 370.581Z" fill="white"/>
<path d="M7.23271 427.235L3.98472 388.119L8.35438 389.194L26.0317 388.502L24.6761 427.494L7.23271 427.235Z" fill="white"/>
<path d="M162.897 521.082C163.916 521.029 165.01 521.177 166.024 520.988L166.159 520.981C167.066 521.547 168.085 521.494 169.114 521.713C169.114 521.713 169.253 521.773 169.321 521.77C169.6 521.96 169.812 522.153 169.818 522.289C169.894 522.489 169.902 522.693 169.904 522.761L169.929 523.372C169.833 524.399 170.68 525.172 170.251 526.352C170.079 527.178 170.459 528.179 170.638 529.259C170.809 530.135 170.92 531.219 171.164 532.228C171.182 532.703 171.405 533.168 171.492 533.641C171.578 534.113 171.317 534.398 170.983 534.552C170.717 534.702 170.516 534.781 170.312 534.791C169.095 534.99 167.873 535.054 166.719 535.114C166.651 535.117 166.583 535.121 166.306 534.999C166.148 534.462 166.064 534.058 165.91 533.59C165.579 532.109 165.178 530.564 164.51 529.169C164.054 527.967 163.264 526.918 162.284 526.22C161.505 525.444 160.54 525.153 159.522 525.206C158.299 525.27 157.221 525.53 156.221 526.058C154.691 526.955 153.724 528.299 153.389 530.154C153.361 531.177 153.269 532.271 153.45 533.419C153.556 534.367 153.792 535.172 154.302 536.03C154.799 536.549 155.097 537.215 155.594 537.734C156.441 538.507 157.354 539.208 158.465 539.763C158.742 539.885 159.154 540 159.434 540.19C160.262 540.487 161.161 540.849 162.172 540.592C162.389 540.921 162.742 541.244 163.155 541.358C164.391 541.635 165.425 541.989 166.46 542.344C167.356 542.638 168.12 543.007 168.951 543.373L170.474 544.042C170.757 544.3 171.175 544.551 171.454 544.741C172.234 545.517 173.01 546.226 173.727 547.142C175.006 548.505 175.611 550.04 175.686 551.942C175.756 553.709 175.831 555.611 175.833 557.382C175.735 558.34 175.773 559.291 175.808 560.174C175.872 561.805 175.312 563.128 174.41 564.4C173.711 565.662 172.527 566.677 171.41 567.688C171.078 567.909 170.676 568.066 170.342 568.22L166.965 568.872L162.176 569.937C161.1 570.265 159.957 570.597 158.943 570.786C158.406 570.95 157.724 570.917 157.183 571.013C156.912 571.028 156.501 570.981 156.23 570.995C154.258 571.029 152.367 571.399 150.544 571.766C150.137 571.788 149.797 571.805 149.393 571.894C148.855 572.058 148.643 571.865 148.553 571.325C148.401 570.924 148.315 570.452 148.296 569.977C148.18 568.757 147.995 567.541 147.741 566.261L147.132 561.186L146.489 556.998C146.484 556.862 146.34 556.665 146.332 556.461C146.324 556.257 146.452 556.047 146.588 556.04C146.585 555.972 146.721 555.965 146.789 555.961C148.071 555.69 149.429 555.62 150.85 555.41C150.986 555.403 151.252 555.253 151.461 555.378C151.599 555.439 151.738 555.5 151.879 555.629L152.199 556.838L153.338 561.545C153.522 562.761 154.242 563.745 154.823 564.668C155.471 565.587 156.316 566.292 157.288 566.787C157.636 566.973 158.119 567.152 158.527 567.131C159.828 567.336 161.186 567.265 162.46 566.791C163.932 566.169 164.843 565.101 165.259 563.581C165.803 561.851 165.736 560.152 165.326 558.403C165.229 557.66 164.998 556.991 164.836 556.318C164.534 555.585 164.165 554.855 163.465 554.347C162.691 553.706 161.988 553.13 161.146 552.493C160.728 552.242 160.38 552.056 159.896 551.877L156.249 550.84C153.84 550.148 151.363 549.46 149.133 548.146C147.949 547.458 146.964 546.624 146.176 545.644C144.748 543.948 143.986 541.876 143.631 539.784C143.14 537.699 143.057 535.593 142.973 533.486C142.947 532.807 143.189 532.045 143.507 531.484C143.553 530.937 143.803 530.379 144.051 529.754C144.298 529.128 144.747 528.424 145.195 527.72C146.04 526.723 146.815 525.661 148.008 524.85C148.668 524.34 149.266 523.968 149.926 523.457C149.994 523.454 150.124 523.311 150.192 523.307C151.404 522.972 152.743 522.426 153.892 522.23C155.305 521.816 156.658 521.61 158.01 521.404C159.708 521.316 161.335 521.163 162.897 521.082ZM172.937 525.463C173.144 525.521 173.347 525.51 173.421 525.642C173.489 525.639 173.499 525.911 173.432 525.914C173.364 525.918 173.16 525.928 173.155 525.792C173.084 525.728 173.081 525.66 172.937 525.463ZM140.012 529.146C140.237 529.679 140.123 530.23 140.079 530.845C140.079 530.845 139.943 530.852 139.875 530.855L139.807 530.859C139.645 530.187 139.762 529.704 139.811 529.225L139.876 529.153C140.012 529.146 140.012 529.146 140.012 529.146ZM174.064 528.128C174.066 528.196 174.207 528.325 174.21 528.393L173.938 528.407C173.732 528.35 173.724 528.146 173.792 528.142C173.922 527.999 173.996 528.132 174.064 528.128ZM135.985 537.457C135.985 537.457 135.988 537.525 136.124 537.518C135.988 537.525 135.923 537.597 135.852 537.532C135.852 537.532 135.918 537.461 135.985 537.457ZM140.157 537.99L140.367 538.115C140.372 538.251 140.239 538.326 140.176 538.465L140.157 537.99ZM140.244 538.462C140.247 538.53 140.383 538.523 140.391 538.727C140.391 538.727 140.258 538.802 140.26 538.87C140.19 538.805 140.19 538.805 140.187 538.737C140.182 538.601 140.179 538.533 140.244 538.462ZM140.482 541.037C140.765 541.295 140.851 541.767 140.588 541.985L140.352 541.18L140.482 541.037C140.479 540.969 140.482 541.037 140.482 541.037ZM140.859 543.673C140.929 543.737 141.138 543.862 141.141 543.93C141.293 544.331 141.171 544.678 140.907 544.896C140.896 544.624 140.812 544.22 140.799 543.88C140.799 543.88 140.861 543.741 140.859 543.673ZM140.907 544.896C141.336 545.418 141.336 545.418 141.235 546.309C141.23 546.173 141.026 546.183 141.023 546.115C141.007 545.708 140.926 545.371 140.907 544.896ZM141.411 547.321C141.778 547.983 142.277 548.569 142.111 549.531C141.538 548.812 141.454 548.408 141.411 547.321ZM142.629 552.296L142.298 550.815C142.724 551.27 142.947 551.735 142.963 552.142C143.11 552.407 143.118 552.611 142.925 552.893C142.919 552.757 142.781 552.697 142.781 552.697L142.629 552.296ZM143.014 553.433L142.993 552.89C142.998 553.026 143.003 553.162 143.142 553.223C143.147 553.358 143.014 553.433 143.014 553.433ZM143.93 559.377C144.139 559.503 144.207 559.499 144.277 559.564C144.503 560.097 144.657 560.565 144.744 561.037C144.858 562.189 145.036 563.269 145.079 564.356C144.938 564.227 144.865 564.095 144.784 563.759C144.322 562.421 143.992 560.94 143.93 559.377ZM145.079 564.356C145.085 564.492 145.161 564.692 145.237 564.893C145.386 565.225 145.402 565.633 145.005 565.926C144.997 565.722 144.919 565.454 144.908 565.182C144.897 564.91 144.886 564.639 145.079 564.356ZM145.317 566.931L145.005 565.926C145.277 565.912 145.622 566.03 145.635 566.37C145.644 566.574 145.516 566.785 145.521 566.921L145.317 566.931ZM180.793 529.549L187.271 529.894C187.491 530.291 187.575 530.695 187.594 531.171L187.23 537.454C187.312 537.79 187.189 538.137 187.197 538.341C187.493 538.938 187.901 538.917 188.308 538.896L192.532 539.017C193.01 539.06 193.415 538.971 193.833 539.222L193.952 540.509C193.832 540.924 193.846 541.264 193.791 541.607C193.606 542.093 193.277 542.383 192.802 542.407L189.733 542.226C188.845 542.136 188.03 542.178 187.014 542.299C187.027 542.639 186.97 542.914 186.981 543.186L186.02 560.189C185.93 561.351 185.976 562.506 186.56 563.497C187.07 564.356 187.765 564.729 188.716 564.679C189.536 564.773 190.199 564.33 190.514 563.701C190.83 563.072 190.939 562.385 191.05 561.767C191.175 561.488 191.162 561.148 191.214 560.737C191.315 559.846 191.779 559.55 192.735 559.637C193.145 559.683 193.496 559.938 193.512 560.345C193.528 560.753 193.541 561.093 193.487 561.436C192.948 563.302 192.478 565.165 191.111 566.734C189.361 568.935 186.945 569.81 184.343 569.4C180.788 568.972 178.673 567.107 177.911 563.333C177.716 561.846 177.66 560.419 177.807 558.981L178.409 548.397L178.5 545.532C178.66 544.435 178.75 543.273 178.715 542.389C178.284 541.799 177.944 541.816 177.466 541.773L175.144 541.553C174.601 541.581 174.313 541.188 174.226 540.716L174.218 540.512C174.145 538.677 174.341 538.463 176.177 538.436L178.087 538.541C178.627 538.445 178.891 538.227 178.872 537.751L179.338 534.05L179.647 529.813C180.12 529.72 180.386 529.57 180.793 529.549ZM190.693 545.853C190.324 550.298 189.761 553.255 187.873 558.868C187.865 558.664 187.792 558.531 187.789 558.463C188.497 555.703 189.139 553.015 189.433 550.14C189.518 548.842 190.078 547.519 190.693 545.853ZM196.714 527.498C198.355 527.685 199.99 527.736 201.628 527.855C206.883 528.264 207.098 528.525 212.223 529.076C217.895 529.667 216.58 530.824 216.032 534.189C214.984 540.371 213.85 570.184 213.261 574.231C213.215 574.778 213.03 575.265 212.848 575.819C212.685 576.849 211.956 577.363 211.006 577.412L208.287 577.485C203.661 577.521 199.035 577.557 194.477 577.589C195.148 563.597 195.031 564.079 195.431 550.101C195.382 548.878 196.133 547.205 196.486 545.825C196.557 545.889 196.56 545.957 196.568 546.161L197.275 564.031C197.345 565.797 197.417 567.632 197.626 569.46C197.729 570.339 198.288 570.719 199.241 570.737C199.926 570.838 200.537 570.806 201.216 570.771C205.361 570.624 205.359 570.556 205.33 566.404C205.248 562.596 204.959 558.73 204.743 554.996C204.5 552.286 204.948 551.581 207.355 550.503C207.754 550.278 208.227 550.186 208.629 550.029C211.588 549.126 211.74 549.527 211.646 545.447C211.614 544.631 211.516 543.887 211.416 543.075C211.321 542.399 210.553 541.895 209.885 542.202C209.013 542.519 208.279 542.898 207.554 543.48C206.891 543.923 206.581 544.688 205.994 545.331C205.795 545.478 205.333 545.842 205.195 545.781C204.845 545.527 204.56 545.201 204.478 544.865C203.776 542.587 203.776 542.587 201.396 542.642L200.445 542.692C199.834 542.723 199.356 542.68 198.748 542.78C197.661 542.836 197.063 543.207 196.748 543.837C196.875 538.451 196.932 533.001 196.714 527.498ZM213.633 532.271C213.836 532.26 213.975 532.321 214.179 532.311C214.213 533.194 214.178 534.013 214.08 534.971C214.082 535.039 213.949 535.114 213.754 535.328C213.463 534.867 213.583 534.452 213.567 534.045C213.61 533.43 213.657 532.882 213.633 532.271ZM223.676 535.018C226.499 534.122 229.218 534.049 232.04 534.856C234.655 535.606 236.23 537.567 236.674 540.199C237.024 542.155 237.167 544.054 237.384 546.086C237.764 552.262 237.943 558.516 238.87 564.732L238.891 565.276C238.981 565.816 238.652 566.105 238.182 566.266C237.571 566.297 236.962 566.397 236.283 566.432C234.45 566.528 234.586 566.52 233.168 565.096C232.899 565.178 232.565 565.332 232.234 565.553C230.321 567.082 227.895 567.685 225.447 567.744C222.253 567.841 218.861 566.383 217.82 562.42C217.185 560.138 217.026 557.831 217.41 555.497C217.978 552.676 219.669 550.681 222.136 549.396C224.334 548.193 226.694 547.661 229.131 547.331C229.946 547.289 230.826 547.175 231.837 546.918C232.302 544.919 231.892 543.17 231.483 541.421C231.09 540.08 230.041 539.386 228.613 539.392C227.798 539.434 226.844 539.415 225.967 539.597C223.943 540.042 222.78 541.601 222.589 543.653L222.608 544.129C222.729 547.186 222.446 546.929 219.6 547.213C219.192 547.234 218.853 547.251 218.51 547.201C217.967 547.229 217.617 546.975 217.598 546.499C217.319 544.607 217.382 542.766 217.856 540.971C218.826 537.993 220.582 535.927 223.676 535.018ZM231.547 551.631C229.17 551.754 226.95 552.414 224.812 553.41C223.742 553.874 223.103 554.929 222.739 556.037C222.187 557.564 222.384 559.119 222.916 560.522C223.44 561.72 224.42 562.418 225.789 562.619C227.435 562.942 228.918 562.593 230.445 561.629C231.842 560.807 232.535 559.41 232.612 557.908C232.813 556.127 232.673 554.296 232.603 552.529C232.647 551.914 232.09 551.603 231.547 551.631ZM212.502 553.572C212.979 555.318 212.979 555.318 212.417 556.573C211.969 555.575 212.333 554.466 212.502 553.572ZM212.563 556.837C213.011 557.836 213.119 558.851 212.546 559.834C212.163 558.765 211.99 557.82 212.563 556.837ZM212.546 559.834C212.912 560.496 213.072 561.1 212.55 561.672C212.39 561.068 212.23 560.463 212.546 559.834ZM212.558 561.876C212.765 561.933 212.903 561.994 212.645 562.348L212.507 562.287C212.501 562.151 212.493 561.948 212.558 561.876ZM212.742 564.794L212.595 564.53C212.935 564.512 212.739 564.726 212.742 564.794ZM212.753 565.066C213.347 566.329 213.537 567.681 212.914 569.143C212.654 567.727 212.328 566.382 212.753 565.066ZM212.922 569.347L213.215 569.876C213.223 570.08 213.093 570.223 212.965 570.434C212.889 570.234 212.816 570.101 212.81 569.965C212.802 569.761 212.862 569.554 212.922 569.347ZM230.613 569.314C230.749 569.307 230.82 569.371 230.825 569.507L230.76 569.579C230.624 569.586 230.553 569.521 230.553 569.521C230.548 569.385 230.616 569.382 230.613 569.314ZM240.977 533.439C242.132 533.379 243.221 533.391 244.378 533.399L251.248 533.315C251.723 533.29 252.133 533.337 252.611 533.38C252.818 533.438 252.894 533.638 252.902 533.842C253.048 534.107 252.785 534.324 252.513 534.339L251.358 534.398C250.951 534.42 250.617 534.573 250.277 534.591C250.283 534.727 250.217 534.798 250.217 534.798L250.231 535.138C251.536 538.883 252.77 542.564 254.143 546.305C254.754 547.976 255.163 549.725 255.969 551.181C256.246 551.303 256.374 551.092 256.437 550.952L257.421 548.314C258.111 546.848 258.731 545.318 259.351 543.788C260.099 542.047 260.776 540.242 261.521 538.433C262.389 536.277 261.476 535.576 260.162 535.031C259.744 534.78 259.198 534.741 258.649 534.633L257.62 534.414C257.413 534.357 257.204 534.231 257.191 533.892C257.18 533.62 257.441 533.334 257.712 533.32L258.527 533.278C260.499 533.243 262.406 533.281 264.242 533.253C265.261 533.2 266.149 533.291 267.032 533.245C267.439 533.224 267.711 533.21 268.121 533.256C268.531 533.303 268.816 533.629 268.827 533.901C268.77 534.176 268.506 534.394 268.172 534.547L267.697 534.572C266.475 534.635 265.543 535.16 264.831 536.082C264.246 536.794 263.735 537.637 263.431 538.538C262.895 540.472 261.941 542.156 261.196 543.965L260.084 546.814C260.086 546.882 260.086 546.882 259.953 546.957C259.766 547.375 260.262 547.894 259.798 548.191C259.398 548.416 259.211 548.834 259.088 549.181L258.221 551.336C257.411 553.217 256.601 555.097 255.861 557.042C254.798 559.412 253.873 561.843 252.816 564.349C252.386 565.529 251.954 566.641 251.453 567.756C250.692 569.157 249.861 570.494 248.817 571.637C248.034 572.495 247.037 573.091 245.964 573.488C244.149 574.058 242.438 573.807 240.836 572.869C239.788 572.174 239.27 571.112 238.882 569.906C238.64 568.965 238.877 568.068 239.252 567.232C239.69 566.256 240.548 565.598 241.632 565.474C242.982 565.2 244.691 565.383 245.847 567.094C246.287 567.888 246.523 568.693 246.286 569.59C246.052 570.555 245.609 571.395 244.889 572.114C244.691 572.26 244.49 572.339 244.503 572.678C244.571 572.675 244.644 572.807 244.712 572.804C245.185 572.711 245.655 572.55 246.117 572.186C246.91 571.6 247.628 570.814 248.139 569.97C249.286 568.005 250.362 565.974 251.167 563.958L251.597 562.778C252.037 561.87 252.07 560.983 251.696 560.118C250.787 557.782 249.804 555.314 248.825 552.913C248.524 552.18 248.22 551.379 247.848 550.581C246.857 547.909 245.864 545.169 244.804 542.432L242.15 535.557C242.001 535.224 241.851 534.892 241.702 534.559C241.221 534.448 240.678 534.476 240.333 534.358C240.061 534.372 239.92 534.243 239.977 533.968C239.969 533.764 240.097 533.553 240.301 533.542C240.502 533.464 240.774 533.45 240.977 533.439ZM260.235 548.917L260.172 549.056C260.036 549.063 260.034 548.995 260.034 548.995C260.026 548.792 260.162 548.785 260.235 548.917ZM261.149 551.389C261.285 551.382 261.426 551.51 261.497 551.575L261.803 552.444C261.885 552.78 262.099 553.042 262.181 553.378C262.183 553.446 262.118 553.517 262.118 553.517C261.982 553.524 261.852 553.667 261.846 553.531L261.072 552.891C260.646 552.436 260.568 552.168 260.883 551.539C260.945 551.399 261.011 551.328 261.149 551.389ZM258.236 553.446C258.367 553.303 258.647 553.493 258.652 553.629C258.728 553.829 258.665 553.969 258.532 554.044C258.399 554.119 258.261 554.058 258.179 553.722C258.177 553.654 258.171 553.518 258.236 553.446ZM259.279 554.005C259.687 553.984 259.708 554.527 260.056 554.714C259.866 555.064 259.874 555.268 260.091 555.597C260.167 555.797 260.311 555.994 260.452 556.123C260.455 556.191 260.457 556.259 260.327 556.402C260.262 556.473 260.196 556.545 260.126 556.48C259.922 556.491 259.648 556.437 259.64 556.233C259.42 555.836 259.143 555.714 258.792 555.46C258.445 555.274 258.429 554.866 258.758 554.577C258.885 554.366 259.086 554.287 259.279 554.005ZM260.056 554.714C260.194 554.774 260.268 554.907 260.479 555.1L260.485 555.236C260.417 555.239 260.213 555.25 260.21 555.182C260.137 555.05 260.132 554.914 260.056 554.714ZM245.088 558.214C245.223 558.207 245.291 558.203 245.294 558.271C245.365 558.335 245.302 558.475 245.305 558.543C245.237 558.546 245.098 558.485 245.031 558.489C245.025 558.353 245.022 558.285 245.088 558.214ZM245.541 559.348C245.745 559.337 245.88 559.33 245.951 559.394L246.163 559.588C245.959 559.598 245.896 559.738 245.829 559.741C245.755 559.609 245.617 559.548 245.478 559.487C245.544 559.416 245.541 559.348 245.541 559.348ZM261.396 573.095C260.934 573.46 260.458 573.484 259.983 573.509L253.404 574.055C253.135 574.137 252.931 574.147 252.654 574.026C253.456 573.644 254.347 573.802 255.159 573.691C255.697 573.527 256.172 573.503 256.645 573.41C257.862 573.211 259.081 573.079 260.309 573.152C260.583 573.206 260.988 573.117 261.396 573.095ZM252.654 574.026C252.056 574.397 251.377 574.432 250.766 574.464C251.299 574.164 251.967 573.857 252.654 574.026ZM250.147 574.292C250.351 574.281 250.495 574.478 250.766 574.464L246.643 575.155C244.075 575.628 241.435 575.969 238.789 576.175L237.907 576.221C238.091 575.734 238.371 575.924 238.705 575.771C239.382 575.667 240.063 575.7 240.808 575.593L245.475 574.875C247.034 574.726 248.59 574.509 250.147 574.292ZM275.814 525.64C275.952 525.701 275.89 525.84 275.895 525.976L275.732 532.181C275.746 532.52 275.762 532.928 275.498 533.146L275.52 526.813C275.64 526.398 275.624 525.99 275.814 525.64ZM282.122 530.283C283.678 530.066 285.303 529.846 286.884 530.24C287.573 530.477 288.261 530.645 288.953 530.95L289.855 531.38L290.588 531.001C290.925 530.916 291.259 530.762 291.463 530.752C292.884 530.542 292.954 530.606 293 531.761L293.043 532.848C293.118 534.751 293.262 536.65 293.676 538.535C293.945 540.155 293.735 540.03 292.445 540.096L291.902 540.125C291.016 540.103 290.946 540.038 290.503 539.176L289.453 536.711C289.073 535.71 288.291 534.865 287.384 534.299C286.822 533.852 286.195 533.476 285.443 533.379C284.139 533.106 282.786 533.312 281.449 533.926C281.387 534.066 281.324 534.205 281.126 534.352L280.474 535.066C280.08 535.427 279.895 535.914 279.786 536.6C279.68 537.355 279.78 538.166 280.016 538.971C280.257 539.912 280.765 540.703 281.604 541.272C283.005 542.288 284.401 543.169 286.052 543.628C287.158 544.047 288.195 544.47 289.178 545.236C289.458 545.426 289.735 545.548 290.085 545.802C291.277 546.693 292.404 547.656 293.137 548.98C293.292 549.448 293.582 549.91 293.669 550.382C294.211 552.056 294.417 553.816 294.221 555.732C294.005 557.173 293.579 558.421 292.744 559.69L292.491 560.18C291.858 561.37 290.872 562.238 289.812 562.974C288.356 564.003 288.356 564.003 286.535 564.438C284.987 564.858 283.43 565.075 281.719 564.824C280.557 564.68 279.253 564.407 278.208 563.78L277.724 563.601C277.306 563.351 276.896 563.304 276.431 563.6C275.567 564.122 274.76 564.368 273.804 564.281C273.465 564.299 273.321 564.102 273.31 563.83L273.501 561.778L273.687 559.589L274.11 554.801C274.094 554.394 274.284 554.043 274.341 553.768C275.887 553.279 276.927 553.77 277.326 555.247C277.494 556.056 277.656 556.728 277.958 557.461C278.421 558.867 279.209 559.847 280.401 560.739L280.748 560.925C282.546 561.649 284.32 561.761 286.056 560.922C287.124 560.39 287.632 559.478 287.999 558.438C287.997 558.37 287.986 558.098 287.845 557.97C287.842 557.902 287.698 557.705 287.625 557.572C288.41 556.783 288.242 555.974 288.003 555.102C287.626 554.168 287.053 553.449 286.217 552.948C285.239 552.317 284.194 551.691 283.086 551.204C281.703 550.663 280.449 549.911 279.129 549.23C278.225 548.732 277.445 547.956 276.734 547.176C275.738 546.07 274.94 544.818 274.541 543.34C274.459 543.004 274.242 542.675 274.09 542.274C274.028 542.414 273.963 542.485 273.965 542.553C273.718 543.179 273.533 543.665 273.487 544.212L272.479 549.711C272.261 551.084 272.174 552.314 272.16 553.677C272.206 554.832 272.11 555.858 271.879 556.892C271.71 557.785 271.612 558.744 271.508 559.566C271.538 560.314 271.429 561 271.456 561.68C271.412 562.295 271.436 562.906 271.398 563.657C271.29 562.641 271.247 561.554 271.212 560.671C271.229 559.376 271.316 558.146 271.406 556.984C271.551 555.479 271.698 554.041 271.91 552.532L272.339 547.88C272.546 546.235 272.954 544.512 273.368 542.925C273.893 540.719 274.483 538.441 274.867 536.106C274.856 535.835 275.049 535.552 275.104 535.209C275.09 534.869 275.281 534.519 275.474 534.237C276.063 533.661 276.653 533.086 277.308 532.439C277.764 531.939 278.294 531.571 278.9 531.403C279.902 530.943 280.905 530.482 282.122 530.283ZM275.498 533.146L275.474 534.237C275.324 533.904 275.243 533.568 275.498 533.146ZM287.772 556.135L287.913 556.264C287.777 556.271 287.78 556.339 287.712 556.342L287.642 556.278C287.707 556.206 287.775 556.203 287.772 556.135Z" fill="white"/>
</svg>
