<svg width="414" height="153" viewBox="0 0 414 153" fill="none" xmlns="http://www.w3.org/2000/svg">
<path d="M126.951 76.566L99 95.2453L115.126 104.931L126.951 116L160.815 95.2453V116H373.136L407 6L160.815 30.9057L152.215 76.566L126.951 95.2453V76.566Z" fill="white" stroke="black" stroke-width="10"/>
<path d="M102 92C102 116.301 82.3005 136 58 136C33.6995 136 14 116.301 14 92C14 67.6995 33.6995 48 58 48C82.3005 48 102 67.6995 102 92Z" fill="#2238FF"/>
<path d="M0 153L8.87586 126L95.2138 116.418L117 114L103.283 153H0Z" fill="white"/>
</svg>
