<svg width="414" height="294" viewBox="0 0 414 294" fill="none" xmlns="http://www.w3.org/2000/svg">
<path d="M119.951 206.566L92 225.245L108.126 234.931L119.951 246L153.815 225.245V246H366.136L400 136L153.815 160.906L145.215 206.566L119.951 225.245V206.566Z" fill="white" stroke="black" stroke-width="10"/>
<path d="M126.951 76.566L99 95.2453L115.126 104.931L126.951 116L160.815 95.2453V116H373.136L407 6L160.815 30.9057L152.215 76.566L126.951 95.2453V76.566Z" fill="white" stroke="black" stroke-width="10"/>
<path d="M102 92C102 116.301 82.3005 136 58 136C33.6995 136 14 116.301 14 92C14 67.6995 33.6995 48 58 48C82.3005 48 102 67.6995 102 92Z" fill="#2238FF"/>
<path d="M98 227C98 251.301 78.3005 271 54 271C29.6995 271 10 251.301 10 227C10 202.699 29.6995 183 54 183C78.3005 183 98 202.699 98 227Z" fill="#2238FF"/>
<path d="M0 153L8.87586 126L95.2138 116.418L117 114L103.283 153H0Z" fill="white"/>
<path d="M3 294L11.8 264.231L97.4 253.666L119 251L105.4 294H3Z" fill="white"/>
</svg>
