<svg width="66" height="44" viewBox="0 0 66 44" fill="none" xmlns="http://www.w3.org/2000/svg">
<rect x="1.5" y="1.5" width="63" height="41" rx="8.5" fill="white" stroke="black" stroke-width="3"/>
<g clip-path="url(#clip0_39_18514)">
<path d="M28.2416 13.2562C28.1939 13.3298 28.0457 13.4088 27.818 13.4914C27.3735 13.4287 26.9424 13.3984 26.5357 13.3984C25.6228 13.3984 24.7681 13.5431 24.0491 13.8171C23.002 13.4909 21.5054 13.1319 19.9998 13.1319C18.4943 13.1319 16.9981 13.4908 15.9505 13.8171C15.232 13.5431 14.3773 13.3984 13.4649 13.3984C13.0547 13.3984 12.6201 13.4288 12.1722 13.4924C11.9688 13.4139 11.8033 13.3343 11.6844 13.2562C9.21172 11.6075 8.5768 8.49942 8.90645 9.15872C9.1536 9.65196 12.4402 11.2435 14.7661 12.2186C13.9059 11.1774 12.91 9.63262 12.2209 7.513C12.2209 7.513 15.7938 10.5823 18.0139 11.9009C18.7155 10.6812 19.9997 6.82733 19.9997 6.82733C19.9997 6.82733 21.0876 9.7286 21.1926 11.5976C22.9627 10.6056 24.9047 8.58151 25.4397 7.2301C26.0697 5.637 26.2472 10.3675 24.5353 12.4682C24.5994 12.4776 24.6645 12.4866 24.7312 12.496C27.0229 11.5543 30.6172 9.68882 30.8792 9.28159C31.2085 8.76884 30.7143 11.9739 28.2416 13.2562ZM17.9767 12.2801L17.9329 12.3303L18.1145 12.2866L17.9767 12.2801Z" fill="black"/>
<path d="M6.53343 17.6346C8.76989 14.2799 13.4208 13.4988 15.9282 14.5763C16.9987 14.2303 18.4989 13.8574 19.9999 13.8574C21.501 13.8574 23.0016 14.2303 24.0721 14.5763C26.5796 13.4989 31.2304 14.2799 33.4669 17.6346C37.2249 23.2715 34.5633 35.1728 20 35.1728C5.43708 35.1728 2.77499 23.2715 6.53343 17.6346ZM29.072 21.406C30.0739 21.406 30.8853 20.5941 30.8853 19.5926C30.8853 18.5913 30.0739 17.7793 29.072 17.7793C28.0711 17.7793 27.2587 18.5913 27.2587 19.5926C27.2587 20.594 28.0711 21.406 29.072 21.406Z" fill="black"/>
</g>
<defs>
<clipPath id="clip0_39_18514">
<rect width="30" height="30" fill="white" transform="matrix(-1 0 0 1 35 6)"/>
</clipPath>
</defs>
</svg>
