<svg width="417" height="620" viewBox="0 0 417 620" fill="none" xmlns="http://www.w3.org/2000/svg">
<rect x="1.09329" y="0.915193" width="490.674" height="581.24" transform="matrix(0.996784 -0.0801387 0.0965085 0.995332 -0.0848077 39.5741)" fill="#2238FF" stroke="white" stroke-width="2"/>
<path d="M68.1518 497.277L60.4229 461.537L64.8887 462.041L82.3748 459.428L85.5148 495.567L68.1518 497.277Z" fill="white"/>
<path d="M84.3875 600.042L76.6586 564.302L81.1244 564.806L98.6105 562.192L101.751 598.332L84.3875 600.042Z" fill="white"/>
<path d="M77.8335 538.743L68.0457 516.555L72.5872 517.068L90.116 516.273L95.2879 538.494L77.8335 538.743Z" fill="white"/>
<path d="M159.236 493.051C159.703 492.996 160.29 493.116 160.663 493.072C170.917 493.097 180.985 493.144 191.225 493.076L193.519 493.185C195.345 493.349 195.798 493.863 195.782 495.758C195.861 496.316 195.847 496.885 195.926 497.444C195.823 503.417 195.921 509.461 196.018 515.505C196.211 520.214 196.603 524.993 196.903 529.784C197.215 534.667 197.808 539.518 198.507 544.451C198.862 547.626 199.043 550.916 199.225 554.207C199.501 556.824 199.564 559.276 199.827 561.8C199.799 562.276 199.705 562.95 199.797 563.601C196.142 564.599 192.688 565.005 189.26 565.597C182.938 566.529 176.616 567.461 170.242 568.021C167.254 568.372 164.24 568.537 161.226 568.702C160.76 568.757 160.36 568.615 159.773 568.494C159.28 568.363 158.734 567.859 158.762 567.383C158.924 565.85 158.34 564.405 158.409 562.883C158.384 561.372 158.36 559.861 158.336 558.35L158.236 544.925C158.096 540.589 157.889 536.45 157.576 532.229C157.183 527.45 157.377 522.79 157.571 518.131C157.818 513.182 157.84 507.975 157.888 502.955C157.972 500.201 157.95 497.365 157.927 494.529C157.889 493.587 158.396 493.149 159.236 493.051ZM160.457 496.976C160.07 496.927 159.537 497.178 159.07 497.233C159.108 498.175 159.214 498.92 159.133 499.686L160.924 523.036L161.658 530.898L162.521 542.34C162.732 543.829 162.849 545.329 162.954 546.736L163.315 554.642C163.486 555.852 163.471 557.084 163.536 558.212C163.615 558.77 164.055 559.191 164.521 559.137C166.589 558.988 168.589 559.037 170.443 558.725C175.177 557.979 174.402 559.205 174.09 554.322C173.962 550.741 173.647 547.183 173.333 543.624C173.15 540.996 172.967 538.368 172.785 535.74C172.825 535.357 172.773 534.985 172.72 534.613C172.894 533.835 173.295 533.315 174.136 533.216C175.536 533.052 176.843 532.898 178.256 532.827C178.91 532.75 179.416 532.974 180.083 532.99C180.656 533.018 181.296 533.51 181.214 534.277C181.425 535.766 181.637 537.255 181.754 538.755C181.932 544.695 182.589 550.674 183.06 556.674C183.139 557.232 183.379 557.583 183.458 558.141L192.099 557.504L192.66 557.438C193.393 557.257 193.807 556.83 193.795 556.075C193.929 555.681 193.956 555.204 193.877 554.646L193.094 543.762C192.808 539.065 192.442 534.471 191.956 529.703C191.604 524.54 191.171 519.481 190.713 514.237C190.542 512.364 190.265 510.41 190.255 508.329C190.194 504.552 189.667 500.829 189.512 497.062L189.447 496.597C189.354 495.945 188.835 495.628 188.261 495.601C187.128 495.639 186.008 495.771 184.861 495.716C183.167 495.821 181.447 495.739 179.754 495.843C179.367 495.794 178.833 496.046 178.366 496.101C178.706 500.508 178.926 504.74 179.32 508.857L180.407 521.882L180.297 523.787C180.176 524.274 179.856 524.691 179.389 524.745C177.815 525.025 176.041 525.233 174.428 525.234C172.521 525.174 172.095 524.846 171.831 522.984L171.673 521.867L170.995 511.728C170.824 510.518 170.745 509.297 170.587 508.18C170.511 505.635 170.181 503.308 170.105 500.762C169.978 496.519 170.299 496.103 165.471 496.86C163.857 496.86 162.151 496.871 160.457 496.976ZM169.318 518.643L169.064 518.862C169.051 518.769 168.957 518.78 168.944 518.687C168.944 518.687 169.038 518.676 169.198 518.468L169.318 518.643ZM176.744 571.042L177.024 571.009C176.837 571.031 176.864 571.217 176.77 571.228C176.744 571.042 176.651 571.053 176.651 571.053C176.651 571.053 176.731 570.949 176.744 571.042ZM198.448 509.732C198.728 509.699 198.928 509.77 199.208 509.737C199.38 510.947 199.445 512.075 199.443 513.4C199.456 513.493 199.282 513.608 199.042 513.92C198.576 513.312 198.684 512.732 198.604 512.174C198.579 511.325 198.567 510.57 198.448 509.732ZM212.711 512.597C216.487 511.113 220.235 510.767 224.247 511.62C227.966 512.413 230.416 514.964 231.397 518.539C232.153 521.194 232.616 523.789 233.198 526.559C234.585 535.007 235.705 543.58 237.853 552.033L237.958 552.777C238.157 553.511 237.743 553.938 237.116 554.201C236.276 554.3 235.449 554.491 234.515 554.601C231.994 554.897 232.181 554.875 230.024 553.047C229.664 553.184 229.223 553.425 228.796 553.759C226.366 556.032 223.097 557.078 219.723 557.38C215.322 557.803 210.431 556.107 208.439 550.758C207.244 547.682 206.702 544.528 206.907 541.287C207.3 537.362 209.357 534.47 212.587 532.482C215.457 530.631 218.646 529.689 221.967 529.015C223.087 528.883 224.288 528.647 225.648 528.203C226.013 525.417 225.203 523.052 224.393 520.687C223.663 518.88 222.117 518.021 220.143 518.158C219.023 518.29 217.703 518.35 216.516 518.679C213.781 519.474 212.391 521.719 212.413 524.555L212.505 525.206C213.099 529.394 212.673 529.066 208.778 529.713C208.218 529.779 207.751 529.834 207.271 529.795C206.524 529.883 206.005 529.566 205.912 528.914C205.263 526.341 205.094 523.806 205.497 521.299C206.424 517.121 208.562 514.126 212.711 512.597ZM225.905 534.702C222.638 535.086 219.662 536.193 216.846 537.754C215.432 538.488 214.696 539.993 214.347 541.548C213.797 543.695 214.287 545.813 215.218 547.691C216.108 549.289 217.561 550.159 219.48 550.312C221.8 550.607 223.801 549.994 225.777 548.532C227.592 547.277 228.356 545.295 228.252 543.226C228.283 540.762 227.833 538.26 227.49 535.84C227.465 534.992 226.652 534.614 225.905 534.702ZM199.856 539.088C200.759 541.442 200.759 541.442 200.157 543.216C199.399 541.886 199.748 540.331 199.856 539.088ZM200.396 543.566C201.154 544.896 201.445 546.282 200.79 547.683C200.112 546.249 199.741 544.968 200.396 543.566ZM200.79 547.683C201.388 548.559 201.694 549.375 201.053 550.207C200.747 549.391 200.442 548.576 200.79 547.683ZM201.092 550.486C201.385 550.546 201.585 550.618 201.278 551.127L201.078 551.056C201.052 550.87 201.012 550.59 201.092 550.486ZM201.753 554.477L201.513 554.127C201.98 554.072 201.739 554.384 201.753 554.477ZM201.805 554.85C202.803 556.53 203.253 558.37 202.597 560.434C202.04 558.512 201.403 556.695 201.805 554.85ZM202.636 560.713L203.115 561.414C203.155 561.693 202.995 561.901 202.848 562.202C202.715 561.934 202.595 561.759 202.568 561.573C202.529 561.293 202.583 561.003 202.636 560.713ZM227.081 559.07C227.268 559.048 227.374 559.131 227.401 559.317L227.32 559.421C227.134 559.443 227.027 559.361 227.027 559.361C227.001 559.174 227.094 559.163 227.081 559.07ZM241.484 498.524L250.485 498.413C250.844 498.938 251.017 499.485 251.109 500.137L251.482 508.798C251.642 509.253 251.521 509.74 251.56 510.019C252.053 510.813 252.613 510.747 253.173 510.681L259.027 510.466C259.694 510.483 260.241 510.324 260.854 510.63L261.198 512.387C261.09 512.968 261.156 513.433 261.129 513.909C260.941 514.594 260.527 515.021 259.873 515.098L255.606 515.126C254.366 515.083 253.246 515.214 251.859 515.472C251.925 515.937 251.884 516.321 251.937 516.693L252.981 540.131C253.018 541.735 253.243 543.317 254.187 544.625C255.012 545.758 256.025 546.207 257.332 546.053C258.479 546.108 259.333 545.44 259.681 544.547C260.029 543.655 260.084 542.702 260.152 541.843C260.286 541.448 260.22 540.983 260.234 540.414C260.25 539.182 260.85 538.733 262.184 538.765C262.757 538.792 263.277 539.11 263.356 539.668C263.435 540.227 263.501 540.692 263.473 541.168C262.989 543.78 262.599 546.381 260.928 548.659C258.817 551.84 255.601 553.259 251.948 552.931C246.974 552.664 243.791 550.294 242.212 545.181C241.735 543.155 241.458 541.201 241.461 539.213L240.817 524.623L240.543 520.681C240.612 519.159 240.575 517.555 240.403 516.345C239.724 515.573 239.258 515.628 238.591 515.612L235.351 515.52C234.604 515.607 234.151 515.093 233.966 514.452L233.926 514.173C233.57 511.66 233.81 511.348 236.344 511.145L238.998 511.117C239.731 510.936 240.065 510.613 239.973 509.961L240.101 504.837L239.937 498.99C240.577 498.82 240.924 498.59 241.484 498.524ZM257.439 520.02C257.549 526.158 257.183 530.269 255.357 538.148C255.318 537.869 255.198 537.694 255.185 537.601C255.778 533.746 256.29 529.996 256.296 526.021C256.232 524.231 256.822 522.364 257.439 520.02ZM289.556 490.036C288.833 491.635 288.045 492.769 286.084 492.999C279.176 493.811 272.387 494.798 265.572 495.599L249.421 497.497C248.674 497.585 247.901 497.486 247.061 497.585C251.156 496.347 255.29 496.05 259.211 495.589L283.111 492.781C284.138 492.66 285.045 492.364 285.62 491.066C286.382 489.747 287.916 489.85 289.556 490.036ZM271.992 508.753L271.805 508.775C277.344 505.664 283.023 506.227 288.46 508.427C291.059 509.351 292.883 511.502 294.012 514.114C295.074 516.922 295.937 519.659 295.972 522.588C296.011 523.53 295.37 524.362 294.449 524.565C292.168 525.212 289.995 525.278 287.714 525.262C284.301 525.285 280.74 525.609 277.166 525.839C275.952 525.982 274.897 527.241 275.082 528.544C275.529 532.371 276.337 536.061 278.785 539.274C282.458 544.425 290.007 543.444 292.532 539.835L295.565 535.788C295.726 535.58 296.286 535.514 296.499 535.679C296.819 535.925 297.351 536.335 297.204 536.637C297.056 537.6 296.748 538.772 296.306 539.675C293.59 545.956 286.317 549.554 278.785 547.979C276.826 547.547 274.907 546.732 272.748 546.229L272.934 546.207L272.695 545.856C267.621 541.533 265.136 536.053 264.493 529.505C264.009 523.411 264.698 517.559 268.133 512.329C269.482 510.468 269.283 510.396 270.43 509.789C271.057 509.526 271.391 509.202 271.992 508.753ZM277.107 512.032C276.265 513.455 275.516 514.868 275.247 516.319C274.805 517.885 274.975 519.757 274.813 521.29C275.239 521.619 275.372 521.887 275.772 522.029C278.438 522.757 281.025 522.263 283.56 521.398C284 521.157 284.575 520.522 284.602 520.045C284.673 517.198 284.024 514.625 282.467 512.348C281.07 510.525 278.39 510.367 277.107 512.032ZM297.024 490.294C299.317 490.403 301.584 490.326 303.865 490.342C311.185 490.428 311.518 490.767 318.678 491.061C326.598 491.36 324.942 493.069 324.655 497.739C324.068 506.324 326.658 547.368 326.41 552.98C326.422 553.736 326.234 554.42 326.06 555.197C325.977 556.626 325.043 557.399 323.736 557.552L319.988 557.898C313.6 558.365 307.213 558.832 300.918 559.287C299.894 540.011 299.8 540.684 298.403 521.451C298.165 519.776 298.969 517.411 299.265 515.483C299.372 515.565 299.385 515.659 299.425 515.938L302.894 540.415C303.237 542.835 303.593 545.348 304.136 547.839C304.401 549.038 305.227 549.508 306.547 549.448C307.507 549.524 308.347 549.426 309.281 549.316C314.989 548.74 314.976 548.647 314.358 542.947C313.712 537.724 312.774 532.441 311.955 527.334C311.24 523.633 311.762 522.625 314.938 520.927C315.459 520.582 316.099 520.412 316.633 520.16C320.596 518.654 320.861 519.19 320.163 513.595C320.005 512.478 319.767 511.466 319.515 510.36C319.29 509.44 318.157 508.816 317.276 509.298C316.116 509.813 315.155 510.399 314.233 511.264C313.379 511.932 313.057 513.011 312.336 513.947C312.082 514.166 311.494 514.709 311.294 514.637C310.775 514.32 310.335 513.899 310.176 513.444C308.887 510.379 308.887 510.379 305.607 510.67L304.3 510.823C303.459 510.922 302.793 510.906 301.966 511.097C300.472 511.273 299.698 511.837 299.35 512.729C298.774 505.322 298.093 497.833 297.024 490.294ZM330.774 489.45C330.974 489.521 330.907 489.718 330.934 489.905L331.574 498.44C331.64 498.905 331.719 499.464 331.385 499.787L330.532 491.087C330.639 490.507 330.56 489.948 330.774 489.45ZM340.139 495.257C342.26 494.818 344.474 494.369 346.714 494.768C347.7 495.031 348.673 495.2 349.673 495.556L350.979 496.065L351.94 495.479C352.394 495.331 352.834 495.09 353.114 495.057C355.048 494.64 355.155 494.722 355.379 496.305L355.59 497.794C355.959 500.4 356.422 502.995 357.258 505.546C357.855 507.746 357.548 507.593 355.775 507.802L355.028 507.889C353.801 507.939 353.694 507.857 352.963 506.713L351.168 503.423C350.503 502.082 349.305 500.992 347.972 500.297C347.133 499.734 346.214 499.274 345.16 499.209C343.321 498.952 341.48 499.357 339.718 500.321C339.651 500.518 339.584 500.715 339.331 500.935L338.529 501.975C338.035 502.506 337.847 503.191 337.792 504.143C337.75 505.189 338.002 506.295 338.441 507.379C338.905 508.649 339.717 509.689 340.956 510.395C343.034 511.664 345.086 512.748 347.432 513.229C349.018 513.705 350.511 514.192 351.976 515.155C352.389 515.391 352.789 515.533 353.309 515.85C355.08 516.967 356.772 518.187 357.969 519.939C358.248 520.569 358.714 521.176 358.9 521.817C359.883 524.067 360.413 526.465 360.409 529.114C360.312 531.113 359.896 532.865 358.92 534.683L358.639 535.378C357.93 537.07 356.687 538.351 355.326 539.458C353.456 541.002 353.456 541.002 351.002 541.763C348.921 542.481 346.8 542.92 344.4 542.729C342.773 542.636 340.933 542.379 339.401 541.613L338.708 541.41C338.095 541.104 337.522 541.077 336.921 541.526C335.8 542.32 334.719 542.731 333.386 542.698C332.919 542.753 332.693 542.496 332.64 542.124L332.617 539.288L332.569 536.265L332.486 529.652C332.407 529.093 332.621 528.595 332.661 528.212C334.729 527.401 336.235 527.981 336.992 529.974C337.337 531.069 337.656 531.977 338.174 532.957C339.012 534.846 340.236 536.121 342.008 537.238L342.514 537.462C345.1 538.294 347.567 538.288 349.849 536.979C351.25 536.152 351.826 534.854 352.188 533.392C352.175 533.299 352.122 532.927 351.909 532.763C351.896 532.669 351.67 532.412 351.55 532.237C352.525 531.082 352.18 529.987 351.728 528.81C351.077 527.562 350.185 526.626 348.959 526.013C347.52 525.236 345.988 524.469 344.389 523.9C342.403 523.282 340.564 522.363 338.645 521.548C337.326 520.946 336.141 519.95 335.049 518.942C333.518 517.514 332.24 515.866 331.483 513.873C331.324 513.419 330.978 512.987 330.712 512.45C330.645 512.647 330.565 512.751 330.578 512.844C330.323 513.726 330.136 514.41 330.148 515.166L329.523 522.809C329.413 524.714 329.464 526.411 329.634 528.284C329.858 529.866 329.87 531.284 329.694 532.724C329.585 533.967 329.583 535.292 329.555 536.43C329.7 537.454 329.645 538.407 329.777 539.338C329.803 540.186 329.921 541.024 329.973 542.058C329.682 540.673 329.471 539.184 329.299 537.974C329.142 536.195 329.091 534.498 329.054 532.894C329.044 530.813 329.047 528.826 329.13 526.734L329.073 520.307C329.13 518.029 329.454 515.626 329.804 513.408C330.222 510.332 330.72 507.15 330.925 503.909C330.873 503.537 331.1 503.132 331.127 502.656C331.061 502.19 331.275 501.692 331.503 501.287C332.237 500.443 332.972 499.6 333.787 498.653C334.348 497.924 335.029 497.371 335.843 497.086C337.164 496.363 338.485 495.641 340.139 495.257ZM331.385 499.787L331.503 501.287C331.25 500.843 331.091 500.389 331.385 499.787ZM351.553 530.25L351.766 530.414C351.579 530.436 351.592 530.529 351.499 530.54L351.393 530.458C351.473 530.354 351.566 530.343 351.553 530.25Z" fill="white"/>
</svg>
