<svg width="154" height="68" viewBox="0 0 154 68" fill="none" xmlns="http://www.w3.org/2000/svg">
<rect y="15.0442" width="148.517" height="52.8029" transform="rotate(-5.81381 0 15.0442)" fill="#2238FF"/>
<path d="M24.2161 22.323C25.4833 21.7178 27.2382 21.2939 29.481 21.0514C31.795 20.8011 33.6515 20.8165 35.0505 21.0974C36.9315 21.5062 38.635 22.4385 40.1611 23.8942C41.7266 25.3817 42.3554 26.7003 42.0475 27.8501C41.9917 28.0002 41.8209 28.2527 41.5352 28.6078C41.2177 29.0023 40.9579 29.2645 40.7559 29.3944C40.3835 29.6147 40.0429 29.7956 39.7341 29.9371C39.354 30.0862 39.0038 30.1781 38.6834 30.2128C37.2594 30.3667 36.0259 29.6177 34.9829 27.9658C34.5104 27.2605 34.1265 26.7078 33.8311 26.3075C33.579 25.9746 33.2398 25.6691 32.8136 25.3911C32.5019 25.1727 32.1622 25.0293 31.7947 24.961C31.4627 24.8889 31.0653 24.8778 30.6025 24.9279C30.1753 24.9741 29.8232 25.0482 29.5461 25.1502C29.3046 25.2483 29.1204 25.3763 28.9934 25.5341C28.8346 25.7313 28.6658 26.0017 28.4868 26.3452C27.7787 27.7904 27.8119 29.2635 28.5865 30.7644C29.0821 31.6832 31.2878 32.5972 35.2039 33.5063C38.4165 34.2394 40.7796 35.4425 42.2932 37.1156C42.8647 37.7381 43.227 38.2572 43.38 38.6729C43.5407 39.1597 43.6865 40.0083 43.8174 41.2187C43.9944 42.8563 43.9117 44.0898 43.5692 44.9192C43.1988 45.8236 42.4763 46.8022 41.4016 47.8548C39.74 49.4751 36.5678 50.4485 31.885 50.7748C29.3458 50.9413 27.5134 50.8153 26.3877 50.3968C25.5227 50.0582 24.7823 49.7061 24.1665 49.3405C23.4756 48.947 22.9075 48.5222 22.462 48.0661C22.0165 47.6101 21.5594 47.0472 21.0909 46.3776C20.5001 45.5771 20.1498 45.0027 20.0401 44.6544C19.9343 44.3417 19.9829 43.9583 20.1859 43.5041C20.437 42.8287 21.0138 42.3341 21.9162 42.0204L23.2642 41.4965L26.1219 43.9427C28.1848 45.7005 29.8922 46.6684 31.244 46.8463C32.6315 47.0204 33.8472 46.4388 34.8911 45.1013C35.3 44.5529 35.5443 44.1483 35.6242 43.8875C35.6963 43.5556 35.6939 43.0336 35.6169 42.3216C35.5014 41.2536 35.2921 40.4839 34.989 40.0125C34.7802 39.7469 34.4074 39.4631 33.8705 39.161C33.2585 38.831 32.5437 38.5481 31.7258 38.3124C30.7223 38.0248 29.9655 37.8545 29.4556 37.8016C28.0999 37.588 26.7663 37.246 25.4549 36.7756C24.2185 36.333 23.1308 35.7664 22.1917 35.0756C21.2526 34.3848 20.62 33.6968 20.2938 33.0118C19.8925 32.2988 19.6245 31.3194 19.4898 30.0734C19.355 28.8274 19.4214 27.7758 19.6888 26.9185C19.8889 26.1045 20.4272 25.2539 21.3037 24.3668C22.0811 23.5624 23.0519 22.8811 24.2161 22.323ZM45.9252 18.2466C47.2395 17.7444 48.409 17.4018 49.4337 17.2189C50.1774 17.1025 50.8692 17.1718 51.509 17.4267C52.1094 17.6499 54.7097 17.5488 59.3097 17.1234C61.8373 16.85 63.4056 16.6984 64.0147 16.6686C65.0192 16.632 65.6677 16.6339 65.9602 16.6743C66.3633 16.7388 66.6457 16.8523 66.8073 17.0149C67.6435 17.7528 67.6286 18.7809 66.7627 20.0991C66.5087 20.4147 66.0098 20.6307 65.2661 20.7471C64.0634 20.9492 62.2319 21.1653 59.7717 21.3953L59.1843 21.4589C55.9053 21.7774 53.943 22.1157 53.2974 22.4736C52.7547 22.7844 52.5854 23.8832 52.7895 25.77L52.8241 26.0904L52.8819 26.6244C53.0743 28.4044 53.4511 29.3901 54.012 29.5816C54.648 29.8009 56.4593 29.7311 59.4458 29.3721L60.5138 29.2566C64.0382 28.8755 66.1679 28.7532 66.903 28.8898C67.6381 29.0264 68.0557 29.5575 68.1558 30.4831C68.1673 30.5899 68.163 30.7165 68.1428 30.8627C68.1582 31.0051 68.1678 31.0941 68.1717 31.1297C68.1871 31.2721 68.151 31.4381 68.0634 31.6276C68.0038 31.7421 67.9105 31.8783 67.7835 32.0361C67.72 32.115 67.5179 32.2449 67.1773 32.4258C67.1417 32.4296 66.8449 32.5157 66.2868 32.6841C66.1839 32.7313 65.9741 32.79 65.6576 32.8602C65.3372 32.8949 65.1058 32.9199 64.9634 32.9353C64.1879 33.0912 63.6044 33.1903 63.2128 33.2327C62.3228 33.3289 61.5593 33.4295 60.9224 33.5344C56.761 34.0204 54.5375 34.4409 54.2518 34.796C53.9583 35.0798 53.9694 36.6813 54.2851 39.6005L54.3371 40.0811L54.5219 41.7899C54.5796 42.3239 54.6614 42.7472 54.7673 43.0599L55.0848 43.998C55.1752 44.1683 55.3369 44.3309 55.5697 44.4858C55.8026 44.6407 56.0475 44.7403 56.3044 44.7846C56.4901 44.8365 56.8518 44.8514 57.3897 44.8293C57.7851 44.8225 58.2676 44.7883 58.8372 44.7267C58.8728 44.7229 59.5276 44.6161 60.8015 44.4063L61.0151 44.3832L61.1753 44.3659L61.3889 44.3428C64.8305 43.8625 66.902 43.3684 67.6034 42.8604C68.376 42.3446 69.0885 42.1055 69.7408 42.143C70.3932 42.1805 70.9123 42.4845 71.2981 43.0551C71.5579 43.4592 71.6974 43.7502 71.7167 43.9282C71.7436 44.1774 71.6734 44.5272 71.506 44.9775C71.3107 45.5028 71.011 45.8954 70.6069 46.1552C70.0007 46.5449 69.1117 46.9832 67.9398 47.47C66.8035 47.9531 63.3696 48.5045 57.6381 49.1243L49.3077 50.0252C48.6092 49.5605 47.6326 48.8557 46.3779 47.9109L44.7957 35.2783C43.7563 26.999 43.0759 22.3725 42.7545 21.3988C42.4841 20.5636 42.5293 19.9825 42.8901 19.6553C43.2191 19.3676 44.2308 18.8981 45.9252 18.2466ZM91.6655 13.0841C93.8785 12.2326 95.2361 11.7976 95.7383 11.7793C96.3512 11.7851 96.8583 12.1444 97.2595 12.8574C97.7195 13.7801 98.3902 18.3176 99.2718 26.4699C99.9494 32.7355 100.315 36.9459 100.368 39.1011C100.429 41.0033 100.216 42.1969 99.7284 42.6818C99.2647 43.0561 98.1428 43.3395 96.3628 43.532C94.476 43.736 93.2878 43.7385 92.798 43.5393C92.6085 43.4518 92.2674 43.1285 91.7747 42.5695C91.4476 42.2087 90.9886 41.628 90.3978 40.8275C89.807 40.027 89.3442 39.4108 89.0094 38.9788C88.8833 38.8124 88.7395 38.6478 88.5778 38.4852C88.4479 38.2832 88.3594 38.1307 88.3123 38.0277L88.1881 37.8791C87.8494 37.4115 87.5286 36.942 87.2255 36.4705C86.6154 35.492 85.4738 33.7607 83.8005 31.2764C82.643 29.5648 81.9006 28.5285 81.5735 28.1678C80.9817 27.6915 80.6373 27.8368 80.5401 28.6036C80.4786 29.3666 80.6653 31.7595 81.1003 35.7823L81.9088 43.2582L81.1049 44.3176C80.7239 44.791 80.3396 45.0667 79.9518 45.1446C79.3187 45.2851 78.3417 45.4088 77.0206 45.5156L73.6983 45.7668L71.9285 32.3982C70.8823 23.7234 70.2481 18.8578 70.0258 17.8013L69.7804 16.5313L73.2658 15.29C73.6853 15.1726 74.0139 15.047 74.2515 14.9133C76.0844 14.2109 77.4189 14.2286 78.255 14.9666C79.0479 15.6372 81.1628 18.5418 84.5998 23.6806C84.8557 24.0491 85.1983 24.5523 85.6274 25.1902C86.0566 25.8281 86.3577 26.2818 86.5309 26.5512C87.8222 28.5005 88.7969 29.8537 89.4551 30.6109C90.196 31.4672 90.6852 31.8285 90.9229 31.6947C91.2 31.5927 91.0349 29.2335 90.4276 24.6171C89.8915 19.993 89.3498 17.3144 88.8023 16.5812C88.2865 15.8086 88.2192 15.1856 88.6002 14.7122C88.9138 14.2821 89.9356 13.7394 91.6655 13.0841ZM102.361 12.5758C103.85 12.0186 105.017 11.6583 105.864 11.4947C106.608 11.3782 107.335 11.4436 108.046 11.6909C108.575 11.9218 110.108 11.9362 112.643 11.734C115.171 11.4607 116.928 11.3967 117.917 11.5419C119.743 11.7766 121.701 12.7354 123.792 14.4181C125.962 16.1644 127.447 17.9125 128.249 19.6627C128.956 21.2069 129.458 23.3496 129.754 26.0908C130.047 28.7964 129.972 30.9295 129.528 32.4901C129.213 33.5687 128.713 34.6132 128.03 35.6235C127.188 36.831 126.349 37.8942 125.512 38.8131C124.603 39.7397 123.63 40.5652 122.592 41.2898L120.566 42.5354L112.247 43.543C106.63 44.2225 103.719 44.4472 103.514 44.2173C103.238 43.995 102.66 39.4835 101.78 30.6827C101.292 25.8372 100.876 22.1546 100.532 19.6347C100.279 17.9692 100.011 16.9898 99.7276 16.6963C99.3571 16.2682 99.1233 15.7712 99.0261 15.2055C98.9289 14.6397 99.0309 14.2505 99.3321 14.0379C99.7006 13.7819 100.71 13.2946 102.361 12.5758ZM113.691 16.4289C112.735 16.2442 111.9 16.1903 111.188 16.2673C110.441 16.3481 109.942 16.5642 109.692 16.9154C109.449 17.3378 109.646 20.9901 110.282 27.8724L111.189 38.255L112.16 38.7443C112.772 39.0743 113.446 39.1454 114.182 38.9578C114.99 38.7624 115.748 38.4463 116.457 38.0095C117.269 37.5255 117.994 36.9068 118.633 36.1534C119.304 35.3606 119.842 34.51 120.248 33.6017C120.777 32.5 121.084 31.0082 121.169 29.1262C121.237 27.4261 121.032 25.7014 120.555 23.9522C120.11 22.1636 119.623 20.9917 119.095 20.4366C118.562 19.8458 118.285 19.4436 118.262 19.23C118.231 18.9452 117.675 18.4651 116.593 17.7897C115.397 17.0547 114.43 16.6011 113.691 16.4289Z" fill="white"/>
</svg>
